<svg width="21" height="21" viewBox="0 0 21 21" fill="none" xmlns="http://www.w3.org/2000/svg">
<rect x="0.5" y="0.5" width="19.9441" height="20" rx="4.5" fill="white" stroke="#C4C4C4"/>
<path d="M15.3246 9.38525L14.5722 7.12805C14.4631 6.79942 14.2531 6.51354 13.9722 6.31103C13.6913 6.10852 13.3537 5.99969 13.0075 6H7.99255C7.64626 5.99969 7.30869 6.10852 7.02779 6.31103C6.74689 6.51354 6.53695 6.79942 6.4278 7.12805L5.6754 9.38525C5.47532 9.46897 5.30446 9.60997 5.18429 9.79052C5.06412 9.97107 5 10.1831 5 10.4V13.15C5 13.5559 5.2222 13.9068 5.55 14.0977V15.35C5.55 15.4959 5.60795 15.6358 5.71109 15.7389C5.81424 15.8421 5.95413 15.9 6.1 15.9H6.65C6.79587 15.9 6.93576 15.8421 7.03891 15.7389C7.14205 15.6358 7.2 15.4959 7.2 15.35V14.25H13.8V15.35C13.8 15.4959 13.8579 15.6358 13.9611 15.7389C14.0642 15.8421 14.2041 15.9 14.35 15.9H14.9C15.0459 15.9 15.1858 15.8421 15.2889 15.7389C15.3921 15.6358 15.45 15.4959 15.45 15.35V14.0977C15.6169 14.002 15.7556 13.864 15.8521 13.6976C15.9487 13.5312 15.9997 13.3424 16 13.15V10.4C16 10.1831 15.9359 9.97107 15.8157 9.79052C15.6955 9.60997 15.5247 9.46897 15.3246 9.38525ZM7.99255 7.1H13.0069C13.244 7.1 13.4541 7.2507 13.5289 7.4762L14.1372 9.3H6.86285L7.4706 7.4762C7.50709 7.36664 7.57714 7.27134 7.67083 7.20382C7.76451 7.13629 7.87707 7.09997 7.99255 7.1ZM6.925 12.6C6.81662 12.6 6.70932 12.5786 6.6092 12.5371C6.50909 12.4956 6.41813 12.4347 6.34152 12.3581C6.26491 12.2814 6.20416 12.1904 6.16272 12.0903C6.12127 11.9901 6.09996 11.8828 6.1 11.7745C6.10004 11.6661 6.12142 11.5588 6.16293 11.4587C6.20443 11.3585 6.26525 11.2676 6.34191 11.191C6.41857 11.1144 6.50957 11.0536 6.60971 11.0122C6.70985 10.9707 6.81717 10.9494 6.92555 10.9495C7.14443 10.9495 7.35431 11.0365 7.50903 11.1914C7.66374 11.3462 7.75062 11.5561 7.75055 11.775C7.75048 11.9939 7.66346 12.2038 7.50864 12.3585C7.35382 12.5132 7.14388 12.6001 6.925 12.6ZM14.075 12.6C13.9666 12.6 13.8593 12.5786 13.7592 12.5371C13.6591 12.4956 13.5681 12.4347 13.4915 12.3581C13.4149 12.2814 13.3542 12.1904 13.3127 12.0903C13.2713 11.9901 13.25 11.8828 13.25 11.7745C13.25 11.6661 13.2714 11.5588 13.3129 11.4587C13.3544 11.3585 13.4153 11.2676 13.4919 11.191C13.5686 11.1144 13.6596 11.0536 13.7597 11.0122C13.8599 10.9707 13.9672 10.9494 14.0756 10.9495C14.2944 10.9495 14.5043 11.0365 14.659 11.1914C14.8137 11.3462 14.9006 11.5561 14.9005 11.775C14.9005 11.9939 14.8135 12.2038 14.6586 12.3585C14.5038 12.5132 14.2939 12.6001 14.075 12.6Z" fill="url(#paint0_linear)"/>
<defs>
<linearGradient id="paint0_linear" x1="10.5" y1="6" x2="10.5" y2="15.9" gradientUnits="userSpaceOnUse">
<stop stop-color="#38D4F2"/>
<stop offset="1" stop-color="#4587E1"/>
</linearGradient>
</defs>
</svg>
