<svg width="166" height="182" viewBox="0 0 166 182" fill="none" xmlns="http://www.w3.org/2000/svg">
<mask id="path-1-inside-1" fill="white">
<path fill-rule="evenodd" clip-rule="evenodd" d="M30.2104 164.153C31.345 162.335 32 160.193 32 157.898C32 151.327 26.6274 146 20 146C13.3726 146 8 151.327 8 157.898C8 160.193 8.65494 162.335 9.78957 164.153H9.60769L20 182L30.3923 164.153H30.2104Z"/>
</mask>
<path fill-rule="evenodd" clip-rule="evenodd" d="M30.2104 164.153C31.345 162.335 32 160.193 32 157.898C32 151.327 26.6274 146 20 146C13.3726 146 8 151.327 8 157.898C8 160.193 8.65494 162.335 9.78957 164.153H9.60769L20 182L30.3923 164.153H30.2104Z" fill="url(#paint0_linear)"/>
<path d="M30.2104 164.153L29.3622 163.623L28.4071 165.153H30.2104V164.153ZM9.78957 164.153V165.153H11.5929L10.6378 163.623L9.78957 164.153ZM9.60769 164.153V163.153H7.86823L8.74351 164.656L9.60769 164.153ZM20 182L19.1358 182.503L20 183.987L20.8642 182.503L20 182ZM30.3923 164.153L31.2565 164.656L32.1318 163.153H30.3923V164.153ZM31 157.898C31 160 30.4008 161.96 29.3622 163.623L31.0587 164.682C32.2893 162.711 33 160.386 33 157.898H31ZM20 147C26.0832 147 31 151.887 31 157.898H33C33 150.767 27.1717 145 20 145V147ZM9 157.898C9 151.887 13.9168 147 20 147V145C12.8283 145 7 150.767 7 157.898H9ZM10.6378 163.623C9.59924 161.96 9 160 9 157.898H7C7 160.386 7.71065 162.711 8.94133 164.682L10.6378 163.623ZM9.60769 165.153H9.78957V163.153H9.60769V165.153ZM20.8642 181.497L10.4719 163.649L8.74351 164.656L19.1358 182.503L20.8642 181.497ZM29.5281 163.649L19.1358 181.497L20.8642 182.503L31.2565 164.656L29.5281 163.649ZM30.2104 165.153H30.3923V163.153H30.2104V165.153Z" fill="white" mask="url(#path-1-inside-1)"/>
<path d="M20.2937 153.986C21.7404 153.986 22.8511 154.243 23.6257 154.756C24.4004 155.26 24.7877 156.091 24.7877 157.248C24.7877 158.415 24.3957 159.259 23.6117 159.782C22.8277 160.295 21.7077 160.552 20.2517 160.552H19.5657V163.8H17.3817V154.238C17.8577 154.145 18.3617 154.079 18.8937 154.042C19.4257 154.005 19.8924 153.986 20.2937 153.986ZM20.4337 155.848C20.2751 155.848 20.1164 155.853 19.9577 155.862C19.8084 155.871 19.6777 155.881 19.5657 155.89V158.69H20.2517C21.0077 158.69 21.5771 158.587 21.9597 158.382C22.3424 158.177 22.5337 157.794 22.5337 157.234C22.5337 156.963 22.4824 156.739 22.3797 156.562C22.2864 156.385 22.1464 156.245 21.9597 156.142C21.7824 156.03 21.5631 155.955 21.3017 155.918C21.0404 155.871 20.7511 155.848 20.4337 155.848Z" fill="white"/>
<mask id="path-4-inside-2" fill="white">
<path fill-rule="evenodd" clip-rule="evenodd" d="M12.4373 139.568L19.3828 146L26.3284 139.568L156 139.568C161.523 139.568 166 135.091 166 129.568L166 10C166 4.47719 161.523 4.61678e-05 156 4.66506e-05L9.99999 5.94143e-05C4.47714 5.98971e-05 -1.23723e-05 4.4772 -1.18895e-05 10L-1.4365e-06 129.568C-9.53679e-07 135.091 4.47716 139.568 10 139.568L12.4373 139.568Z"/>
</mask>
<path fill-rule="evenodd" clip-rule="evenodd" d="M12.4373 139.568L19.3828 146L26.3284 139.568L156 139.568C161.523 139.568 166 135.091 166 129.568L166 10C166 4.47719 161.523 4.61678e-05 156 4.66506e-05L9.99999 5.94143e-05C4.47714 5.98971e-05 -1.23723e-05 4.4772 -1.18895e-05 10L-1.4365e-06 129.568C-9.53679e-07 135.091 4.47716 139.568 10 139.568L12.4373 139.568Z" fill="white"/>
<path d="M19.3828 146L18.7034 146.734L19.3828 147.363L20.0623 146.734L19.3828 146ZM12.4373 139.568L13.1167 138.835L12.8292 138.568L12.4373 138.568L12.4373 139.568ZM26.3284 139.568L26.3284 138.568L25.9365 138.568L25.6489 138.835L26.3284 139.568ZM166 129.568L165 129.568L166 129.568ZM166 10L167 10L166 10ZM156 4.66506e-05L156 1.00005L156 4.66506e-05ZM9.99999 5.94143e-05L9.99999 -0.999941L9.99999 5.94143e-05ZM20.0623 145.266L13.1167 138.835L11.7578 140.302L18.7034 146.734L20.0623 145.266ZM25.6489 138.835L18.7034 145.266L20.0623 146.734L27.0078 140.302L25.6489 138.835ZM156 138.568L26.3284 138.568L26.3284 140.568L156 140.568L156 138.568ZM165 129.568C165 134.539 160.971 138.568 156 138.568L156 140.568C162.075 140.568 167 135.643 167 129.568L165 129.568ZM165 10L165 129.568L167 129.568L167 10L165 10ZM156 1.00005C160.971 1.00005 165 5.02946 165 10L167 10C167 3.9249 162.075 -0.999954 156 -0.999953L156 1.00005ZM9.99999 1.00006L156 1.00005L156 -0.999953L9.99999 -0.999941L9.99999 1.00006ZM0.999988 10C0.999988 5.02949 5.02942 1.00006 9.99999 1.00006L9.99999 -0.999941C3.92487 -0.99994 -1.00001 3.92491 -1.00001 10L0.999988 10ZM0.999999 129.568L0.999988 10L-1.00001 10L-1 129.568L0.999999 129.568ZM10 138.568C5.02945 138.568 0.999999 134.539 0.999999 129.568L-1 129.568C-1 135.643 3.92487 140.568 10 140.568L10 138.568ZM12.4373 138.568L10 138.568L10 140.568L12.4373 140.568L12.4373 138.568Z" fill="#C4C4C4" mask="url(#path-4-inside-2)"/>
<rect x="38" y="59" width="95" height="30" rx="10" fill="url(#paint1_linear)"/>
<path d="M64.8208 78C64.7328 77.712 64.6328 77.416 64.5208 77.112C64.4168 76.808 64.3128 76.504 64.2088 76.2L60.9688 76.2C60.8648 76.504 60.7568 76.808 60.6448 77.112C60.5408 77.416 60.4448 77.712 60.3568 78L58.4128 78C58.7248 77.104 59.0208 76.276 59.3008 75.516C59.5808 74.756 59.8528 74.04 60.1168 73.368C60.3888 72.696 60.6528 72.06 60.9088 71.46C61.1728 70.852 61.4448 70.26 61.7248 69.684L63.5128 69.684C63.7848 70.26 64.0528 70.852 64.3168 71.46C64.5808 72.06 64.8448 72.696 65.1088 73.368C65.3808 74.04 65.6568 74.756 65.9368 75.516C66.2168 76.276 66.5128 77.104 66.8248 78L64.8208 78ZM62.5768 71.568C62.5368 71.688 62.4768 71.852 62.3968 72.06C62.3168 72.268 62.2248 72.508 62.1208 72.78C62.0168 73.052 61.9008 73.352 61.7728 73.68C61.6528 74.008 61.5288 74.352 61.4008 74.712L63.7648 74.712C63.6368 74.352 63.5128 74.008 63.3928 73.68C63.2728 73.352 63.1568 73.052 63.0448 72.78C62.9408 72.508 62.8488 72.268 62.7688 72.06C62.6888 71.852 62.6248 71.688 62.5768 71.568ZM69.4163 74.796C69.4163 75.348 69.5403 75.792 69.7883 76.128C70.0363 76.464 70.4043 76.632 70.8923 76.632C71.0523 76.632 71.2003 76.628 71.3363 76.62C71.4723 76.604 71.5843 76.588 71.6723 76.572L71.6723 73.32C71.5603 73.248 71.4123 73.188 71.2283 73.14C71.0523 73.092 70.8723 73.068 70.6883 73.068C69.8403 73.068 69.4163 73.644 69.4163 74.796ZM73.4603 77.796C73.3003 77.844 73.1163 77.892 72.9083 77.94C72.7003 77.98 72.4803 78.016 72.2483 78.048C72.0243 78.08 71.7923 78.104 71.5523 78.12C71.3203 78.144 71.0963 78.156 70.8803 78.156C70.3603 78.156 69.8963 78.08 69.4883 77.928C69.0803 77.776 68.7363 77.56 68.4563 77.28C68.1763 76.992 67.9603 76.648 67.8083 76.248C67.6643 75.84 67.5923 75.384 67.5923 74.88C67.5923 74.368 67.6563 73.908 67.7843 73.5C67.9123 73.084 68.0963 72.732 68.3363 72.444C68.5763 72.156 68.8683 71.936 69.2123 71.784C69.5643 71.632 69.9643 71.556 70.4123 71.556C70.6603 71.556 70.8803 71.58 71.0723 71.628C71.2723 71.676 71.4723 71.744 71.6723 71.832L71.6723 68.976L73.4603 68.688L73.4603 77.796ZM76.8985 74.796C76.8985 75.348 77.0225 75.792 77.2705 76.128C77.5185 76.464 77.8865 76.632 78.3745 76.632C78.5345 76.632 78.6825 76.628 78.8185 76.62C78.9545 76.604 79.0665 76.588 79.1545 76.572L79.1545 73.32C79.0425 73.248 78.8945 73.188 78.7105 73.14C78.5345 73.092 78.3545 73.068 78.1705 73.068C77.3225 73.068 76.8985 73.644 76.8985 74.796ZM80.9425 77.796C80.7825 77.844 80.5985 77.892 80.3905 77.94C80.1825 77.98 79.9625 78.016 79.7305 78.048C79.5065 78.08 79.2745 78.104 79.0345 78.12C78.8025 78.144 78.5785 78.156 78.3625 78.156C77.8425 78.156 77.3785 78.08 76.9705 77.928C76.5625 77.776 76.2185 77.56 75.9385 77.28C75.6585 76.992 75.4425 76.648 75.2905 76.248C75.1465 75.84 75.0745 75.384 75.0745 74.88C75.0745 74.368 75.1385 73.908 75.2665 73.5C75.3945 73.084 75.5785 72.732 75.8185 72.444C76.0585 72.156 76.3505 71.936 76.6945 71.784C77.0465 71.632 77.4465 71.556 77.8945 71.556C78.1425 71.556 78.3625 71.58 78.5545 71.628C78.7545 71.676 78.9545 71.744 79.1545 71.832L79.1545 68.976L80.9425 68.688L80.9425 77.796ZM88.3675 76.572C88.6315 76.572 88.8475 76.552 89.0155 76.512C89.1915 76.464 89.3315 76.404 89.4355 76.332C89.5395 76.252 89.6115 76.16 89.6515 76.056C89.6915 75.952 89.7115 75.836 89.7115 75.708C89.7115 75.436 89.5835 75.212 89.3275 75.036C89.0715 74.852 88.6315 74.656 88.0075 74.448C87.7355 74.352 87.4635 74.244 87.1915 74.124C86.9195 73.996 86.6755 73.84 86.4595 73.656C86.2435 73.464 86.0675 73.236 85.9315 72.972C85.7955 72.7 85.7275 72.372 85.7275 71.988C85.7275 71.604 85.7995 71.26 85.9435 70.956C86.0875 70.644 86.2915 70.38 86.5555 70.164C86.8195 69.948 87.1395 69.784 87.5155 69.672C87.8915 69.552 88.3155 69.492 88.7875 69.492C89.3475 69.492 89.8315 69.552 90.2395 69.672C90.6475 69.792 90.9835 69.924 91.2475 70.068L90.7075 71.544C90.4755 71.424 90.2155 71.32 89.9275 71.232C89.6475 71.136 89.3075 71.088 88.9075 71.088C88.4595 71.088 88.1355 71.152 87.9355 71.28C87.7435 71.4 87.6475 71.588 87.6475 71.844C87.6475 71.996 87.6835 72.124 87.7555 72.228C87.8275 72.332 87.9275 72.428 88.0555 72.516C88.1915 72.596 88.3435 72.672 88.5115 72.744C88.6875 72.808 88.8795 72.876 89.0875 72.948C89.5195 73.108 89.8955 73.268 90.2155 73.428C90.5355 73.58 90.7995 73.76 91.0075 73.968C91.2235 74.176 91.3835 74.42 91.4875 74.7C91.5915 74.98 91.6435 75.32 91.6435 75.72C91.6435 76.496 91.3715 77.1 90.8275 77.532C90.2835 77.956 89.4635 78.168 88.3675 78.168C87.9995 78.168 87.6675 78.144 87.3715 78.096C87.0755 78.056 86.8115 78.004 86.5795 77.94C86.3555 77.876 86.1595 77.808 85.9915 77.736C85.8315 77.664 85.6955 77.596 85.5835 77.532L86.1115 76.044C86.3595 76.18 86.6635 76.304 87.0235 76.416C87.3915 76.52 87.8395 76.572 88.3675 76.572ZM97.2479 74.892C97.2479 74.34 97.1239 73.9 96.8759 73.572C96.6279 73.236 96.2599 73.068 95.7719 73.068C95.6119 73.068 95.4639 73.076 95.3279 73.092C95.1919 73.1 95.0799 73.112 94.9919 73.128L94.9919 76.356C95.1039 76.428 95.2479 76.488 95.4239 76.536C95.6079 76.584 95.7919 76.608 95.9759 76.608C96.8239 76.608 97.2479 76.036 97.2479 74.892ZM99.0719 74.844C99.0719 75.332 99.0119 75.776 98.8919 76.176C98.7719 76.576 98.5959 76.92 98.3639 77.208C98.1319 77.496 97.8439 77.72 97.4999 77.88C97.1559 78.04 96.7599 78.12 96.3119 78.12C96.0639 78.12 95.8319 78.096 95.6159 78.048C95.3999 78 95.1919 77.932 94.9919 77.844L94.9919 80.22L93.2039 80.22L93.2039 71.904C93.3639 71.856 93.5479 71.812 93.7559 71.772C93.9639 71.724 94.1799 71.684 94.4039 71.652C94.6359 71.62 94.8679 71.596 95.0999 71.58C95.3399 71.556 95.5679 71.544 95.7839 71.544C96.3039 71.544 96.7679 71.624 97.1759 71.784C97.5839 71.936 97.9279 72.156 98.2079 72.444C98.4879 72.724 98.6999 73.068 98.8439 73.476C98.9959 73.884 99.0719 74.34 99.0719 74.844ZM106.59 74.832C106.59 75.328 106.518 75.784 106.374 76.2C106.23 76.608 106.022 76.96 105.75 77.256C105.478 77.544 105.15 77.768 104.766 77.928C104.39 78.088 103.966 78.168 103.494 78.168C103.03 78.168 102.606 78.088 102.222 77.928C101.846 77.768 101.522 77.544 101.25 77.256C100.978 76.96 100.766 76.608 100.614 76.2C100.462 75.784 100.386 75.328 100.386 74.832C100.386 74.336 100.462 73.884 100.614 73.476C100.774 73.068 100.99 72.72 101.262 72.432C101.542 72.144 101.87 71.92 102.246 71.76C102.63 71.6 103.046 71.52 103.494 71.52C103.95 71.52 104.366 71.6 104.742 71.76C105.126 71.92 105.454 72.144 105.726 72.432C105.998 72.72 106.21 73.068 106.362 73.476C106.514 73.884 106.59 74.336 106.59 74.832ZM104.766 74.832C104.766 74.28 104.654 73.848 104.43 73.536C104.214 73.216 103.902 73.056 103.494 73.056C103.086 73.056 102.77 73.216 102.546 73.536C102.322 73.848 102.21 74.28 102.21 74.832C102.21 75.384 102.322 75.824 102.546 76.152C102.77 76.472 103.086 76.632 103.494 76.632C103.902 76.632 104.214 76.472 104.43 76.152C104.654 75.824 104.766 75.384 104.766 74.832ZM108.155 70.116L109.943 69.828L109.943 71.688L112.091 71.688L112.091 73.176L109.943 73.176L109.943 75.396C109.943 75.772 110.007 76.072 110.135 76.296C110.271 76.52 110.539 76.632 110.939 76.632C111.131 76.632 111.327 76.616 111.527 76.584C111.735 76.544 111.923 76.492 112.091 76.428L112.343 77.82C112.127 77.908 111.887 77.984 111.623 78.048C111.359 78.112 111.035 78.144 110.651 78.144C110.163 78.144 109.759 78.08 109.439 77.952C109.119 77.816 108.863 77.632 108.671 77.4C108.479 77.16 108.343 76.872 108.263 76.536C108.191 76.2 108.155 75.828 108.155 75.42L108.155 70.116Z" fill="white"/>
<rect x="39.5" y="97.5" width="92" height="27" rx="8.5" stroke="#4587E1" stroke-width="3"/>
<path d="M71.2764 115.032C69.9243 115.032 68.8923 114.656 68.1803 113.904C67.4763 113.152 67.1243 112.084 67.1243 110.7C67.1243 110.012 67.2323 109.4 67.4483 108.864C67.6643 108.32 67.9603 107.864 68.3363 107.496C68.7123 107.12 69.1603 106.836 69.6803 106.644C70.2003 106.452 70.7643 106.356 71.3723 106.356C71.7243 106.356 72.0443 106.384 72.3323 106.44C72.6203 106.488 72.8723 106.548 73.0883 106.62C73.3043 106.684 73.4843 106.752 73.6283 106.824C73.7723 106.896 73.8763 106.952 73.9403 106.992L73.4003 108.504C73.1443 108.368 72.8443 108.252 72.5003 108.156C72.1643 108.06 71.7803 108.012 71.3483 108.012C71.0603 108.012 70.7763 108.06 70.4963 108.156C70.2243 108.252 69.9803 108.408 69.7643 108.624C69.5563 108.832 69.3883 109.104 69.2603 109.44C69.1323 109.776 69.0683 110.184 69.0683 110.664C69.0683 111.048 69.1083 111.408 69.1883 111.744C69.2763 112.072 69.4123 112.356 69.5963 112.596C69.7883 112.836 70.0363 113.028 70.3403 113.172C70.6443 113.308 71.0123 113.376 71.4443 113.376C71.7163 113.376 71.9603 113.36 72.1763 113.328C72.3923 113.296 72.5843 113.26 72.7524 113.22C72.9203 113.172 73.0683 113.12 73.1964 113.064C73.3243 113.008 73.4403 112.956 73.5443 112.908L74.0603 114.408C73.7964 114.568 73.4244 114.712 72.9444 114.84C72.4644 114.968 71.9084 115.032 71.2764 115.032ZM77.9148 113.616C78.0908 113.616 78.2588 113.612 78.4188 113.604C78.5788 113.596 78.7068 113.584 78.8028 113.568L78.8028 112.212C78.7308 112.196 78.6228 112.18 78.4788 112.164C78.3348 112.148 78.2028 112.14 78.0828 112.14C77.9148 112.14 77.7548 112.152 77.6028 112.176C77.4588 112.192 77.3308 112.228 77.2188 112.284C77.1068 112.34 77.0188 112.416 76.9548 112.512C76.8908 112.608 76.8588 112.728 76.8588 112.872C76.8588 113.152 76.9508 113.348 77.1348 113.46C77.3268 113.564 77.5868 113.616 77.9148 113.616ZM77.7708 108.384C78.2988 108.384 78.7388 108.444 79.0908 108.564C79.4428 108.684 79.7228 108.856 79.9308 109.08C80.1468 109.304 80.2988 109.576 80.3868 109.896C80.4748 110.216 80.5188 110.572 80.5188 110.964L80.5188 114.684C80.2628 114.74 79.9068 114.804 79.4508 114.876C78.9948 114.956 78.4428 114.996 77.7948 114.996C77.3868 114.996 77.0148 114.96 76.6788 114.888C76.3508 114.816 76.0668 114.7 75.8268 114.54C75.5868 114.372 75.4028 114.156 75.2748 113.892C75.1468 113.628 75.0828 113.304 75.0828 112.92C75.0828 112.552 75.1548 112.24 75.2988 111.984C75.4508 111.728 75.6508 111.524 75.8988 111.372C76.1468 111.22 76.4308 111.112 76.7508 111.048C77.0708 110.976 77.4028 110.94 77.7468 110.94C77.9788 110.94 78.1828 110.952 78.3588 110.976C78.5428 110.992 78.6908 111.016 78.8028 111.048L78.8028 110.88C78.8028 110.576 78.7108 110.332 78.5268 110.148C78.3428 109.964 78.0228 109.872 77.5668 109.872C77.2628 109.872 76.9628 109.896 76.6668 109.944C76.3708 109.984 76.1148 110.044 75.8988 110.124L75.6708 108.684C75.7748 108.652 75.9028 108.62 76.0548 108.588C76.2148 108.548 76.3868 108.516 76.5708 108.492C76.7548 108.46 76.9468 108.436 77.1468 108.42C77.3548 108.396 77.5628 108.384 77.7708 108.384ZM82.3756 108.768C82.6796 108.68 83.0716 108.6 83.5516 108.528C84.0316 108.448 84.5356 108.408 85.0636 108.408C85.5996 108.408 86.0436 108.48 86.3956 108.624C86.7556 108.76 87.0396 108.956 87.2476 109.212C87.4556 109.468 87.6036 109.772 87.6916 110.124C87.7796 110.476 87.8236 110.868 87.8236 111.3L87.8236 114.864L86.0356 114.864L86.0356 111.516C86.0356 110.94 85.9596 110.532 85.8076 110.292C85.6556 110.052 85.3716 109.932 84.9556 109.932C84.8276 109.932 84.6916 109.94 84.5476 109.956C84.4036 109.964 84.2756 109.976 84.1636 109.992L84.1636 114.864L82.3756 114.864L82.3756 108.768ZM89.382 111.708C89.382 111.252 89.454 110.824 89.598 110.424C89.75 110.016 89.966 109.664 90.246 109.368C90.526 109.064 90.866 108.824 91.266 108.648C91.666 108.472 92.122 108.384 92.634 108.384C92.97 108.384 93.278 108.416 93.558 108.48C93.838 108.536 94.11 108.62 94.374 108.732L94.002 110.16C93.834 110.096 93.65 110.04 93.45 109.992C93.25 109.944 93.026 109.92 92.778 109.92C92.25 109.92 91.854 110.084 91.59 110.412C91.334 110.74 91.206 111.172 91.206 111.708C91.206 112.276 91.326 112.716 91.566 113.028C91.814 113.34 92.242 113.496 92.85 113.496C93.066 113.496 93.298 113.476 93.546 113.436C93.794 113.396 94.022 113.332 94.23 113.244L94.482 114.708C94.274 114.796 94.014 114.872 93.702 114.936C93.39 115 93.046 115.032 92.67 115.032C92.094 115.032 91.598 114.948 91.182 114.78C90.766 114.604 90.422 114.368 90.15 114.072C89.886 113.776 89.69 113.428 89.562 113.028C89.442 112.62 89.382 112.18 89.382 111.708ZM95.3173 111.756C95.3173 111.196 95.4013 110.708 95.5693 110.292C95.7453 109.868 95.9733 109.516 96.2533 109.236C96.5333 108.956 96.8533 108.744 97.2133 108.6C97.5813 108.456 97.9573 108.384 98.3413 108.384C99.2373 108.384 99.9453 108.66 100.465 109.212C100.985 109.756 101.245 110.56 101.245 111.624C101.245 111.728 101.241 111.844 101.233 111.972C101.225 112.092 101.217 112.2 101.209 112.296L97.1533 112.296C97.1933 112.664 97.3653 112.956 97.6693 113.172C97.9733 113.388 98.3813 113.496 98.8933 113.496C99.2213 113.496 99.5413 113.468 99.8533 113.412C100.173 113.348 100.433 113.272 100.633 113.184L100.873 114.636C100.777 114.684 100.649 114.732 100.489 114.78C100.329 114.828 100.149 114.868 99.9493 114.9C99.7573 114.94 99.5493 114.972 99.3253 114.996C99.1013 115.02 98.8773 115.032 98.6533 115.032C98.0853 115.032 97.5893 114.948 97.1653 114.78C96.7493 114.612 96.4013 114.384 96.1213 114.096C95.8493 113.8 95.6453 113.452 95.5093 113.052C95.3813 112.652 95.3173 112.22 95.3173 111.756ZM99.5173 111.072C99.5093 110.92 99.4813 110.772 99.4333 110.628C99.3933 110.484 99.3253 110.356 99.2293 110.244C99.1413 110.132 99.0253 110.04 98.8813 109.968C98.7453 109.896 98.5733 109.86 98.3653 109.86C98.1653 109.86 97.9933 109.896 97.8493 109.968C97.7053 110.032 97.5853 110.12 97.4893 110.232C97.3933 110.344 97.3173 110.476 97.2613 110.628C97.2133 110.772 97.1773 110.92 97.1533 111.072L99.5173 111.072ZM105.385 114.984C104.865 114.976 104.441 114.92 104.113 114.816C103.793 114.712 103.537 114.568 103.345 114.384C103.161 114.192 103.033 113.964 102.961 113.7C102.897 113.428 102.865 113.124 102.865 112.788L102.865 105.84L104.653 105.552L104.653 112.428C104.653 112.588 104.665 112.732 104.689 112.86C104.713 112.988 104.757 113.096 104.821 113.184C104.893 113.272 104.993 113.344 105.121 113.4C105.249 113.456 105.421 113.492 105.637 113.508L105.385 114.984Z" fill="#4587E1"/>
<path d="M33.9869 18.846C33.9869 19.2007 33.9169 19.5413 33.7769 19.868C33.6369 20.1947 33.4549 20.512 33.2309 20.82C33.0069 21.1187 32.7549 21.408 32.4749 21.688C32.1949 21.968 31.9196 22.234 31.6489 22.486C31.5089 22.6167 31.3549 22.766 31.1869 22.934C31.0283 23.0927 30.8743 23.256 30.7249 23.424C30.5756 23.592 30.4403 23.7507 30.3189 23.9C30.2069 24.04 30.1369 24.1567 30.1089 24.25H34.2809V26H27.8129C27.7943 25.8973 27.7849 25.7667 27.7849 25.608C27.7849 25.4493 27.7849 25.3373 27.7849 25.272C27.7849 24.824 27.8549 24.4133 27.9949 24.04C28.1443 23.6667 28.3356 23.3213 28.5689 23.004C28.8023 22.6773 29.0636 22.374 29.3529 22.094C29.6516 21.814 29.9456 21.534 30.2349 21.254C30.4589 21.0393 30.6689 20.8387 30.8649 20.652C31.0609 20.456 31.2336 20.2693 31.3829 20.092C31.5323 19.9053 31.6489 19.7233 31.7329 19.546C31.8169 19.3593 31.8589 19.1727 31.8589 18.986C31.8589 18.5753 31.7423 18.286 31.5089 18.118C31.2756 17.95 30.9863 17.866 30.6409 17.866C30.3889 17.866 30.1509 17.908 29.9269 17.992C29.7123 18.0667 29.5116 18.16 29.3249 18.272C29.1476 18.3747 28.9936 18.482 28.8629 18.594C28.7323 18.6967 28.6343 18.7807 28.5689 18.846L27.5329 17.39C27.9436 17.0073 28.4196 16.6947 28.9609 16.452C29.5116 16.2 30.0996 16.074 30.7249 16.074C31.2943 16.074 31.7843 16.1393 32.1949 16.27C32.6056 16.4007 32.9416 16.5873 33.2029 16.83C33.4736 17.0633 33.6696 17.3527 33.7909 17.698C33.9216 18.034 33.9869 18.4167 33.9869 18.846ZM39.116 21.436C38.9106 21.436 38.6913 21.4547 38.458 21.492C38.2246 21.5293 38.0426 21.5807 37.912 21.646C37.912 21.6833 37.9073 21.7393 37.898 21.814C37.898 21.8887 37.898 21.954 37.898 22.01C37.898 22.346 37.9213 22.6633 37.968 22.962C38.0146 23.2607 38.094 23.522 38.206 23.746C38.318 23.97 38.4673 24.1473 38.654 24.278C38.8406 24.3993 39.074 24.46 39.354 24.46C39.5873 24.46 39.7833 24.4133 39.942 24.32C40.11 24.2173 40.2453 24.0913 40.348 23.942C40.46 23.7927 40.5393 23.6293 40.586 23.452C40.642 23.2653 40.67 23.088 40.67 22.92C40.67 22.444 40.5486 22.08 40.306 21.828C40.0726 21.5667 39.676 21.436 39.116 21.436ZM39.382 19.812C39.9886 19.812 40.502 19.896 40.922 20.064C41.3513 20.2227 41.7013 20.442 41.972 20.722C42.2426 21.002 42.4386 21.3287 42.56 21.702C42.6813 22.0753 42.742 22.472 42.742 22.892C42.742 23.2653 42.672 23.648 42.532 24.04C42.4013 24.432 42.196 24.7867 41.916 25.104C41.6453 25.4213 41.2953 25.6827 40.866 25.888C40.446 26.0933 39.9466 26.196 39.368 26.196C38.2013 26.196 37.3146 25.8273 36.708 25.09C36.1013 24.3527 35.798 23.3353 35.798 22.038C35.798 21.1047 35.9426 20.2787 36.232 19.56C36.5213 18.8413 36.932 18.2393 37.464 17.754C38.0053 17.2593 38.654 16.886 39.41 16.634C40.1753 16.3727 41.034 16.2373 41.986 16.228C42.0046 16.5173 42.0233 16.802 42.042 17.082C42.0606 17.3527 42.0793 17.6373 42.098 17.936C41.622 17.9453 41.174 17.992 40.754 18.076C40.3433 18.1507 39.9653 18.272 39.62 18.44C39.284 18.608 38.99 18.8273 38.738 19.098C38.486 19.3593 38.29 19.6813 38.15 20.064C38.3553 19.9707 38.5653 19.9053 38.78 19.868C38.9946 19.8307 39.1953 19.812 39.382 19.812ZM43.867 20.876H47.927V22.766H43.867V20.876ZM49.5348 18.314C49.8055 18.202 50.0855 18.076 50.3748 17.936C50.6735 17.7867 50.9628 17.628 51.2428 17.46C51.5228 17.2827 51.7888 17.1007 52.0408 16.914C52.3021 16.718 52.5355 16.5127 52.7408 16.298H54.1968V26H52.1108V19.014C51.8308 19.2007 51.5181 19.3733 51.1728 19.532C50.8275 19.6813 50.4915 19.812 50.1648 19.924L49.5348 18.314ZM61.2578 18.846C60.8938 19.322 60.5065 19.84 60.0958 20.4C59.6852 20.96 59.3398 21.534 59.0598 22.122H61.2578V18.846ZM63.3018 16.298V22.122H64.3378V23.83H63.3018V26H61.2578V23.83H57.0718V22.304C57.2772 21.8933 57.5338 21.4313 57.8418 20.918C58.1498 20.3953 58.4905 19.8633 58.8638 19.322C59.2465 18.7713 59.6478 18.2347 60.0678 17.712C60.4878 17.1893 60.9078 16.718 61.3278 16.298H63.3018ZM72.4489 23.298C72.4489 23.718 72.3742 24.1053 72.2249 24.46C72.0849 24.8053 71.8702 25.1087 71.5809 25.37C71.2915 25.6313 70.9275 25.8367 70.4889 25.986C70.0595 26.126 69.5602 26.196 68.9909 26.196C68.3375 26.196 67.7915 26.1073 67.3529 25.93C66.9235 25.7433 66.5735 25.5147 66.3029 25.244C66.0415 24.9733 65.8549 24.6793 65.7429 24.362C65.6309 24.0353 65.5749 23.7367 65.5749 23.466C65.5749 23.186 65.6122 22.9293 65.6869 22.696C65.7615 22.4627 65.8642 22.2527 65.9949 22.066C66.1255 21.87 66.2702 21.6927 66.4289 21.534C66.5969 21.3753 66.7742 21.226 66.9609 21.086C66.5595 20.7593 66.2609 20.4373 66.0649 20.12C65.8782 19.8027 65.7849 19.3967 65.7849 18.902C65.7849 18.5287 65.8595 18.1693 66.0089 17.824C66.1675 17.4787 66.3869 17.18 66.6669 16.928C66.9469 16.6667 67.2829 16.4613 67.6749 16.312C68.0762 16.1533 68.5195 16.074 69.0049 16.074C69.5742 16.074 70.0595 16.158 70.4609 16.326C70.8715 16.4847 71.2075 16.69 71.4689 16.942C71.7302 17.194 71.9169 17.4787 72.0289 17.796C72.1502 18.104 72.2109 18.412 72.2109 18.72C72.2109 19.168 72.0895 19.588 71.8469 19.98C71.6135 20.3627 71.3195 20.666 70.9649 20.89C71.4969 21.2353 71.8749 21.5993 72.0989 21.982C72.3322 22.3553 72.4489 22.794 72.4489 23.298ZM67.6049 23.382C67.6049 23.494 67.6282 23.62 67.6749 23.76C67.7309 23.8907 67.8149 24.012 67.9269 24.124C68.0389 24.236 68.1835 24.3293 68.3609 24.404C68.5382 24.4787 68.7529 24.516 69.0049 24.516C69.4902 24.516 69.8449 24.3993 70.0689 24.166C70.2929 23.9327 70.4049 23.6713 70.4049 23.382C70.4049 23.1673 70.3535 22.976 70.2509 22.808C70.1575 22.64 70.0269 22.4953 69.8589 22.374C69.6909 22.2433 69.4902 22.1313 69.2569 22.038C69.0329 21.9353 68.7902 21.842 68.5289 21.758C68.2675 21.954 68.0482 22.1827 67.8709 22.444C67.6935 22.7053 67.6049 23.018 67.6049 23.382ZM70.1949 18.776C70.1949 18.6733 70.1715 18.566 70.1249 18.454C70.0875 18.3327 70.0175 18.2207 69.9149 18.118C69.8215 18.0153 69.7002 17.9313 69.5509 17.866C69.4015 17.7913 69.2195 17.754 69.0049 17.754C68.7995 17.754 68.6222 17.7867 68.4729 17.852C68.3235 17.9173 68.1975 18.006 68.0949 18.118C68.0015 18.2207 67.9315 18.3327 67.8849 18.454C67.8382 18.5753 67.8149 18.692 67.8149 18.804C67.8149 19.1027 67.9222 19.3827 68.1369 19.644C68.3609 19.9053 68.7389 20.1293 69.2709 20.316C69.5695 20.1293 69.7982 19.9147 69.9569 19.672C70.1155 19.4293 70.1949 19.1307 70.1949 18.776ZM81.2632 26.126C80.7312 26.126 80.1992 26.1073 79.6672 26.07C79.1445 26.042 78.5985 25.9673 78.0292 25.846V16.438C78.4772 16.354 78.9672 16.2933 79.4992 16.256C80.0312 16.2093 80.5258 16.186 80.9832 16.186C81.5992 16.186 82.1638 16.2327 82.6772 16.326C83.1998 16.41 83.6478 16.5593 84.0212 16.774C84.3945 16.9887 84.6838 17.2733 84.8892 17.628C85.1038 17.9733 85.2112 18.4027 85.2112 18.916C85.2112 19.6907 84.8378 20.302 84.0912 20.75C84.7072 20.9833 85.1272 21.3007 85.3512 21.702C85.5752 22.1033 85.6872 22.556 85.6872 23.06C85.6872 24.0773 85.3138 24.8427 84.5672 25.356C83.8298 25.8693 82.7285 26.126 81.2632 26.126ZM80.1572 21.772V24.278C80.3158 24.2967 80.4885 24.3107 80.6752 24.32C80.8618 24.3293 81.0672 24.334 81.2912 24.334C81.9445 24.334 82.4718 24.2407 82.8732 24.054C83.2745 23.8673 83.4752 23.522 83.4752 23.018C83.4752 22.57 83.3072 22.2527 82.9712 22.066C82.6352 21.87 82.1545 21.772 81.5292 21.772H80.1572ZM80.1572 20.106H81.2212C81.8932 20.106 82.3738 20.022 82.6632 19.854C82.9525 19.6767 83.0972 19.3967 83.0972 19.014C83.0972 18.622 82.9478 18.3467 82.6492 18.188C82.3505 18.0293 81.9118 17.95 81.3332 17.95C81.1465 17.95 80.9458 17.9547 80.7312 17.964C80.5165 17.964 80.3252 17.9733 80.1572 17.992V20.106ZM90.3894 24.544C90.5948 24.544 90.7908 24.5393 90.9774 24.53C91.1641 24.5207 91.3134 24.5067 91.4254 24.488V22.906C91.3414 22.8873 91.2154 22.8687 91.0474 22.85C90.8794 22.8313 90.7254 22.822 90.5854 22.822C90.3894 22.822 90.2028 22.836 90.0254 22.864C89.8574 22.8827 89.7081 22.9247 89.5774 22.99C89.4468 23.0553 89.3441 23.144 89.2694 23.256C89.1948 23.368 89.1574 23.508 89.1574 23.676C89.1574 24.0027 89.2648 24.2313 89.4794 24.362C89.7034 24.4833 90.0068 24.544 90.3894 24.544ZM90.2214 18.44C90.8374 18.44 91.3508 18.51 91.7614 18.65C92.1721 18.79 92.4988 18.9907 92.7414 19.252C92.9934 19.5133 93.1708 19.8307 93.2734 20.204C93.3761 20.5773 93.4274 20.9927 93.4274 21.45V25.79C93.1288 25.8553 92.7134 25.93 92.1814 26.014C91.6494 26.1073 91.0054 26.154 90.2494 26.154C89.7734 26.154 89.3394 26.112 88.9474 26.028C88.5648 25.944 88.2334 25.8087 87.9534 25.622C87.6734 25.426 87.4588 25.174 87.3094 24.866C87.1601 24.558 87.0854 24.18 87.0854 23.732C87.0854 23.3027 87.1694 22.9387 87.3374 22.64C87.5148 22.3413 87.7481 22.1033 88.0374 21.926C88.3268 21.7487 88.6581 21.6227 89.0314 21.548C89.4048 21.464 89.7921 21.422 90.1934 21.422C90.4641 21.422 90.7021 21.436 90.9074 21.464C91.1221 21.4827 91.2948 21.5107 91.4254 21.548V21.352C91.4254 20.9973 91.3181 20.7127 91.1034 20.498C90.8888 20.2833 90.5154 20.176 89.9834 20.176C89.6288 20.176 89.2788 20.204 88.9334 20.26C88.5881 20.3067 88.2894 20.3767 88.0374 20.47L87.7714 18.79C87.8928 18.7527 88.0421 18.7153 88.2194 18.678C88.4061 18.6313 88.6068 18.594 88.8214 18.566C89.0361 18.5287 89.2601 18.5007 89.4934 18.482C89.7361 18.454 89.9788 18.44 90.2214 18.44ZM98.5337 26.14C97.927 26.1307 97.4324 26.0653 97.0497 25.944C96.6764 25.8227 96.3777 25.6547 96.1537 25.44C95.939 25.216 95.7897 24.95 95.7057 24.642C95.631 24.3247 95.5937 23.97 95.5937 23.578V15.472L97.6797 15.136V23.158C97.6797 23.3447 97.6937 23.5127 97.7217 23.662C97.7497 23.8113 97.801 23.9373 97.8757 24.04C97.9597 24.1427 98.0764 24.2267 98.2257 24.292C98.375 24.3573 98.5757 24.3993 98.8277 24.418L98.5337 26.14ZM104.349 22.094C104.349 21.422 104.261 20.946 104.083 20.666C103.915 20.386 103.621 20.246 103.201 20.246C103.071 20.246 102.935 20.2553 102.795 20.274C102.655 20.2833 102.52 20.2973 102.389 20.316V26H100.303V18.888C100.481 18.8413 100.686 18.7947 100.919 18.748C101.162 18.692 101.414 18.6453 101.675 18.608C101.946 18.5613 102.221 18.5287 102.501 18.51C102.781 18.482 103.057 18.468 103.327 18.468C103.859 18.468 104.289 18.538 104.615 18.678C104.951 18.8087 105.227 18.9673 105.441 19.154C105.74 18.9393 106.081 18.7713 106.463 18.65C106.855 18.5287 107.215 18.468 107.541 18.468C108.129 18.468 108.61 18.552 108.983 18.72C109.366 18.8787 109.669 19.1073 109.893 19.406C110.117 19.7047 110.271 20.0593 110.355 20.47C110.439 20.8807 110.481 21.338 110.481 21.842V26H108.395V22.094C108.395 21.422 108.307 20.946 108.129 20.666C107.961 20.386 107.667 20.246 107.247 20.246C107.135 20.246 106.977 20.274 106.771 20.33C106.575 20.386 106.412 20.456 106.281 20.54C106.347 20.7547 106.389 20.9833 106.407 21.226C106.426 21.4593 106.435 21.7113 106.435 21.982V26H104.349V22.094ZM119.544 22.304C119.544 22.8827 119.46 23.4147 119.292 23.9C119.124 24.376 118.881 24.7867 118.564 25.132C118.246 25.468 117.864 25.7293 117.416 25.916C116.977 26.1027 116.482 26.196 115.932 26.196C115.39 26.196 114.896 26.1027 114.448 25.916C114.009 25.7293 113.631 25.468 113.314 25.132C112.996 24.7867 112.749 24.376 112.572 23.9C112.394 23.4147 112.306 22.8827 112.306 22.304C112.306 21.7253 112.394 21.198 112.572 20.722C112.758 20.246 113.01 19.84 113.328 19.504C113.654 19.168 114.037 18.9067 114.476 18.72C114.924 18.5333 115.409 18.44 115.932 18.44C116.464 18.44 116.949 18.5333 117.388 18.72C117.836 18.9067 118.218 19.168 118.536 19.504C118.853 19.84 119.1 20.246 119.278 20.722C119.455 21.198 119.544 21.7253 119.544 22.304ZM117.416 22.304C117.416 21.66 117.285 21.156 117.024 20.792C116.772 20.4187 116.408 20.232 115.932 20.232C115.456 20.232 115.087 20.4187 114.826 20.792C114.564 21.156 114.434 21.66 114.434 22.304C114.434 22.948 114.564 23.4613 114.826 23.844C115.087 24.2173 115.456 24.404 115.932 24.404C116.408 24.404 116.772 24.2173 117.024 23.844C117.285 23.4613 117.416 22.948 117.416 22.304ZM125.878 20.484C125.691 20.4373 125.472 20.3907 125.22 20.344C124.968 20.288 124.697 20.26 124.408 20.26C124.277 20.26 124.118 20.274 123.932 20.302C123.754 20.3207 123.619 20.344 123.526 20.372V26H121.44V19.028C121.813 18.8973 122.252 18.776 122.756 18.664C123.269 18.5427 123.838 18.482 124.464 18.482C124.576 18.482 124.711 18.4913 124.87 18.51C125.028 18.5193 125.187 18.538 125.346 18.566C125.504 18.5847 125.663 18.6127 125.822 18.65C125.98 18.678 126.116 18.7153 126.228 18.762L125.878 20.484ZM130.303 24.544C130.508 24.544 130.704 24.5393 130.891 24.53C131.078 24.5207 131.227 24.5067 131.339 24.488V22.906C131.255 22.8873 131.129 22.8687 130.961 22.85C130.793 22.8313 130.639 22.822 130.499 22.822C130.303 22.822 130.116 22.836 129.939 22.864C129.771 22.8827 129.622 22.9247 129.491 22.99C129.36 23.0553 129.258 23.144 129.183 23.256C129.108 23.368 129.071 23.508 129.071 23.676C129.071 24.0027 129.178 24.2313 129.393 24.362C129.617 24.4833 129.92 24.544 130.303 24.544ZM130.135 18.44C130.751 18.44 131.264 18.51 131.675 18.65C132.086 18.79 132.412 18.9907 132.655 19.252C132.907 19.5133 133.084 19.8307 133.187 20.204C133.29 20.5773 133.341 20.9927 133.341 21.45V25.79C133.042 25.8553 132.627 25.93 132.095 26.014C131.563 26.1073 130.919 26.154 130.163 26.154C129.687 26.154 129.253 26.112 128.861 26.028C128.478 25.944 128.147 25.8087 127.867 25.622C127.587 25.426 127.372 25.174 127.223 24.866C127.074 24.558 126.999 24.18 126.999 23.732C126.999 23.3027 127.083 22.9387 127.251 22.64C127.428 22.3413 127.662 22.1033 127.951 21.926C128.24 21.7487 128.572 21.6227 128.945 21.548C129.318 21.464 129.706 21.422 130.107 21.422C130.378 21.422 130.616 21.436 130.821 21.464C131.036 21.4827 131.208 21.5107 131.339 21.548V21.352C131.339 20.9973 131.232 20.7127 131.017 20.498C130.802 20.2833 130.429 20.176 129.897 20.176C129.542 20.176 129.192 20.204 128.847 20.26C128.502 20.3067 128.203 20.3767 127.951 20.47L127.685 18.79C127.806 18.7527 127.956 18.7153 128.133 18.678C128.32 18.6313 128.52 18.594 128.735 18.566C128.95 18.5287 129.174 18.5007 129.407 18.482C129.65 18.454 129.892 18.44 130.135 18.44ZM138.447 26.14C137.841 26.1307 137.346 26.0653 136.963 25.944C136.59 25.8227 136.291 25.6547 136.067 25.44C135.853 25.216 135.703 24.95 135.619 24.642C135.545 24.3247 135.507 23.97 135.507 23.578V15.472L137.593 15.136V23.158C137.593 23.3447 137.607 23.5127 137.635 23.662C137.663 23.8113 137.715 23.9373 137.789 24.04C137.873 24.1427 137.99 24.2267 138.139 24.292C138.289 24.3573 138.489 24.3993 138.741 24.418L138.447 26.14Z" fill="black"/>
<path d="M20.7898 38.12C20.9418 37.768 21.1498 37.36 21.4138 36.896C21.6778 36.424 21.9738 35.94 22.3018 35.444C22.6378 34.948 22.9938 34.46 23.3698 33.98C23.7538 33.5 24.1378 33.068 24.5218 32.684H25.5898V37.964H26.5738V38.876H25.5898V41H24.5098V38.876H20.7898V38.12ZM24.5098 34.004C24.2698 34.26 24.0258 34.548 23.7778 34.868C23.5378 35.18 23.3018 35.508 23.0698 35.852C22.8378 36.196 22.6178 36.548 22.4098 36.908C22.2098 37.268 22.0298 37.62 21.8698 37.964H24.5098V34.004ZM30.0353 40.184C30.7473 40.184 31.2553 40.044 31.5593 39.764C31.8713 39.484 32.0273 39.108 32.0273 38.636C32.0273 38.332 31.9633 38.076 31.8353 37.868C31.7073 37.66 31.5393 37.496 31.3313 37.376C31.1233 37.248 30.8793 37.16 30.5993 37.112C30.3273 37.056 30.0473 37.028 29.7593 37.028H29.4713V36.116H29.8673C30.0673 36.116 30.2713 36.096 30.4793 36.056C30.6953 36.016 30.8913 35.944 31.0673 35.84C31.2433 35.736 31.3873 35.596 31.4993 35.42C31.6113 35.236 31.6673 35.008 31.6673 34.736C31.6673 34.512 31.6273 34.32 31.5473 34.16C31.4673 34 31.3593 33.868 31.2233 33.764C31.0953 33.66 30.9433 33.588 30.7673 33.548C30.5993 33.5 30.4193 33.476 30.2273 33.476C29.8433 33.476 29.5153 33.532 29.2433 33.644C28.9793 33.756 28.7553 33.872 28.5713 33.992L28.1393 33.14C28.2353 33.076 28.3553 33.008 28.4993 32.936C28.6513 32.856 28.8193 32.784 29.0033 32.72C29.1873 32.656 29.3833 32.604 29.5913 32.564C29.8073 32.516 30.0313 32.492 30.2633 32.492C30.7033 32.492 31.0833 32.548 31.4033 32.66C31.7233 32.764 31.9873 32.916 32.1953 33.116C32.4033 33.308 32.5593 33.54 32.6633 33.812C32.7673 34.076 32.8193 34.364 32.8193 34.676C32.8193 35.108 32.6953 35.48 32.4473 35.792C32.1993 36.096 31.8993 36.328 31.5473 36.488C31.7633 36.552 31.9713 36.644 32.1713 36.764C32.3713 36.884 32.5433 37.036 32.6873 37.22C32.8393 37.404 32.9593 37.616 33.0473 37.856C33.1433 38.096 33.1913 38.364 33.1913 38.66C33.1913 39.02 33.1273 39.356 32.9993 39.668C32.8793 39.972 32.6873 40.236 32.4233 40.46C32.1673 40.684 31.8433 40.86 31.4513 40.988C31.0593 41.116 30.5953 41.18 30.0593 41.18C29.8513 41.18 29.6353 41.164 29.4113 41.132C29.1953 41.1 28.9913 41.06 28.7993 41.012C28.6073 40.964 28.4393 40.916 28.2953 40.868C28.1513 40.82 28.0473 40.78 27.9833 40.748L28.1993 39.776C28.3353 39.84 28.5593 39.924 28.8713 40.028C29.1913 40.132 29.5793 40.184 30.0353 40.184ZM36.6167 40.352C36.6167 40.568 36.5447 40.756 36.4007 40.916C36.2567 41.076 36.0607 41.156 35.8127 41.156C35.5647 41.156 35.3687 41.076 35.2247 40.916C35.0807 40.756 35.0087 40.568 35.0087 40.352C35.0087 40.136 35.0807 39.948 35.2247 39.788C35.3687 39.628 35.5647 39.548 35.8127 39.548C36.0607 39.548 36.2567 39.628 36.4007 39.788C36.5447 39.948 36.6167 40.136 36.6167 40.352ZM38.2858 37.664C38.2858 36.856 38.3978 36.144 38.6218 35.528C38.8458 34.904 39.1618 34.38 39.5698 33.956C39.9858 33.532 40.4858 33.212 41.0698 32.996C41.6618 32.772 42.3258 32.656 43.0618 32.648L43.1458 33.584C42.6738 33.592 42.2418 33.644 41.8498 33.74C41.4658 33.836 41.1218 33.988 40.8178 34.196C40.5138 34.404 40.2578 34.676 40.0498 35.012C39.8418 35.34 39.6858 35.748 39.5818 36.236C39.7898 36.14 40.0218 36.06 40.2778 35.996C40.5418 35.932 40.8138 35.9 41.0938 35.9C41.5658 35.9 41.9658 35.972 42.2938 36.116C42.6218 36.26 42.8898 36.452 43.0978 36.692C43.3058 36.924 43.4538 37.196 43.5418 37.508C43.6378 37.812 43.6858 38.132 43.6858 38.468C43.6858 38.772 43.6338 39.084 43.5298 39.404C43.4258 39.724 43.2658 40.016 43.0498 40.28C42.8418 40.544 42.5738 40.76 42.2458 40.928C41.9178 41.096 41.5298 41.18 41.0818 41.18C40.1698 41.18 39.4738 40.868 38.9938 40.244C38.5218 39.62 38.2858 38.76 38.2858 37.664ZM40.9738 36.812C40.6938 36.812 40.4338 36.84 40.1938 36.896C39.9538 36.944 39.7138 37.02 39.4738 37.124C39.4658 37.212 39.4578 37.304 39.4498 37.4C39.4498 37.488 39.4498 37.576 39.4498 37.664C39.4498 38.016 39.4738 38.348 39.5218 38.66C39.5698 38.972 39.6538 39.248 39.7738 39.488C39.9018 39.72 40.0698 39.908 40.2778 40.052C40.4858 40.188 40.7498 40.256 41.0698 40.256C41.3338 40.256 41.5578 40.2 41.7418 40.088C41.9258 39.976 42.0778 39.832 42.1978 39.656C42.3178 39.48 42.4018 39.292 42.4498 39.092C42.5058 38.884 42.5338 38.684 42.5338 38.492C42.5338 37.948 42.4018 37.532 42.1378 37.244C41.8818 36.956 41.4938 36.812 40.9738 36.812ZM50.6513 38.84C50.6513 39.176 50.5913 39.488 50.4713 39.776C50.3593 40.056 50.1873 40.304 49.9553 40.52C49.7313 40.728 49.4473 40.888 49.1033 41C48.7593 41.12 48.3633 41.18 47.9153 41.18C47.3953 41.18 46.9593 41.108 46.6073 40.964C46.2633 40.812 45.9873 40.624 45.7793 40.4C45.5713 40.176 45.4233 39.932 45.3353 39.668C45.2473 39.396 45.2033 39.14 45.2033 38.9C45.2033 38.668 45.2393 38.448 45.3113 38.24C45.3913 38.024 45.4913 37.824 45.6113 37.64C45.7393 37.456 45.8833 37.292 46.0433 37.148C46.2113 36.996 46.3873 36.864 46.5713 36.752C45.7873 36.304 45.3953 35.644 45.3953 34.772C45.3953 34.468 45.4553 34.18 45.5753 33.908C45.6953 33.628 45.8633 33.384 46.0793 33.176C46.3033 32.968 46.5713 32.804 46.8833 32.684C47.1953 32.556 47.5433 32.492 47.9273 32.492C48.3753 32.492 48.7593 32.56 49.0793 32.696C49.3993 32.832 49.6593 33.008 49.8593 33.224C50.0673 33.432 50.2153 33.664 50.3033 33.92C50.3993 34.176 50.4473 34.424 50.4473 34.664C50.4473 34.896 50.4113 35.116 50.3393 35.324C50.2753 35.524 50.1833 35.712 50.0633 35.888C49.9513 36.064 49.8193 36.22 49.6673 36.356C49.5233 36.492 49.3713 36.612 49.2113 36.716C50.1553 37.164 50.6353 37.872 50.6513 38.84ZM46.3313 38.912C46.3313 39.056 46.3553 39.208 46.4033 39.368C46.4593 39.52 46.5513 39.664 46.6793 39.8C46.8073 39.928 46.9713 40.036 47.1713 40.124C47.3713 40.212 47.6233 40.256 47.9273 40.256C48.1993 40.256 48.4353 40.216 48.6353 40.136C48.8433 40.056 49.0113 39.956 49.1393 39.836C49.2673 39.708 49.3633 39.564 49.4273 39.404C49.4913 39.244 49.5233 39.08 49.5233 38.912C49.5233 38.656 49.4753 38.432 49.3793 38.24C49.2833 38.048 49.1433 37.88 48.9593 37.736C48.7833 37.592 48.5673 37.472 48.3113 37.376C48.0633 37.272 47.7793 37.184 47.4593 37.112C47.0993 37.312 46.8193 37.56 46.6193 37.856C46.4273 38.152 46.3313 38.504 46.3313 38.912ZM49.3313 34.652C49.3313 34.532 49.3033 34.4 49.2473 34.256C49.1993 34.112 49.1193 33.98 49.0073 33.86C48.8953 33.732 48.7513 33.628 48.5753 33.548C48.3993 33.46 48.1833 33.416 47.9273 33.416C47.6713 33.416 47.4513 33.456 47.2673 33.536C47.0913 33.616 46.9473 33.72 46.8353 33.848C46.7233 33.968 46.6393 34.104 46.5833 34.256C46.5353 34.4 46.5113 34.544 46.5113 34.688C46.5113 34.864 46.5433 35.04 46.6073 35.216C46.6713 35.392 46.7713 35.556 46.9073 35.708C47.0433 35.86 47.2193 35.996 47.4353 36.116C47.6593 36.236 47.9233 36.332 48.2273 36.404C48.5633 36.204 48.8313 35.972 49.0313 35.708C49.2313 35.436 49.3313 35.084 49.3313 34.652ZM52.0367 38.12C52.1887 37.768 52.3967 37.36 52.6607 36.896C52.9247 36.424 53.2207 35.94 53.5487 35.444C53.8847 34.948 54.2407 34.46 54.6167 33.98C55.0007 33.5 55.3847 33.068 55.7687 32.684H56.8367V37.964H57.8207V38.876H56.8367V41H55.7567V38.876H52.0367V38.12ZM55.7567 34.004C55.5167 34.26 55.2727 34.548 55.0247 34.868C54.7847 35.18 54.5487 35.508 54.3167 35.852C54.0847 36.196 53.8647 36.548 53.6567 36.908C53.4567 37.268 53.2767 37.62 53.1167 37.964H55.7567V34.004ZM59.3262 37.664C59.3262 36.856 59.4382 36.144 59.6622 35.528C59.8862 34.904 60.2022 34.38 60.6102 33.956C61.0262 33.532 61.5262 33.212 62.1102 32.996C62.7022 32.772 63.3662 32.656 64.1022 32.648L64.1862 33.584C63.7142 33.592 63.2822 33.644 62.8902 33.74C62.5062 33.836 62.1622 33.988 61.8582 34.196C61.5542 34.404 61.2982 34.676 61.0902 35.012C60.8822 35.34 60.7262 35.748 60.6222 36.236C60.8302 36.14 61.0622 36.06 61.3182 35.996C61.5822 35.932 61.8542 35.9 62.1342 35.9C62.6062 35.9 63.0062 35.972 63.3342 36.116C63.6622 36.26 63.9302 36.452 64.1382 36.692C64.3462 36.924 64.4942 37.196 64.5822 37.508C64.6782 37.812 64.7262 38.132 64.7262 38.468C64.7262 38.772 64.6742 39.084 64.5702 39.404C64.4662 39.724 64.3062 40.016 64.0902 40.28C63.8822 40.544 63.6142 40.76 63.2862 40.928C62.9582 41.096 62.5702 41.18 62.1222 41.18C61.2102 41.18 60.5142 40.868 60.0342 40.244C59.5622 39.62 59.3262 38.76 59.3262 37.664ZM62.0142 36.812C61.7342 36.812 61.4742 36.84 61.2342 36.896C60.9942 36.944 60.7542 37.02 60.5142 37.124C60.5062 37.212 60.4982 37.304 60.4902 37.4C60.4902 37.488 60.4902 37.576 60.4902 37.664C60.4902 38.016 60.5142 38.348 60.5622 38.66C60.6102 38.972 60.6942 39.248 60.8142 39.488C60.9422 39.72 61.1102 39.908 61.3182 40.052C61.5262 40.188 61.7902 40.256 62.1102 40.256C62.3742 40.256 62.5982 40.2 62.7822 40.088C62.9662 39.976 63.1182 39.832 63.2382 39.656C63.3582 39.48 63.4422 39.292 63.4902 39.092C63.5462 38.884 63.5742 38.684 63.5742 38.492C63.5742 37.948 63.4422 37.532 63.1782 37.244C62.9222 36.956 62.5342 36.812 62.0142 36.812ZM71.6916 38.84C71.6916 39.176 71.6316 39.488 71.5116 39.776C71.3996 40.056 71.2276 40.304 70.9956 40.52C70.7716 40.728 70.4876 40.888 70.1436 41C69.7996 41.12 69.4036 41.18 68.9556 41.18C68.4356 41.18 67.9996 41.108 67.6476 40.964C67.3036 40.812 67.0276 40.624 66.8196 40.4C66.6116 40.176 66.4636 39.932 66.3756 39.668C66.2876 39.396 66.2436 39.14 66.2436 38.9C66.2436 38.668 66.2796 38.448 66.3516 38.24C66.4316 38.024 66.5316 37.824 66.6516 37.64C66.7796 37.456 66.9236 37.292 67.0836 37.148C67.2516 36.996 67.4276 36.864 67.6116 36.752C66.8276 36.304 66.4356 35.644 66.4356 34.772C66.4356 34.468 66.4956 34.18 66.6156 33.908C66.7356 33.628 66.9036 33.384 67.1196 33.176C67.3436 32.968 67.6116 32.804 67.9236 32.684C68.2356 32.556 68.5836 32.492 68.9676 32.492C69.4156 32.492 69.7996 32.56 70.1196 32.696C70.4396 32.832 70.6996 33.008 70.8996 33.224C71.1076 33.432 71.2556 33.664 71.3436 33.92C71.4396 34.176 71.4876 34.424 71.4876 34.664C71.4876 34.896 71.4516 35.116 71.3796 35.324C71.3156 35.524 71.2236 35.712 71.1036 35.888C70.9916 36.064 70.8596 36.22 70.7076 36.356C70.5636 36.492 70.4116 36.612 70.2516 36.716C71.1956 37.164 71.6756 37.872 71.6916 38.84ZM67.3716 38.912C67.3716 39.056 67.3956 39.208 67.4436 39.368C67.4996 39.52 67.5916 39.664 67.7196 39.8C67.8476 39.928 68.0116 40.036 68.2116 40.124C68.4116 40.212 68.6636 40.256 68.9676 40.256C69.2396 40.256 69.4756 40.216 69.6756 40.136C69.8836 40.056 70.0516 39.956 70.1796 39.836C70.3076 39.708 70.4036 39.564 70.4676 39.404C70.5316 39.244 70.5636 39.08 70.5636 38.912C70.5636 38.656 70.5156 38.432 70.4196 38.24C70.3236 38.048 70.1836 37.88 69.9996 37.736C69.8236 37.592 69.6076 37.472 69.3516 37.376C69.1036 37.272 68.8196 37.184 68.4996 37.112C68.1396 37.312 67.8596 37.56 67.6596 37.856C67.4676 38.152 67.3716 38.504 67.3716 38.912ZM70.3716 34.652C70.3716 34.532 70.3436 34.4 70.2876 34.256C70.2396 34.112 70.1596 33.98 70.0476 33.86C69.9356 33.732 69.7916 33.628 69.6156 33.548C69.4396 33.46 69.2236 33.416 68.9676 33.416C68.7116 33.416 68.4916 33.456 68.3076 33.536C68.1316 33.616 67.9876 33.72 67.8756 33.848C67.7636 33.968 67.6796 34.104 67.6236 34.256C67.5756 34.4 67.5516 34.544 67.5516 34.688C67.5516 34.864 67.5836 35.04 67.6476 35.216C67.7116 35.392 67.8116 35.556 67.9476 35.708C68.0836 35.86 68.2596 35.996 68.4756 36.116C68.6996 36.236 68.9636 36.332 69.2676 36.404C69.6036 36.204 69.8716 35.972 70.0716 35.708C70.2716 35.436 70.3716 35.084 70.3716 34.652ZM78.609 36.008C78.609 37.656 78.197 38.904 77.373 39.752C76.557 40.592 75.341 41.016 73.725 41.024L73.689 40.088C74.193 40.088 74.645 40.04 75.045 39.944C75.453 39.848 75.809 39.696 76.113 39.488C76.417 39.272 76.669 38.996 76.869 38.66C77.077 38.324 77.229 37.912 77.325 37.424C77.117 37.52 76.881 37.6 76.617 37.664C76.353 37.72 76.081 37.748 75.801 37.748C75.329 37.748 74.929 37.68 74.601 37.544C74.273 37.4 74.005 37.212 73.797 36.98C73.589 36.74 73.437 36.468 73.341 36.164C73.253 35.852 73.209 35.528 73.209 35.192C73.209 34.896 73.261 34.588 73.365 34.268C73.469 33.948 73.625 33.656 73.833 33.392C74.049 33.128 74.321 32.912 74.649 32.744C74.977 32.576 75.365 32.492 75.813 32.492C76.269 32.492 76.669 32.572 77.013 32.732C77.365 32.892 77.657 33.124 77.889 33.428C78.129 33.732 78.309 34.104 78.429 34.544C78.549 34.976 78.609 35.464 78.609 36.008ZM75.921 36.836C76.201 36.836 76.465 36.812 76.713 36.764C76.961 36.708 77.201 36.628 77.433 36.524C77.441 36.436 77.445 36.352 77.445 36.272C77.445 36.184 77.445 36.096 77.445 36.008C77.445 35.664 77.421 35.336 77.373 35.024C77.325 34.704 77.237 34.428 77.109 34.196C76.989 33.956 76.825 33.768 76.617 33.632C76.409 33.488 76.145 33.416 75.825 33.416C75.561 33.416 75.337 33.472 75.153 33.584C74.969 33.696 74.817 33.84 74.697 34.016C74.577 34.184 74.489 34.372 74.433 34.58C74.385 34.78 74.361 34.976 74.361 35.168C74.361 35.712 74.489 36.128 74.745 36.416C75.009 36.696 75.401 36.836 75.921 36.836ZM81.7465 39.632C81.7545 39.696 81.7585 39.76 81.7585 39.824C81.7585 39.88 81.7585 39.94 81.7585 40.004C81.7585 40.508 81.6825 41.004 81.5305 41.492C81.3865 41.988 81.1865 42.46 80.9305 42.908L80.0665 42.632C80.2665 42.224 80.3985 41.808 80.4625 41.384C80.5265 40.968 80.5585 40.576 80.5585 40.208C80.5585 40.104 80.5545 40.004 80.5465 39.908C80.5465 39.812 80.5425 39.72 80.5345 39.632H81.7465ZM83.1156 36.884H86.0796V37.928H83.1156V36.884ZM88.5855 41C88.6335 40.36 88.7455 39.688 88.9215 38.984C89.1055 38.272 89.3295 37.584 89.5935 36.92C89.8575 36.248 90.1455 35.628 90.4575 35.06C90.7775 34.484 91.0895 34.016 91.3935 33.656H87.3495V32.684H92.6415V33.608C92.3775 33.912 92.0855 34.332 91.7655 34.868C91.4455 35.396 91.1415 35.992 90.8535 36.656C90.5735 37.312 90.3295 38.016 90.1215 38.768C89.9215 39.512 89.7975 40.256 89.7495 41H88.5855ZM99.655 36.008C99.655 37.656 99.243 38.904 98.419 39.752C97.603 40.592 96.387 41.016 94.771 41.024L94.735 40.088C95.239 40.088 95.691 40.04 96.091 39.944C96.499 39.848 96.855 39.696 97.159 39.488C97.463 39.272 97.715 38.996 97.915 38.66C98.123 38.324 98.275 37.912 98.371 37.424C98.163 37.52 97.927 37.6 97.663 37.664C97.399 37.72 97.127 37.748 96.847 37.748C96.375 37.748 95.975 37.68 95.647 37.544C95.319 37.4 95.051 37.212 94.843 36.98C94.635 36.74 94.483 36.468 94.387 36.164C94.299 35.852 94.255 35.528 94.255 35.192C94.255 34.896 94.307 34.588 94.411 34.268C94.515 33.948 94.671 33.656 94.879 33.392C95.095 33.128 95.367 32.912 95.695 32.744C96.023 32.576 96.411 32.492 96.859 32.492C97.315 32.492 97.715 32.572 98.059 32.732C98.411 32.892 98.703 33.124 98.935 33.428C99.175 33.732 99.355 34.104 99.475 34.544C99.595 34.976 99.655 35.464 99.655 36.008ZM96.967 36.836C97.247 36.836 97.511 36.812 97.759 36.764C98.007 36.708 98.247 36.628 98.479 36.524C98.487 36.436 98.491 36.352 98.491 36.272C98.491 36.184 98.491 36.096 98.491 36.008C98.491 35.664 98.467 35.336 98.419 35.024C98.371 34.704 98.283 34.428 98.155 34.196C98.035 33.956 97.871 33.768 97.663 33.632C97.455 33.488 97.191 33.416 96.871 33.416C96.607 33.416 96.383 33.472 96.199 33.584C96.015 33.696 95.863 33.84 95.743 34.016C95.623 34.184 95.535 34.372 95.479 34.58C95.431 34.78 95.407 34.976 95.407 35.168C95.407 35.712 95.535 36.128 95.791 36.416C96.055 36.696 96.447 36.836 96.967 36.836ZM102.936 40.352C102.936 40.568 102.864 40.756 102.72 40.916C102.576 41.076 102.38 41.156 102.132 41.156C101.884 41.156 101.688 41.076 101.544 40.916C101.4 40.756 101.328 40.568 101.328 40.352C101.328 40.136 101.4 39.948 101.544 39.788C101.688 39.628 101.884 39.548 102.132 39.548C102.38 39.548 102.576 39.628 102.72 39.788C102.864 39.948 102.936 40.136 102.936 40.352ZM106.562 40.184C107.274 40.184 107.782 40.044 108.086 39.764C108.398 39.484 108.554 39.108 108.554 38.636C108.554 38.332 108.49 38.076 108.362 37.868C108.234 37.66 108.066 37.496 107.858 37.376C107.65 37.248 107.406 37.16 107.126 37.112C106.854 37.056 106.574 37.028 106.286 37.028H105.998V36.116H106.394C106.594 36.116 106.798 36.096 107.006 36.056C107.222 36.016 107.418 35.944 107.594 35.84C107.77 35.736 107.914 35.596 108.026 35.42C108.138 35.236 108.194 35.008 108.194 34.736C108.194 34.512 108.154 34.32 108.074 34.16C107.994 34 107.886 33.868 107.75 33.764C107.622 33.66 107.47 33.588 107.294 33.548C107.126 33.5 106.946 33.476 106.754 33.476C106.37 33.476 106.042 33.532 105.77 33.644C105.506 33.756 105.282 33.872 105.098 33.992L104.666 33.14C104.762 33.076 104.882 33.008 105.026 32.936C105.178 32.856 105.346 32.784 105.53 32.72C105.714 32.656 105.91 32.604 106.118 32.564C106.334 32.516 106.558 32.492 106.79 32.492C107.23 32.492 107.61 32.548 107.93 32.66C108.25 32.764 108.514 32.916 108.722 33.116C108.93 33.308 109.086 33.54 109.19 33.812C109.294 34.076 109.346 34.364 109.346 34.676C109.346 35.108 109.222 35.48 108.974 35.792C108.726 36.096 108.426 36.328 108.074 36.488C108.29 36.552 108.498 36.644 108.698 36.764C108.898 36.884 109.07 37.036 109.214 37.22C109.366 37.404 109.486 37.616 109.574 37.856C109.67 38.096 109.718 38.364 109.718 38.66C109.718 39.02 109.654 39.356 109.526 39.668C109.406 39.972 109.214 40.236 108.95 40.46C108.694 40.684 108.37 40.86 107.978 40.988C107.586 41.116 107.122 41.18 106.586 41.18C106.378 41.18 106.162 41.164 105.938 41.132C105.722 41.1 105.518 41.06 105.326 41.012C105.134 40.964 104.966 40.916 104.822 40.868C104.678 40.82 104.574 40.78 104.51 40.748L104.726 39.776C104.862 39.84 105.086 39.924 105.398 40.028C105.718 40.132 106.106 40.184 106.562 40.184ZM116.875 36.008C116.875 37.656 116.463 38.904 115.639 39.752C114.823 40.592 113.607 41.016 111.991 41.024L111.955 40.088C112.459 40.088 112.911 40.04 113.311 39.944C113.719 39.848 114.075 39.696 114.379 39.488C114.683 39.272 114.935 38.996 115.135 38.66C115.343 38.324 115.495 37.912 115.591 37.424C115.383 37.52 115.147 37.6 114.883 37.664C114.619 37.72 114.347 37.748 114.067 37.748C113.595 37.748 113.195 37.68 112.867 37.544C112.539 37.4 112.271 37.212 112.063 36.98C111.855 36.74 111.703 36.468 111.607 36.164C111.519 35.852 111.475 35.528 111.475 35.192C111.475 34.896 111.527 34.588 111.631 34.268C111.735 33.948 111.891 33.656 112.099 33.392C112.315 33.128 112.587 32.912 112.915 32.744C113.243 32.576 113.631 32.492 114.079 32.492C114.535 32.492 114.935 32.572 115.279 32.732C115.631 32.892 115.923 33.124 116.155 33.428C116.395 33.732 116.575 34.104 116.695 34.544C116.815 34.976 116.875 35.464 116.875 36.008ZM114.187 36.836C114.467 36.836 114.731 36.812 114.979 36.764C115.227 36.708 115.467 36.628 115.699 36.524C115.707 36.436 115.711 36.352 115.711 36.272C115.711 36.184 115.711 36.096 115.711 36.008C115.711 35.664 115.687 35.336 115.639 35.024C115.591 34.704 115.503 34.428 115.375 34.196C115.255 33.956 115.091 33.768 114.883 33.632C114.675 33.488 114.411 33.416 114.091 33.416C113.827 33.416 113.603 33.472 113.419 33.584C113.235 33.696 113.083 33.84 112.963 34.016C112.843 34.184 112.755 34.372 112.699 34.58C112.651 34.78 112.627 34.976 112.627 35.168C112.627 35.712 112.755 36.128 113.011 36.416C113.275 36.696 113.667 36.836 114.187 36.836ZM123.984 38.84C123.984 39.176 123.924 39.488 123.804 39.776C123.692 40.056 123.52 40.304 123.288 40.52C123.064 40.728 122.78 40.888 122.436 41C122.092 41.12 121.696 41.18 121.248 41.18C120.728 41.18 120.292 41.108 119.94 40.964C119.596 40.812 119.32 40.624 119.112 40.4C118.904 40.176 118.756 39.932 118.668 39.668C118.58 39.396 118.536 39.14 118.536 38.9C118.536 38.668 118.572 38.448 118.644 38.24C118.724 38.024 118.824 37.824 118.944 37.64C119.072 37.456 119.216 37.292 119.376 37.148C119.544 36.996 119.72 36.864 119.904 36.752C119.12 36.304 118.728 35.644 118.728 34.772C118.728 34.468 118.788 34.18 118.908 33.908C119.028 33.628 119.196 33.384 119.412 33.176C119.636 32.968 119.904 32.804 120.216 32.684C120.528 32.556 120.876 32.492 121.26 32.492C121.708 32.492 122.092 32.56 122.412 32.696C122.732 32.832 122.992 33.008 123.192 33.224C123.4 33.432 123.548 33.664 123.636 33.92C123.732 34.176 123.78 34.424 123.78 34.664C123.78 34.896 123.744 35.116 123.672 35.324C123.608 35.524 123.516 35.712 123.396 35.888C123.284 36.064 123.152 36.22 123 36.356C122.856 36.492 122.704 36.612 122.544 36.716C123.488 37.164 123.968 37.872 123.984 38.84ZM119.664 38.912C119.664 39.056 119.688 39.208 119.736 39.368C119.792 39.52 119.884 39.664 120.012 39.8C120.14 39.928 120.304 40.036 120.504 40.124C120.704 40.212 120.956 40.256 121.26 40.256C121.532 40.256 121.768 40.216 121.968 40.136C122.176 40.056 122.344 39.956 122.472 39.836C122.6 39.708 122.696 39.564 122.76 39.404C122.824 39.244 122.856 39.08 122.856 38.912C122.856 38.656 122.808 38.432 122.712 38.24C122.616 38.048 122.476 37.88 122.292 37.736C122.116 37.592 121.9 37.472 121.644 37.376C121.396 37.272 121.112 37.184 120.792 37.112C120.432 37.312 120.152 37.56 119.952 37.856C119.76 38.152 119.664 38.504 119.664 38.912ZM122.664 34.652C122.664 34.532 122.636 34.4 122.58 34.256C122.532 34.112 122.452 33.98 122.34 33.86C122.228 33.732 122.084 33.628 121.908 33.548C121.732 33.46 121.516 33.416 121.26 33.416C121.004 33.416 120.784 33.456 120.6 33.536C120.424 33.616 120.28 33.72 120.168 33.848C120.056 33.968 119.972 34.104 119.916 34.256C119.868 34.4 119.844 34.544 119.844 34.688C119.844 34.864 119.876 35.04 119.94 35.216C120.004 35.392 120.104 35.556 120.24 35.708C120.376 35.86 120.552 35.996 120.768 36.116C120.992 36.236 121.256 36.332 121.56 36.404C121.896 36.204 122.164 35.972 122.364 35.708C122.564 35.436 122.664 35.084 122.664 34.652ZM125.646 37.664C125.646 36.856 125.758 36.144 125.982 35.528C126.206 34.904 126.522 34.38 126.93 33.956C127.346 33.532 127.846 33.212 128.43 32.996C129.022 32.772 129.686 32.656 130.422 32.648L130.506 33.584C130.034 33.592 129.602 33.644 129.21 33.74C128.826 33.836 128.482 33.988 128.178 34.196C127.874 34.404 127.618 34.676 127.41 35.012C127.202 35.34 127.046 35.748 126.942 36.236C127.15 36.14 127.382 36.06 127.638 35.996C127.902 35.932 128.174 35.9 128.454 35.9C128.926 35.9 129.326 35.972 129.654 36.116C129.982 36.26 130.25 36.452 130.458 36.692C130.666 36.924 130.814 37.196 130.902 37.508C130.998 37.812 131.046 38.132 131.046 38.468C131.046 38.772 130.994 39.084 130.89 39.404C130.786 39.724 130.626 40.016 130.41 40.28C130.202 40.544 129.934 40.76 129.606 40.928C129.278 41.096 128.89 41.18 128.442 41.18C127.53 41.18 126.834 40.868 126.354 40.244C125.882 39.62 125.646 38.76 125.646 37.664ZM128.334 36.812C128.054 36.812 127.794 36.84 127.554 36.896C127.314 36.944 127.074 37.02 126.834 37.124C126.826 37.212 126.818 37.304 126.81 37.4C126.81 37.488 126.81 37.576 126.81 37.664C126.81 38.016 126.834 38.348 126.882 38.66C126.93 38.972 127.014 39.248 127.134 39.488C127.262 39.72 127.43 39.908 127.638 40.052C127.846 40.188 128.11 40.256 128.43 40.256C128.694 40.256 128.918 40.2 129.102 40.088C129.286 39.976 129.438 39.832 129.558 39.656C129.678 39.48 129.762 39.292 129.81 39.092C129.866 38.884 129.894 38.684 129.894 38.492C129.894 37.948 129.762 37.532 129.498 37.244C129.242 36.956 128.854 36.812 128.334 36.812ZM132.383 38.12C132.535 37.768 132.743 37.36 133.007 36.896C133.271 36.424 133.567 35.94 133.895 35.444C134.231 34.948 134.587 34.46 134.963 33.98C135.347 33.5 135.731 33.068 136.115 32.684H137.183V37.964H138.167V38.876H137.183V41H136.103V38.876H132.383V38.12ZM136.103 34.004C135.863 34.26 135.619 34.548 135.371 34.868C135.131 35.18 134.895 35.508 134.663 35.852C134.431 36.196 134.211 36.548 134.003 36.908C133.803 37.268 133.623 37.62 133.463 37.964H136.103V34.004ZM139.397 38.12C139.549 37.768 139.757 37.36 140.021 36.896C140.285 36.424 140.581 35.94 140.909 35.444C141.245 34.948 141.601 34.46 141.977 33.98C142.361 33.5 142.745 33.068 143.129 32.684H144.197V37.964H145.181V38.876H144.197V41H143.117V38.876H139.397V38.12ZM143.117 34.004C142.877 34.26 142.633 34.548 142.385 34.868C142.145 35.18 141.909 35.508 141.677 35.852C141.445 36.196 141.225 36.548 141.017 36.908C140.817 37.268 140.637 37.62 140.477 37.964H143.117V34.004Z" fill="#737A7F"/>
<defs>
<linearGradient id="paint0_linear" x1="20" y1="182" x2="20" y2="158.203" gradientUnits="userSpaceOnUse">
<stop stop-color="#49B9E4"/>
<stop offset="1" stop-color="#4587E1"/>
</linearGradient>
<linearGradient id="paint1_linear" x1="85.5" y1="59" x2="85.5" y2="89" gradientUnits="userSpaceOnUse">
<stop stop-color="#49BBE4"/>
<stop offset="1" stop-color="#4587E1"/>
</linearGradient>
</defs>
</svg>
