<svg width="20" height="20" viewBox="0 0 20 20" fill="none" xmlns="http://www.w3.org/2000/svg">
<path d="M16.5001 5.97344C16.022 6.17969 15.5017 6.32813 14.9657 6.38594C15.5221 6.05537 15.9388 5.53313 16.1376 4.91719C15.6155 5.2278 15.0435 5.44561 14.447 5.56094C14.1977 5.29442 13.8961 5.0821 13.5612 4.93721C13.2262 4.79231 12.865 4.71795 12.5001 4.71876C11.0235 4.71876 9.83604 5.91563 9.83604 7.38438C9.83604 7.59063 9.86104 7.79688 9.90166 7.99532C7.69072 7.87969 5.71885 6.82344 4.40791 5.20626C4.16904 5.61425 4.04387 6.0788 4.04541 6.55157C4.04541 7.47657 4.51572 8.29219 5.23291 8.77188C4.81026 8.75524 4.39751 8.63907 4.02822 8.43282V8.46563C4.02822 9.76094 4.94385 10.8344 6.16416 11.0813C5.93503 11.1408 5.69933 11.1712 5.4626 11.1719C5.28916 11.1719 5.1251 11.1547 4.95947 11.1313C5.29697 12.1875 6.27979 12.9547 7.4501 12.9797C6.53447 13.6969 5.3876 14.1188 4.14229 14.1188C3.91885 14.1188 3.7126 14.1109 3.49854 14.0859C4.67979 14.8438 6.08135 15.2813 7.59072 15.2813C12.4907 15.2813 15.172 11.2219 15.172 7.69844C15.172 7.58282 15.172 7.46719 15.1642 7.35157C15.6829 6.97188 16.1376 6.50157 16.5001 5.97344Z" fill="#4587E1"/>
</svg>
