<svg width="196" height="40" viewBox="0 0 196 40" fill="none" xmlns="http://www.w3.org/2000/svg">
<rect width="196" height="40" rx="10" fill="url(#paint0_linear)"/>
<path d="M50.3909 26V14.912H57.8149V17.008H52.8869V19.328H57.2709V21.424H52.8869V26H50.3909ZM63.0984 26.16C62.4051 26.1493 61.8398 26.0747 61.4024 25.936C60.9758 25.7973 60.6344 25.6053 60.3784 25.36C60.1331 25.104 59.9624 24.8 59.8664 24.448C59.7811 24.0853 59.7384 23.68 59.7384 23.232V13.968L62.1224 13.584V22.752C62.1224 22.9653 62.1384 23.1573 62.1704 23.328C62.2024 23.4987 62.2611 23.6427 62.3464 23.76C62.4424 23.8773 62.5758 23.9733 62.7464 24.048C62.9171 24.1227 63.1464 24.1707 63.4344 24.192L63.0984 26.16ZM68.5713 24.336C68.806 24.336 69.03 24.3307 69.2433 24.32C69.4566 24.3093 69.6273 24.2933 69.7553 24.272V22.464C69.6593 22.4427 69.5153 22.4213 69.3233 22.4C69.1313 22.3787 68.9553 22.368 68.7953 22.368C68.5713 22.368 68.358 22.384 68.1553 22.416C67.9633 22.4373 67.7926 22.4853 67.6433 22.56C67.494 22.6347 67.3766 22.736 67.2913 22.864C67.206 22.992 67.1633 23.152 67.1633 23.344C67.1633 23.7173 67.286 23.9787 67.5313 24.128C67.7873 24.2667 68.134 24.336 68.5713 24.336ZM68.3793 17.36C69.0833 17.36 69.67 17.44 70.1393 17.6C70.6086 17.76 70.982 17.9893 71.2593 18.288C71.5473 18.5867 71.75 18.9493 71.8673 19.376C71.9846 19.8027 72.0433 20.2773 72.0433 20.8V25.76C71.702 25.8347 71.2273 25.92 70.6193 26.016C70.0113 26.1227 69.2753 26.176 68.4113 26.176C67.8673 26.176 67.3713 26.128 66.9233 26.032C66.486 25.936 66.1073 25.7813 65.7873 25.568C65.4673 25.344 65.222 25.056 65.0513 24.704C64.8806 24.352 64.7953 23.92 64.7953 23.408C64.7953 22.9173 64.8913 22.5013 65.0833 22.16C65.286 21.8187 65.5526 21.5467 65.8833 21.344C66.214 21.1413 66.5926 20.9973 67.0193 20.912C67.446 20.816 67.8886 20.768 68.3473 20.768C68.6566 20.768 68.9286 20.784 69.1633 20.816C69.4086 20.8373 69.606 20.8693 69.7553 20.912V20.688C69.7553 20.2827 69.6326 19.9573 69.3873 19.712C69.142 19.4667 68.7153 19.344 68.1073 19.344C67.702 19.344 67.302 19.376 66.9073 19.44C66.5126 19.4933 66.1713 19.5733 65.8833 19.68L65.5793 17.76C65.718 17.7173 65.8886 17.6747 66.0913 17.632C66.3046 17.5787 66.534 17.536 66.7793 17.504C67.0246 17.4613 67.2806 17.4293 67.5473 17.408C67.8246 17.376 68.102 17.36 68.3793 17.36ZM76.5511 21.52C76.5511 22.8533 77.0897 23.52 78.1671 23.52C78.4124 23.52 78.6417 23.488 78.8551 23.424C79.0684 23.36 79.2497 23.2853 79.3991 23.2V19.392C79.2817 19.3707 79.1431 19.3547 78.9831 19.344C78.8231 19.3227 78.6364 19.312 78.4231 19.312C77.7937 19.312 77.3244 19.52 77.0151 19.936C76.7057 20.352 76.5511 20.88 76.5511 21.52ZM81.7831 24.944C81.7831 26.32 81.4311 27.3387 80.7271 28C80.0337 28.672 78.9564 29.008 77.4951 29.008C76.9831 29.008 76.4711 28.96 75.9591 28.864C75.4471 28.7787 74.9724 28.6613 74.5351 28.512L74.9511 26.512C75.3244 26.6613 75.7137 26.7787 76.1191 26.864C76.5351 26.9493 77.0044 26.992 77.5271 26.992C78.2097 26.992 78.6897 26.8427 78.9671 26.544C79.2551 26.2453 79.3991 25.8613 79.3991 25.392V25.088C79.1431 25.2053 78.8764 25.296 78.5991 25.36C78.3324 25.4133 78.0391 25.44 77.7191 25.44C76.5564 25.44 75.6657 25.0987 75.0471 24.416C74.4284 23.7227 74.1191 22.7573 74.1191 21.52C74.1191 20.9013 74.2151 20.3413 74.4071 19.84C74.5991 19.328 74.8764 18.8907 75.2391 18.528C75.6124 18.1653 76.0657 17.888 76.5991 17.696C77.1324 17.4933 77.7351 17.392 78.4071 17.392C78.6951 17.392 78.9884 17.408 79.2871 17.44C79.5964 17.4613 79.9004 17.4933 80.1991 17.536C80.4977 17.5787 80.7804 17.632 81.0471 17.696C81.3244 17.7493 81.5697 17.808 81.7831 17.872V24.944ZM93.7188 26.224C91.9161 26.224 90.5401 25.7227 89.5908 24.72C88.6521 23.7173 88.1828 22.2933 88.1828 20.448C88.1828 19.5307 88.3268 18.7147 88.6148 18C88.9028 17.2747 89.2975 16.6667 89.7988 16.176C90.3001 15.6747 90.8975 15.296 91.5908 15.04C92.2841 14.784 93.0361 14.656 93.8468 14.656C94.3161 14.656 94.7428 14.6933 95.1268 14.768C95.5108 14.832 95.8468 14.912 96.1348 15.008C96.4228 15.0933 96.6628 15.184 96.8548 15.28C97.0468 15.376 97.1855 15.4507 97.2708 15.504L96.5508 17.52C96.2095 17.3387 95.8095 17.184 95.3508 17.056C94.9028 16.928 94.3908 16.864 93.8148 16.864C93.4308 16.864 93.0521 16.928 92.6788 17.056C92.3161 17.184 91.9908 17.392 91.7028 17.68C91.4255 17.9573 91.2015 18.32 91.0308 18.768C90.8601 19.216 90.7748 19.76 90.7748 20.4C90.7748 20.912 90.8281 21.392 90.9348 21.84C91.0521 22.2773 91.2335 22.656 91.4788 22.976C91.7348 23.296 92.0655 23.552 92.4708 23.744C92.8761 23.9253 93.3668 24.016 93.9428 24.016C94.3055 24.016 94.6308 23.9947 94.9188 23.952C95.2068 23.9093 95.4628 23.8613 95.6868 23.808C95.9108 23.744 96.1081 23.6747 96.2788 23.6C96.4495 23.5253 96.6041 23.456 96.7428 23.392L97.4308 25.392C97.0788 25.6053 96.5828 25.7973 95.9428 25.968C95.3028 26.1387 94.5615 26.224 93.7188 26.224ZM99.1978 26V13.968L101.582 13.584V17.616C101.742 17.5627 101.944 17.5147 102.19 17.472C102.446 17.4187 102.691 17.392 102.926 17.392C103.608 17.392 104.174 17.488 104.622 17.68C105.08 17.8613 105.443 18.1227 105.71 18.464C105.987 18.8053 106.179 19.2107 106.286 19.68C106.403 20.1493 106.462 20.672 106.462 21.248V26H104.078V21.536C104.078 20.768 103.976 20.224 103.774 19.904C103.582 19.584 103.219 19.424 102.686 19.424C102.472 19.424 102.27 19.4453 102.078 19.488C101.896 19.52 101.731 19.5573 101.582 19.6V26H99.1978ZM112.156 24.336C112.39 24.336 112.614 24.3307 112.828 24.32C113.041 24.3093 113.212 24.2933 113.34 24.272V22.464C113.244 22.4427 113.1 22.4213 112.908 22.4C112.716 22.3787 112.54 22.368 112.38 22.368C112.156 22.368 111.942 22.384 111.74 22.416C111.548 22.4373 111.377 22.4853 111.228 22.56C111.078 22.6347 110.961 22.736 110.876 22.864C110.79 22.992 110.748 23.152 110.748 23.344C110.748 23.7173 110.87 23.9787 111.116 24.128C111.372 24.2667 111.718 24.336 112.156 24.336ZM111.964 17.36C112.668 17.36 113.254 17.44 113.724 17.6C114.193 17.76 114.566 17.9893 114.844 18.288C115.132 18.5867 115.334 18.9493 115.452 19.376C115.569 19.8027 115.628 20.2773 115.628 20.8V25.76C115.286 25.8347 114.812 25.92 114.204 26.016C113.596 26.1227 112.86 26.176 111.996 26.176C111.452 26.176 110.956 26.128 110.508 26.032C110.07 25.936 109.692 25.7813 109.372 25.568C109.052 25.344 108.806 25.056 108.636 24.704C108.465 24.352 108.38 23.92 108.38 23.408C108.38 22.9173 108.476 22.5013 108.668 22.16C108.87 21.8187 109.137 21.5467 109.468 21.344C109.798 21.1413 110.177 20.9973 110.604 20.912C111.03 20.816 111.473 20.768 111.932 20.768C112.241 20.768 112.513 20.784 112.748 20.816C112.993 20.8373 113.19 20.8693 113.34 20.912V20.688C113.34 20.2827 113.217 19.9573 112.972 19.712C112.726 19.4667 112.3 19.344 111.692 19.344C111.286 19.344 110.886 19.376 110.492 19.44C110.097 19.4933 109.756 19.5733 109.468 19.68L109.164 17.76C109.302 17.7173 109.473 17.6747 109.676 17.632C109.889 17.5787 110.118 17.536 110.364 17.504C110.609 17.4613 110.865 17.4293 111.132 17.408C111.409 17.376 111.686 17.36 111.964 17.36ZM118.103 17.872C118.509 17.7547 119.031 17.648 119.671 17.552C120.311 17.4453 120.983 17.392 121.687 17.392C122.402 17.392 122.994 17.488 123.463 17.68C123.943 17.8613 124.322 18.1227 124.599 18.464C124.877 18.8053 125.074 19.2107 125.191 19.68C125.309 20.1493 125.367 20.672 125.367 21.248V26H122.983V21.536C122.983 20.768 122.882 20.224 122.679 19.904C122.477 19.584 122.098 19.424 121.543 19.424C121.373 19.424 121.191 19.4347 120.999 19.456C120.807 19.4667 120.637 19.4827 120.487 19.504V26H118.103V17.872ZM129.877 21.52C129.877 22.8533 130.416 23.52 131.493 23.52C131.739 23.52 131.968 23.488 132.181 23.424C132.395 23.36 132.576 23.2853 132.725 23.2V19.392C132.608 19.3707 132.469 19.3547 132.309 19.344C132.149 19.3227 131.963 19.312 131.749 19.312C131.12 19.312 130.651 19.52 130.341 19.936C130.032 20.352 129.877 20.88 129.877 21.52ZM135.109 24.944C135.109 26.32 134.757 27.3387 134.053 28C133.36 28.672 132.283 29.008 130.821 29.008C130.309 29.008 129.797 28.96 129.285 28.864C128.773 28.7787 128.299 28.6613 127.861 28.512L128.277 26.512C128.651 26.6613 129.04 26.7787 129.445 26.864C129.861 26.9493 130.331 26.992 130.853 26.992C131.536 26.992 132.016 26.8427 132.293 26.544C132.581 26.2453 132.725 25.8613 132.725 25.392V25.088C132.469 25.2053 132.203 25.296 131.925 25.36C131.659 25.4133 131.365 25.44 131.045 25.44C129.883 25.44 128.992 25.0987 128.373 24.416C127.755 23.7227 127.445 22.7573 127.445 21.52C127.445 20.9013 127.541 20.3413 127.733 19.84C127.925 19.328 128.203 18.8907 128.565 18.528C128.939 18.1653 129.392 17.888 129.925 17.696C130.459 17.4933 131.061 17.392 131.733 17.392C132.021 17.392 132.315 17.408 132.613 17.44C132.923 17.4613 133.227 17.4933 133.525 17.536C133.824 17.5787 134.107 17.632 134.373 17.696C134.651 17.7493 134.896 17.808 135.109 17.872V24.944ZM137.265 21.856C137.265 21.1093 137.377 20.4587 137.601 19.904C137.836 19.3387 138.14 18.8693 138.513 18.496C138.887 18.1227 139.313 17.84 139.793 17.648C140.284 17.456 140.785 17.36 141.297 17.36C142.492 17.36 143.436 17.728 144.129 18.464C144.823 19.1893 145.169 20.2613 145.169 21.68C145.169 21.8187 145.164 21.9733 145.153 22.144C145.143 22.304 145.132 22.448 145.121 22.576H139.713C139.767 23.0667 139.996 23.456 140.401 23.744C140.807 24.032 141.351 24.176 142.033 24.176C142.471 24.176 142.897 24.1387 143.313 24.064C143.74 23.9787 144.087 23.8773 144.353 23.76L144.673 25.696C144.545 25.76 144.375 25.824 144.161 25.888C143.948 25.952 143.708 26.0053 143.441 26.048C143.185 26.1013 142.908 26.144 142.609 26.176C142.311 26.208 142.012 26.224 141.713 26.224C140.956 26.224 140.295 26.112 139.729 25.888C139.175 25.664 138.711 25.36 138.337 24.976C137.975 24.5813 137.703 24.1173 137.521 23.584C137.351 23.0507 137.265 22.4747 137.265 21.856ZM142.865 20.944C142.855 20.7413 142.817 20.544 142.753 20.352C142.7 20.16 142.609 19.9893 142.481 19.84C142.364 19.6907 142.209 19.568 142.017 19.472C141.836 19.376 141.607 19.328 141.329 19.328C141.063 19.328 140.833 19.376 140.641 19.472C140.449 19.5573 140.289 19.6747 140.161 19.824C140.033 19.9733 139.932 20.1493 139.857 20.352C139.793 20.544 139.745 20.7413 139.713 20.944H142.865Z" fill="white"/>
<defs>
<linearGradient id="paint0_linear" x1="98" y1="0" x2="98" y2="40" gradientUnits="userSpaceOnUse">
<stop stop-color="#49BBE4"/>
<stop offset="1" stop-color="#4587E1"/>
</linearGradient>
</defs>
</svg>
