<svg width="40" height="40" viewBox="0 0 40 40" fill="none" xmlns="http://www.w3.org/2000/svg">
<circle cx="20" cy="20" r="19.5" fill="#EDF9FB" stroke="#F5F5F5"/>
<g clip-path="url(#clip0)">
<path d="M20.8957 9.65237C20.8492 9.53564 20.7688 9.43553 20.6649 9.365C20.5609 9.29447 20.4381 9.25677 20.3125 9.25677C20.1869 9.25677 20.0641 9.29447 19.9601 9.365C19.8562 9.43553 19.7758 9.53564 19.7293 9.65237L12.6281 27.4055C12.5808 27.5237 12.5705 27.6535 12.5987 27.7776C12.6269 27.9018 12.6922 28.0144 12.7859 28.1006C12.8796 28.1868 12.9973 28.2425 13.1233 28.2602C13.2494 28.278 13.3779 28.2569 13.4917 28.2L20.3125 24.7896L27.1324 28.2008C27.2463 28.2583 27.3751 28.2796 27.5015 28.262C27.6279 28.2444 27.7459 28.1887 27.8398 28.1023C27.9337 28.0159 27.9991 27.9029 28.0272 27.7784C28.0552 27.6539 28.0447 27.5239 27.9969 27.4055L20.8957 9.65237V9.65237Z" fill="url(#paint0_linear)"/>
</g>
<defs>
<linearGradient id="paint0_linear" x1="26.9709" y1="15.6552" x2="13.6553" y2="28.9708" gradientUnits="userSpaceOnUse">
<stop stop-color="#49BBE4"/>
<stop offset="1" stop-color="#4587E1"/>
</linearGradient>
<clipPath id="clip0">
<rect width="18.83" height="18.83" fill="white" transform="translate(20.5481 9) rotate(46.0131)"/>
</clipPath>
</defs>
</svg>
