<svg width="170" height="40" viewBox="0 0 170 40" fill="none" xmlns="http://www.w3.org/2000/svg">
<rect width="170" height="40" rx="10" fill="url(#paint0_linear)"/>
<path d="M60.8209 24.588V27H52.4869V14.526H55.2949V24.588H60.8209ZM71.3055 22.248C71.3055 22.992 71.1975 23.676 70.9815 24.3C70.7655 24.912 70.4535 25.44 70.0455 25.884C69.6375 26.316 69.1455 26.652 68.5695 26.892C68.0055 27.132 67.3695 27.252 66.6615 27.252C65.9655 27.252 65.3295 27.132 64.7535 26.892C64.1895 26.652 63.7035 26.316 63.2955 25.884C62.8875 25.44 62.5695 24.912 62.3415 24.3C62.1135 23.676 61.9995 22.992 61.9995 22.248C61.9995 21.504 62.1135 20.826 62.3415 20.214C62.5815 19.602 62.9055 19.08 63.3135 18.648C63.7335 18.216 64.2255 17.88 64.7895 17.64C65.3655 17.4 65.9895 17.28 66.6615 17.28C67.3455 17.28 67.9695 17.4 68.5335 17.64C69.1095 17.88 69.6015 18.216 70.0095 18.648C70.4175 19.08 70.7355 19.602 70.9635 20.214C71.1915 20.826 71.3055 21.504 71.3055 22.248ZM68.5695 22.248C68.5695 21.42 68.4015 20.772 68.0655 20.304C67.7415 19.824 67.2735 19.584 66.6615 19.584C66.0495 19.584 65.5755 19.824 65.2395 20.304C64.9035 20.772 64.7355 21.42 64.7355 22.248C64.7355 23.076 64.9035 23.736 65.2395 24.228C65.5755 24.708 66.0495 24.948 66.6615 24.948C67.2735 24.948 67.7415 24.708 68.0655 24.228C68.4015 23.736 68.5695 23.076 68.5695 22.248ZM75.669 21.96C75.669 23.46 76.275 24.21 77.487 24.21C77.763 24.21 78.021 24.174 78.261 24.102C78.501 24.03 78.705 23.946 78.873 23.85V19.566C78.741 19.542 78.585 19.524 78.405 19.512C78.225 19.488 78.015 19.476 77.775 19.476C77.067 19.476 76.539 19.71 76.191 20.178C75.843 20.646 75.669 21.24 75.669 21.96ZM81.555 25.812C81.555 27.36 81.159 28.506 80.367 29.25C79.587 30.006 78.375 30.384 76.731 30.384C76.155 30.384 75.579 30.33 75.003 30.222C74.427 30.126 73.893 29.994 73.401 29.826L73.869 27.576C74.289 27.744 74.727 27.876 75.183 27.972C75.651 28.068 76.179 28.116 76.767 28.116C77.535 28.116 78.075 27.948 78.387 27.612C78.711 27.276 78.873 26.844 78.873 26.316V25.974C78.585 26.106 78.285 26.208 77.973 26.28C77.673 26.34 77.343 26.37 76.983 26.37C75.675 26.37 74.673 25.986 73.977 25.218C73.281 24.438 72.933 23.352 72.933 21.96C72.933 21.264 73.041 20.634 73.257 20.07C73.473 19.494 73.785 19.002 74.193 18.594C74.613 18.186 75.123 17.874 75.723 17.658C76.323 17.43 77.001 17.316 77.757 17.316C78.081 17.316 78.411 17.334 78.747 17.37C79.095 17.394 79.437 17.43 79.773 17.478C80.109 17.526 80.427 17.586 80.727 17.658C81.039 17.718 81.315 17.784 81.555 17.856V25.812ZM90.9328 20.754C90.9328 21.366 91.0048 21.918 91.1488 22.41C91.3048 22.902 91.5208 23.328 91.7968 23.688C92.0848 24.036 92.4328 24.306 92.8408 24.498C93.2488 24.69 93.7168 24.786 94.2448 24.786C94.7608 24.786 95.2228 24.69 95.6308 24.498C96.0508 24.306 96.3988 24.036 96.6748 23.688C96.9628 23.328 97.1788 22.902 97.3228 22.41C97.4788 21.918 97.5568 21.366 97.5568 20.754C97.5568 20.142 97.4788 19.59 97.3228 19.098C97.1788 18.594 96.9628 18.168 96.6748 17.82C96.3988 17.46 96.0508 17.184 95.6308 16.992C95.2228 16.8 94.7608 16.704 94.2448 16.704C93.7168 16.704 93.2488 16.806 92.8408 17.01C92.4328 17.202 92.0848 17.478 91.7968 17.838C91.5208 18.186 91.3048 18.612 91.1488 19.116C91.0048 19.608 90.9328 20.154 90.9328 20.754ZM100.455 20.754C100.455 21.822 100.293 22.764 99.9688 23.58C99.6568 24.384 99.2248 25.062 98.6728 25.614C98.1208 26.154 97.4608 26.562 96.6928 26.838C95.9368 27.114 95.1208 27.252 94.2448 27.252C93.3928 27.252 92.5888 27.114 91.8328 26.838C91.0768 26.562 90.4168 26.154 89.8528 25.614C89.2888 25.062 88.8448 24.384 88.5208 23.58C88.1968 22.764 88.0348 21.822 88.0348 20.754C88.0348 19.686 88.2028 18.75 88.5388 17.946C88.8748 17.13 89.3248 16.446 89.8888 15.894C90.4648 15.342 91.1248 14.928 91.8688 14.652C92.6248 14.376 93.4168 14.238 94.2448 14.238C95.0968 14.238 95.9008 14.376 96.6568 14.652C97.4128 14.928 98.0728 15.342 98.6368 15.894C99.2008 16.446 99.6448 17.13 99.9688 17.946C100.293 18.75 100.455 19.686 100.455 20.754ZM110.697 26.676C110.241 26.808 109.653 26.928 108.933 27.036C108.213 27.156 107.457 27.216 106.665 27.216C105.861 27.216 105.189 27.108 104.649 26.892C104.121 26.676 103.701 26.376 103.389 25.992C103.077 25.596 102.855 25.128 102.723 24.588C102.591 24.048 102.525 23.454 102.525 22.806V17.532H105.207V22.482C105.207 23.346 105.321 23.97 105.549 24.354C105.777 24.738 106.203 24.93 106.827 24.93C107.019 24.93 107.223 24.924 107.439 24.912C107.655 24.888 107.847 24.864 108.015 24.84V17.532H110.697V26.676ZM113.125 15.174L115.807 14.742V17.532H119.029V19.764H115.807V23.094C115.807 23.658 115.903 24.108 116.095 24.444C116.299 24.78 116.701 24.948 117.301 24.948C117.589 24.948 117.883 24.924 118.183 24.876C118.495 24.816 118.777 24.738 119.029 24.642L119.407 26.73C119.083 26.862 118.723 26.976 118.327 27.072C117.931 27.168 117.445 27.216 116.869 27.216C116.137 27.216 115.531 27.12 115.051 26.928C114.571 26.724 114.187 26.448 113.899 26.1C113.611 25.74 113.407 25.308 113.287 24.804C113.179 24.3 113.125 23.742 113.125 23.13V15.174Z" fill="white"/>
<defs>
<linearGradient id="paint0_linear" x1="85" y1="0" x2="85" y2="40" gradientUnits="userSpaceOnUse">
<stop stop-color="#49B8E4"/>
<stop offset="1" stop-color="#4587E1"/>
</linearGradient>
</defs>
</svg>
