<svg width="196" height="40" viewBox="0 0 196 40" fill="none" xmlns="http://www.w3.org/2000/svg">
<rect width="196" height="40" rx="10" fill="url(#paint0_linear)"/>
<path d="M53.7971 14.784C55.4504 14.784 56.7197 15.0773 57.6051 15.664C58.4904 16.24 58.9331 17.1893 58.9331 18.512C58.9331 19.8453 58.4851 20.8107 57.5891 21.408C56.6931 21.9947 55.4131 22.288 53.7491 22.288H52.9651V26H50.4691V15.072C51.0131 14.9653 51.5891 14.8907 52.1971 14.848C52.8051 14.8053 53.3384 14.784 53.7971 14.784ZM53.9571 16.912C53.7757 16.912 53.5944 16.9173 53.4131 16.928C53.2424 16.9387 53.0931 16.9493 52.9651 16.96V20.16H53.7491C54.6131 20.16 55.2637 20.0427 55.7011 19.808C56.1384 19.5733 56.3571 19.136 56.3571 18.496C56.3571 18.1867 56.2984 17.9307 56.1811 17.728C56.0744 17.5253 55.9144 17.3653 55.7011 17.248C55.4984 17.12 55.2477 17.0347 54.9491 16.992C54.6504 16.9387 54.3197 16.912 53.9571 16.912ZM68.5636 21.776C68.5636 22.4373 68.4676 23.0453 68.2756 23.6C68.0836 24.144 67.8062 24.6133 67.4436 25.008C67.0809 25.392 66.6436 25.6907 66.1316 25.904C65.6302 26.1173 65.0649 26.224 64.4356 26.224C63.8169 26.224 63.2516 26.1173 62.7396 25.904C62.2382 25.6907 61.8062 25.392 61.4436 25.008C61.0809 24.6133 60.7982 24.144 60.5956 23.6C60.3929 23.0453 60.2916 22.4373 60.2916 21.776C60.2916 21.1147 60.3929 20.512 60.5956 19.968C60.8089 19.424 61.0969 18.96 61.4596 18.576C61.8329 18.192 62.2702 17.8933 62.7716 17.68C63.2836 17.4667 63.8382 17.36 64.4356 17.36C65.0436 17.36 65.5982 17.4667 66.0996 17.68C66.6116 17.8933 67.0489 18.192 67.4116 18.576C67.7742 18.96 68.0569 19.424 68.2596 19.968C68.4622 20.512 68.5636 21.1147 68.5636 21.776ZM66.1316 21.776C66.1316 21.04 65.9822 20.464 65.6836 20.048C65.3956 19.6213 64.9796 19.408 64.4356 19.408C63.8916 19.408 63.4702 19.6213 63.1716 20.048C62.8729 20.464 62.7236 21.04 62.7236 21.776C62.7236 22.512 62.8729 23.0987 63.1716 23.536C63.4702 23.9627 63.8916 24.176 64.4356 24.176C64.9796 24.176 65.3956 23.9627 65.6836 23.536C65.9822 23.0987 66.1316 22.512 66.1316 21.776ZM73.1463 24.288C73.5836 24.288 73.893 24.2453 74.0743 24.16C74.2556 24.0747 74.3463 23.9093 74.3463 23.664C74.3463 23.472 74.229 23.3067 73.9943 23.168C73.7596 23.0187 73.4023 22.8533 72.9223 22.672C72.549 22.5333 72.2076 22.3893 71.8983 22.24C71.5996 22.0907 71.3436 21.9147 71.1303 21.712C70.917 21.4987 70.7516 21.248 70.6343 20.96C70.517 20.672 70.4583 20.3253 70.4583 19.92C70.4583 19.1307 70.7516 18.5067 71.3383 18.048C71.925 17.5893 72.7303 17.36 73.7543 17.36C74.2663 17.36 74.757 17.408 75.2263 17.504C75.6956 17.5893 76.069 17.6853 76.3463 17.792L75.9303 19.648C75.653 19.552 75.349 19.4667 75.0183 19.392C74.6983 19.3173 74.3356 19.28 73.9303 19.28C73.1836 19.28 72.8103 19.488 72.8103 19.904C72.8103 20 72.8263 20.0853 72.8583 20.16C72.8903 20.2347 72.9543 20.3093 73.0503 20.384C73.1463 20.448 73.2743 20.5227 73.4343 20.608C73.605 20.6827 73.8183 20.768 74.0743 20.864C74.597 21.056 75.029 21.248 75.3703 21.44C75.7116 21.6213 75.9783 21.824 76.1703 22.048C76.373 22.2613 76.5116 22.5013 76.5863 22.768C76.6716 23.0347 76.7143 23.344 76.7143 23.696C76.7143 24.528 76.3996 25.1573 75.7703 25.584C75.1516 26.0107 74.2716 26.224 73.1303 26.224C72.3836 26.224 71.7596 26.16 71.2583 26.032C70.7676 25.904 70.4263 25.7973 70.2343 25.712L70.6343 23.776C71.0396 23.936 71.4556 24.064 71.8823 24.16C72.309 24.2453 72.7303 24.288 73.1463 24.288ZM78.7359 15.488L81.1199 15.104V17.584H83.9839V19.568H81.1199V22.528C81.1199 23.0293 81.2053 23.4293 81.3759 23.728C81.5573 24.0267 81.9146 24.176 82.4479 24.176C82.7039 24.176 82.9653 24.1547 83.2319 24.112C83.5093 24.0587 83.7599 23.9893 83.9839 23.904L84.3199 25.76C84.0319 25.8773 83.7119 25.9787 83.3599 26.064C83.0079 26.1493 82.5759 26.192 82.0639 26.192C81.4133 26.192 80.8746 26.1067 80.4479 25.936C80.0213 25.7547 79.6799 25.5093 79.4239 25.2C79.1679 24.88 78.9866 24.496 78.8799 24.048C78.7839 23.6 78.7359 23.104 78.7359 22.56V15.488ZM93.8171 14.784C95.4811 14.784 96.7557 15.0827 97.6411 15.68C98.5264 16.2667 98.9691 17.184 98.9691 18.432C98.9691 19.2107 98.7877 19.8453 98.4251 20.336C98.0731 20.816 97.5611 21.1947 96.8891 21.472C97.1131 21.7493 97.3477 22.0693 97.5931 22.432C97.8384 22.784 98.0784 23.1573 98.3131 23.552C98.5584 23.936 98.7931 24.3413 99.0171 24.768C99.2411 25.184 99.4491 25.5947 99.6411 26H96.8411C96.6384 25.6373 96.4304 25.2693 96.2171 24.896C96.0144 24.5227 95.8011 24.16 95.5771 23.808C95.3637 23.456 95.1504 23.1253 94.9371 22.816C94.7237 22.496 94.5104 22.208 94.2971 21.952H93.0651V26H90.5691V15.072C91.1131 14.9653 91.6731 14.8907 92.2491 14.848C92.8357 14.8053 93.3584 14.784 93.8171 14.784ZM93.9611 16.912C93.7797 16.912 93.6144 16.9173 93.4651 16.928C93.3264 16.9387 93.1931 16.9493 93.0651 16.96V19.968H93.7691C94.7077 19.968 95.3797 19.8507 95.7851 19.616C96.1904 19.3813 96.3931 18.9813 96.3931 18.416C96.3931 17.872 96.1851 17.488 95.7691 17.264C95.3637 17.0293 94.7611 16.912 93.9611 16.912ZM100.595 21.856C100.595 21.1093 100.707 20.4587 100.931 19.904C101.165 19.3387 101.469 18.8693 101.843 18.496C102.216 18.1227 102.643 17.84 103.123 17.648C103.613 17.456 104.115 17.36 104.627 17.36C105.821 17.36 106.765 17.728 107.459 18.464C108.152 19.1893 108.499 20.2613 108.499 21.68C108.499 21.8187 108.493 21.9733 108.483 22.144C108.472 22.304 108.461 22.448 108.451 22.576H103.043C103.096 23.0667 103.325 23.456 103.731 23.744C104.136 24.032 104.68 24.176 105.363 24.176C105.8 24.176 106.227 24.1387 106.643 24.064C107.069 23.9787 107.416 23.8773 107.683 23.76L108.003 25.696C107.875 25.76 107.704 25.824 107.491 25.888C107.277 25.952 107.037 26.0053 106.771 26.048C106.515 26.1013 106.237 26.144 105.939 26.176C105.64 26.208 105.341 26.224 105.043 26.224C104.285 26.224 103.624 26.112 103.059 25.888C102.504 25.664 102.04 25.36 101.667 24.976C101.304 24.5813 101.032 24.1173 100.851 23.584C100.68 23.0507 100.595 22.4747 100.595 21.856ZM106.195 20.944C106.184 20.7413 106.147 20.544 106.083 20.352C106.029 20.16 105.939 19.9893 105.811 19.84C105.693 19.6907 105.539 19.568 105.347 19.472C105.165 19.376 104.936 19.328 104.659 19.328C104.392 19.328 104.163 19.376 103.971 19.472C103.779 19.5573 103.619 19.6747 103.491 19.824C103.363 19.9733 103.261 20.1493 103.187 20.352C103.123 20.544 103.075 20.7413 103.043 20.944H106.195ZM112.946 26C112.402 24.9333 111.848 23.6853 111.282 22.256C110.728 20.8267 110.2 19.2693 109.698 17.584H112.226C112.333 18 112.456 18.4533 112.594 18.944C112.744 19.424 112.893 19.9147 113.042 20.416C113.202 20.9067 113.357 21.3867 113.506 21.856C113.666 22.3253 113.821 22.752 113.97 23.136C114.109 22.752 114.258 22.3253 114.418 21.856C114.578 21.3867 114.733 20.9067 114.882 20.416C115.042 19.9147 115.192 19.424 115.33 18.944C115.48 18.4533 115.608 18 115.714 17.584H118.178C117.677 19.2693 117.144 20.8267 116.578 22.256C116.024 23.6853 115.474 24.9333 114.93 26H112.946ZM122.159 26H119.775V17.584H122.159V26ZM122.383 15.152C122.383 15.5893 122.239 15.936 121.951 16.192C121.674 16.4373 121.343 16.56 120.959 16.56C120.575 16.56 120.239 16.4373 119.951 16.192C119.674 15.936 119.535 15.5893 119.535 15.152C119.535 14.7147 119.674 14.3733 119.951 14.128C120.239 13.872 120.575 13.744 120.959 13.744C121.343 13.744 121.674 13.872 121.951 14.128C122.239 14.3733 122.383 14.7147 122.383 15.152ZM124.32 21.856C124.32 21.1093 124.432 20.4587 124.656 19.904C124.891 19.3387 125.195 18.8693 125.568 18.496C125.942 18.1227 126.368 17.84 126.848 17.648C127.339 17.456 127.84 17.36 128.352 17.36C129.547 17.36 130.491 17.728 131.184 18.464C131.878 19.1893 132.224 20.2613 132.224 21.68C132.224 21.8187 132.219 21.9733 132.208 22.144C132.198 22.304 132.187 22.448 132.176 22.576H126.768C126.822 23.0667 127.051 23.456 127.456 23.744C127.862 24.032 128.406 24.176 129.088 24.176C129.526 24.176 129.952 24.1387 130.368 24.064C130.795 23.9787 131.142 23.8773 131.408 23.76L131.728 25.696C131.6 25.76 131.43 25.824 131.216 25.888C131.003 25.952 130.763 26.0053 130.496 26.048C130.24 26.1013 129.963 26.144 129.664 26.176C129.366 26.208 129.067 26.224 128.768 26.224C128.011 26.224 127.35 26.112 126.784 25.888C126.23 25.664 125.766 25.36 125.392 24.976C125.03 24.5813 124.758 24.1173 124.576 23.584C124.406 23.0507 124.32 22.4747 124.32 21.856ZM129.92 20.944C129.91 20.7413 129.872 20.544 129.808 20.352C129.755 20.16 129.664 19.9893 129.536 19.84C129.419 19.6907 129.264 19.568 129.072 19.472C128.891 19.376 128.662 19.328 128.384 19.328C128.118 19.328 127.888 19.376 127.696 19.472C127.504 19.5573 127.344 19.6747 127.216 19.824C127.088 19.9733 126.987 20.1493 126.912 20.352C126.848 20.544 126.8 20.7413 126.768 20.944H129.92ZM139.504 21.168C139.291 21.9787 139.061 22.784 138.816 23.584C138.581 24.384 138.331 25.1893 138.064 26H136.208C136.016 25.552 135.808 25.0187 135.584 24.4C135.36 23.7813 135.125 23.1093 134.88 22.384C134.645 21.648 134.4 20.8747 134.144 20.064C133.899 19.2427 133.659 18.416 133.424 17.584H135.936C136.021 17.968 136.112 18.3893 136.208 18.848C136.315 19.296 136.421 19.76 136.528 20.24C136.645 20.72 136.763 21.2053 136.88 21.696C137.008 22.176 137.136 22.64 137.264 23.088C137.403 22.6187 137.536 22.1387 137.664 21.648C137.803 21.1573 137.931 20.6773 138.048 20.208C138.176 19.728 138.293 19.2693 138.4 18.832C138.517 18.384 138.619 17.968 138.704 17.584H140.432C140.517 17.968 140.613 18.384 140.72 18.832C140.827 19.2693 140.939 19.728 141.056 20.208C141.173 20.6773 141.296 21.1573 141.424 21.648C141.552 22.1387 141.685 22.6187 141.824 23.088C141.952 22.64 142.08 22.176 142.208 21.696C142.336 21.2053 142.453 20.72 142.56 20.24C142.677 19.76 142.784 19.296 142.88 18.848C142.987 18.3893 143.083 17.968 143.168 17.584H145.648C145.413 18.416 145.168 19.2427 144.912 20.064C144.667 20.8747 144.421 21.648 144.176 22.384C143.941 23.1093 143.707 23.7813 143.472 24.4C143.248 25.0187 143.04 25.552 142.848 26H140.992C140.725 25.1893 140.464 24.384 140.208 23.584C139.952 22.784 139.717 21.9787 139.504 21.168Z" fill="white"/>
<defs>
<linearGradient id="paint0_linear" x1="98" y1="0" x2="98" y2="40" gradientUnits="userSpaceOnUse">
<stop stop-color="#49BBE4"/>
<stop offset="1" stop-color="#4587E1"/>
</linearGradient>
</defs>
</svg>
