<svg width="239" height="227" viewBox="0 0 239 227" fill="none" xmlns="http://www.w3.org/2000/svg">
<mask id="path-1-inside-1" fill="white">
<path fill-rule="evenodd" clip-rule="evenodd" d="M17.9082 217L27.9082 227L37.9082 217L229 217C234.523 217 239 212.523 239 207L239 10C239 4.47716 234.523 3.91406e-07 229 8.74228e-07L9.99998 2.00198e-05C4.47714 2.05026e-05 -1.94536e-05 4.47718 -1.89707e-05 10L-1.74846e-06 207C-1.26563e-06 212.523 4.47716 217 10 217L17.9082 217Z"/>
</mask>
<path fill-rule="evenodd" clip-rule="evenodd" d="M17.9082 217L27.9082 227L37.9082 217L229 217C234.523 217 239 212.523 239 207L239 10C239 4.47716 234.523 3.91406e-07 229 8.74228e-07L9.99998 2.00198e-05C4.47714 2.05026e-05 -1.94536e-05 4.47718 -1.89707e-05 10L-1.74846e-06 207C-1.26563e-06 212.523 4.47716 217 10 217L17.9082 217Z" fill="white"/>
<path d="M27.9082 227L27.2011 227.707L27.9082 228.414L28.6153 227.707L27.9082 227ZM17.9082 217L18.6153 216.293L18.3224 216L17.9082 216L17.9082 217ZM37.9082 217L37.9082 216L37.494 216L37.2011 216.293L37.9082 217ZM239 207L240 207L239 207ZM239 10L238 10L239 10ZM-1.89707e-05 10L-1.00002 10L-1.89707e-05 10ZM-1.74846e-06 207L0.999998 207L-1.74846e-06 207ZM28.6153 226.293L18.6153 216.293L17.2011 217.707L27.2011 227.707L28.6153 226.293ZM37.2011 216.293L27.2011 226.293L28.6153 227.707L38.6153 217.707L37.2011 216.293ZM229 216L37.9082 216L37.9082 218L229 218L229 216ZM238 207C238 211.971 233.971 216 229 216L229 218C235.075 218 240 213.075 240 207L238 207ZM238 10L238 207L240 207L240 10L238 10ZM229 1C233.971 1 238 5.02945 238 10L240 10C240 3.92487 235.075 -1 229 -0.999999L229 1ZM9.99998 1.00002L229 1L229 -0.999999L9.99998 -0.99998L9.99998 1.00002ZM0.999981 10C0.999981 5.02947 5.02943 1.00002 9.99998 1.00002L9.99998 -0.99998C3.92485 -0.999979 -1.00002 3.92489 -1.00002 10L0.999981 10ZM0.999998 207L0.999981 10L-1.00002 10L-1 207L0.999998 207ZM10 216C5.02945 216 0.999999 211.971 0.999998 207L-1 207C-1 213.075 3.92486 218 10 218L10 216ZM17.9082 216L10 216L10 218L17.9082 218L17.9082 216Z" fill="#C4C4C4" mask="url(#path-1-inside-1)"/>
</svg>
