<svg width="33" height="45" viewBox="0 0 33 45" fill="none" xmlns="http://www.w3.org/2000/svg">
<mask id="path-1-inside-1" fill="white">
<path fill-rule="evenodd" clip-rule="evenodd" d="M22.2104 27.1525C23.345 25.3353 24 23.1926 24 20.8983C24 14.3271 18.6274 9 12 9C5.37258 9 0 14.3271 0 20.8983C0 23.1926 0.654944 25.3353 1.78957 27.1525H1.60769L12 45L22.3923 27.1525H22.2104Z"/>
</mask>
<path fill-rule="evenodd" clip-rule="evenodd" d="M22.2104 27.1525C23.345 25.3353 24 23.1926 24 20.8983C24 14.3271 18.6274 9 12 9C5.37258 9 0 14.3271 0 20.8983C0 23.1926 0.654944 25.3353 1.78957 27.1525H1.60769L12 45L22.3923 27.1525H22.2104Z" fill="url(#paint0_linear)"/>
<path d="M22.2104 27.1525L21.3622 26.6229L20.4071 28.1525H22.2104V27.1525ZM1.78957 27.1525V28.1525H3.59286L2.63781 26.6229L1.78957 27.1525ZM1.60769 27.1525V26.1525H-0.131773L0.743514 27.6557L1.60769 27.1525ZM12 45L11.1358 45.5032L12 46.9873L12.8642 45.5032L12 45ZM22.3923 27.1525L23.2565 27.6557L24.1318 26.1525H22.3923V27.1525ZM23 20.8983C23 22.9996 22.4008 24.9596 21.3622 26.6229L23.0587 27.6822C24.2893 25.7111 25 23.3857 25 20.8983H23ZM12 10C18.0832 10 23 14.8873 23 20.8983H25C25 13.7668 19.1717 8 12 8V10ZM1 20.8983C1 14.8873 5.91683 10 12 10V8C4.82834 8 -1 13.7668 -1 20.8983H1ZM2.63781 26.6229C1.59924 24.9596 1 22.9996 1 20.8983H-1C-1 23.3857 -0.289352 25.7111 0.941332 27.6822L2.63781 26.6229ZM1.60769 28.1525H1.78957V26.1525H1.60769V28.1525ZM12.8642 44.4968L2.47186 26.6493L0.743514 27.6557L11.1358 45.5032L12.8642 44.4968ZM21.5281 26.6493L11.1358 44.4968L12.8642 45.5032L23.2565 27.6557L21.5281 26.6493ZM22.2104 28.1525H22.3923V26.1525H22.2104V28.1525Z" fill="white" mask="url(#path-1-inside-1)"/>
<path d="M12.2935 16.9858C13.7401 16.9858 14.8508 17.2425 15.6255 17.7558C16.4001 18.2598 16.7875 19.0905 16.7875 20.2478C16.7875 21.4145 16.3955 22.2591 15.6115 22.7818C14.8275 23.2951 13.7075 23.5518 12.2515 23.5518H11.5655V26.7998H9.38147V17.2378C9.85747 17.1445 10.3615 17.0791 10.8935 17.0418C11.4255 17.0045 11.8921 16.9858 12.2935 16.9858ZM12.4335 18.8478C12.2748 18.8478 12.1161 18.8525 11.9575 18.8618C11.8081 18.8711 11.6775 18.8805 11.5655 18.8898V21.6898H12.2515C13.0075 21.6898 13.5768 21.5871 13.9595 21.3818C14.3421 21.1765 14.5335 20.7938 14.5335 20.2338C14.5335 19.9631 14.4821 19.7391 14.3795 19.5618C14.2861 19.3845 14.1461 19.2445 13.9595 19.1418C13.7821 19.0298 13.5628 18.9551 13.3015 18.9178C13.0401 18.8711 12.7508 18.8478 12.4335 18.8478Z" fill="white"/>
<path d="M24.311 0.725932L24.311 0.725936L24.3124 0.728604L32.4358 16.7228C32.4361 16.7233 32.4364 16.7239 32.4366 16.7244C32.5273 16.9082 32.5153 17.1156 32.4345 17.2749C32.3537 17.4339 32.2333 17.5 32.121 17.5H15.879C15.7667 17.5 15.6463 17.4339 15.5655 17.2749C15.4847 17.1156 15.4727 16.9082 15.5634 16.7244C15.5636 16.7239 15.5639 16.7233 15.5642 16.7228L23.6876 0.728604L23.6876 0.728608L23.689 0.725932C23.7289 0.646107 23.7825 0.588109 23.8377 0.551503C23.8923 0.515397 23.948 0.5 24 0.5C24.052 0.5 24.1078 0.515397 24.1623 0.551503C24.2175 0.588109 24.2711 0.646107 24.311 0.725932ZM22.6279 11.0009C22.6279 11.7592 23.1806 12.4932 23.9918 12.5007C23.1806 12.5082 22.6279 13.2422 22.6279 14.0005C22.6279 14.7627 23.1863 15.5004 24.0044 15.5004C24.8224 15.5004 25.3809 14.7627 25.3809 14.0005C25.3809 13.2422 24.8282 12.5082 24.017 12.5007C24.8282 12.4932 25.3809 11.7592 25.3809 11.0009V8.00125C25.3809 7.23905 24.8224 6.50137 24.0044 6.50137C23.1863 6.50137 22.6279 7.23905 22.6279 8.00125V11.0009Z" fill="#CF2404" stroke="white"/>
<defs>
<linearGradient id="paint0_linear" x1="12" y1="45" x2="12" y2="21.2034" gradientUnits="userSpaceOnUse">
<stop stop-color="#49B9E4"/>
<stop offset="1" stop-color="#4587E1"/>
</linearGradient>
</defs>
</svg>
