<svg width="151" height="20" viewBox="0 0 151 20" fill="none" xmlns="http://www.w3.org/2000/svg">
<path d="M140.993 3.33331C137.315 3.33331 134.333 6.31531 134.333 9.99331C134.333 12.8146 136.089 15.2266 138.567 16.1973C138.508 15.6706 138.456 14.86 138.589 14.2853C138.711 13.7653 139.371 10.9746 139.371 10.9746C139.371 10.9746 139.171 10.5753 139.171 9.98531C139.171 9.05998 139.708 8.36865 140.377 8.36865C140.945 8.36865 141.219 8.79531 141.219 9.30665C141.219 9.87865 140.855 10.7326 140.668 11.5246C140.511 12.1873 141.001 12.728 141.654 12.728C142.837 12.728 143.748 11.48 143.748 9.67798C143.748 8.08331 142.602 6.96865 140.966 6.96865C139.071 6.96865 137.958 8.38998 137.958 9.85865C137.958 10.4306 138.179 11.0446 138.454 11.3786C138.477 11.4038 138.494 11.4346 138.502 11.468C138.51 11.5013 138.509 11.5363 138.5 11.5693C138.449 11.7793 138.337 12.232 138.315 12.3246C138.286 12.4466 138.219 12.4726 138.092 12.414C137.261 12.0266 136.741 10.8106 136.741 9.83331C136.741 7.73265 138.267 5.80331 141.141 5.80331C143.452 5.80331 145.247 7.44931 145.247 9.64998C145.247 11.946 143.8 13.792 141.791 13.792C141.116 13.792 140.482 13.442 140.265 13.028L139.849 14.6106C139.699 15.1893 139.293 15.9146 139.022 16.3573C139.661 16.5545 140.325 16.6545 140.994 16.654C144.672 16.654 147.654 13.672 147.654 9.99398C147.654 6.31598 144.671 3.33331 140.993 3.33331Z" fill="#4587E1"/>
<path d="M118.395 6.80198C118.319 6.52025 118.171 6.26332 117.965 6.05676C117.759 5.85021 117.502 5.70122 117.221 5.62465C116.177 5.33798 112 5.33332 112 5.33332C112 5.33332 107.824 5.32865 106.779 5.60265C106.498 5.68275 106.242 5.83384 106.036 6.04141C105.83 6.24898 105.68 6.50607 105.602 6.78798C105.327 7.83198 105.324 9.99732 105.324 9.99732C105.324 9.99732 105.321 12.1733 105.595 13.2067C105.748 13.778 106.198 14.2293 106.77 14.3833C107.825 14.67 111.99 14.6747 111.99 14.6747C111.99 14.6747 116.167 14.6793 117.211 14.406C117.492 14.3295 117.749 14.1809 117.956 13.9748C118.162 13.7686 118.312 13.5121 118.389 13.2307C118.665 12.1873 118.667 10.0227 118.667 10.0227C118.667 10.0227 118.68 7.84598 118.395 6.80198ZM110.664 12.0033L110.667 8.00332L114.139 10.0067L110.664 12.0033Z" fill="#4587E1"/>
<path d="M84.5001 5.97344C84.022 6.17969 83.5017 6.32813 82.9657 6.38594C83.5221 6.05537 83.9388 5.53313 84.1376 4.91719C83.6155 5.2278 83.0435 5.44561 82.447 5.56094C82.1977 5.29442 81.8961 5.0821 81.5612 4.93721C81.2262 4.79231 80.865 4.71795 80.5001 4.71876C79.0235 4.71876 77.836 5.91563 77.836 7.38438C77.836 7.59063 77.861 7.79688 77.9017 7.99532C75.6907 7.87969 73.7188 6.82344 72.4079 5.20626C72.169 5.61425 72.0439 6.0788 72.0454 6.55157C72.0454 7.47657 72.5157 8.29219 73.2329 8.77188C72.8103 8.75524 72.3975 8.63907 72.0282 8.43282V8.46563C72.0282 9.76094 72.9438 10.8344 74.1642 11.0813C73.935 11.1408 73.6993 11.1712 73.4626 11.1719C73.2892 11.1719 73.1251 11.1547 72.9595 11.1313C73.297 12.1875 74.2798 12.9547 75.4501 12.9797C74.5345 13.6969 73.3876 14.1188 72.1423 14.1188C71.9188 14.1188 71.7126 14.1109 71.4985 14.0859C72.6798 14.8438 74.0813 15.2813 75.5907 15.2813C80.4907 15.2813 83.172 11.2219 83.172 7.69844C83.172 7.58282 83.172 7.46719 83.1642 7.35157C83.6829 6.97188 84.1376 6.50157 84.5001 5.97344Z" fill="#4587E1"/>
<path d="M44.0463 6.7953C42.2647 6.7953 40.8268 8.22655 40.8268 9.99999C40.8268 11.7734 42.2647 13.2047 44.0463 13.2047C45.828 13.2047 47.2658 11.7734 47.2658 9.99999C47.2658 8.22655 45.828 6.7953 44.0463 6.7953ZM44.0463 12.0828C42.8941 12.0828 41.9539 11.1469 41.9539 9.99999C41.9539 8.85311 42.8941 7.91718 44.0463 7.91718C45.1985 7.91718 46.1388 8.85311 46.1388 9.99999C46.1388 11.1469 45.1985 12.0828 44.0463 12.0828ZM47.3977 5.91718C46.9817 5.91718 46.6458 6.25155 46.6458 6.66561C46.6458 7.07968 46.9817 7.41405 47.3977 7.41405C47.8137 7.41405 48.1496 7.08124 48.1496 6.66561C48.1497 6.56729 48.1304 6.46991 48.0926 6.37905C48.0549 6.28819 47.9995 6.20564 47.9296 6.13611C47.8598 6.06659 47.7769 6.01147 47.6856 5.9739C47.5943 5.93633 47.4965 5.91705 47.3977 5.91718ZM50.3221 9.99999C50.3221 9.13749 50.33 8.2828 50.2813 7.42186C50.2326 6.42186 50.0035 5.53436 49.2688 4.80311C48.5326 4.0703 47.6426 3.84374 46.6379 3.7953C45.7715 3.74686 44.9128 3.75468 44.0479 3.75468C43.1814 3.75468 42.3227 3.74686 41.4578 3.7953C40.4532 3.84374 39.5616 4.07186 38.827 4.80311C38.0907 5.53593 37.8631 6.42186 37.8145 7.42186C37.7658 8.28436 37.7737 9.13905 37.7737 9.99999C37.7737 10.8609 37.7658 11.7172 37.8145 12.5781C37.8631 13.5781 38.0923 14.4656 38.827 15.1969C39.5632 15.9297 40.4532 16.1562 41.4578 16.2047C42.3243 16.2531 43.183 16.2453 44.0479 16.2453C44.9144 16.2453 45.773 16.2531 46.6379 16.2047C47.6426 16.1562 48.5342 15.9281 49.2688 15.1969C50.005 14.4641 50.2326 13.5781 50.2813 12.5781C50.3315 11.7172 50.3221 10.8625 50.3221 9.99999ZM48.9407 13.6844C48.8262 13.9687 48.688 14.1812 48.4667 14.4C48.2454 14.6203 48.0334 14.7578 47.7477 14.8719C46.9221 15.1984 44.9615 15.125 44.0463 15.125C43.1312 15.125 41.169 15.1984 40.3433 14.8734C40.0576 14.7594 39.8441 14.6219 39.6244 14.4016C39.403 14.1812 39.2649 13.9703 39.1503 13.6859C38.8238 12.8625 38.8976 10.9109 38.8976 9.99999C38.8976 9.08905 38.8238 7.13593 39.1503 6.31405C39.2649 6.02968 39.403 5.81718 39.6244 5.59843C39.8457 5.37968 40.0576 5.24061 40.3433 5.12655C41.169 4.80155 43.1312 4.87499 44.0463 4.87499C44.9615 4.87499 46.9236 4.80155 47.7493 5.12655C48.035 5.24061 48.2485 5.37811 48.4683 5.59843C48.6896 5.81874 48.8277 6.02968 48.9423 6.31405C49.2688 7.13593 49.195 9.08905 49.195 9.99999C49.195 10.9109 49.2688 12.8625 48.9407 13.6844Z" fill="#4587E1"/>
<path d="M10.3731 15.1231V10.0006H12.1013L12.3581 7.99498H10.3731V6.71748C10.3731 6.13873 10.5344 5.74248 11.365 5.74248H12.4175V3.95436C11.9054 3.89948 11.3907 3.87298 10.8756 3.87498C9.34815 3.87498 8.2994 4.80748 8.2994 6.51936V7.99123H6.58252V9.99686H8.30315V15.1231H10.3731Z" fill="#4587E1"/>
</svg>
