<svg width="24" height="36" viewBox="0 0 24 36" fill="none" xmlns="http://www.w3.org/2000/svg">
<mask id="path-1-inside-1" fill="white">
<path fill-rule="evenodd" clip-rule="evenodd" d="M22.2104 18.1525C23.345 16.3353 24 14.1926 24 11.8983C24 5.32705 18.6274 0 12 0C5.37258 0 0 5.32705 0 11.8983C0 14.1926 0.654944 16.3353 1.78957 18.1525H1.60769L12 36L22.3923 18.1525H22.2104Z"/>
</mask>
<path fill-rule="evenodd" clip-rule="evenodd" d="M22.2104 18.1525C23.345 16.3353 24 14.1926 24 11.8983C24 5.32705 18.6274 0 12 0C5.37258 0 0 5.32705 0 11.8983C0 14.1926 0.654944 16.3353 1.78957 18.1525H1.60769L12 36L22.3923 18.1525H22.2104Z" fill="url(#paint0_linear)"/>
<path d="M22.2104 18.1525L21.3622 17.6229L20.4071 19.1525H22.2104V18.1525ZM1.78957 18.1525V19.1525H3.59286L2.63781 17.6229L1.78957 18.1525ZM1.60769 18.1525V17.1525H-0.131773L0.743514 18.6557L1.60769 18.1525ZM12 36L11.1358 36.5032L12 37.9873L12.8642 36.5032L12 36ZM22.3923 18.1525L23.2565 18.6557L24.1318 17.1525H22.3923V18.1525ZM23 11.8983C23 13.9996 22.4008 15.9596 21.3622 17.6229L23.0587 18.6822C24.2893 16.7111 25 14.3857 25 11.8983H23ZM12 1C18.0832 1 23 5.88734 23 11.8983H25C25 4.76676 19.1717 -1 12 -1V1ZM1 11.8983C1 5.88734 5.91683 1 12 1V-1C4.82834 -1 -1 4.76676 -1 11.8983H1ZM2.63781 17.6229C1.59924 15.9596 1 13.9996 1 11.8983H-1C-1 14.3857 -0.289352 16.7111 0.941332 18.6822L2.63781 17.6229ZM1.60769 19.1525H1.78957V17.1525H1.60769V19.1525ZM12.8642 35.4968L2.47186 17.6493L0.743514 18.6557L11.1358 36.5032L12.8642 35.4968ZM21.5281 17.6493L11.1358 35.4968L12.8642 36.5032L23.2565 18.6557L21.5281 17.6493ZM22.2104 19.1525H22.3923V17.1525H22.2104V19.1525Z" fill="white" mask="url(#path-1-inside-1)"/>
<path d="M12.2935 7.98605C13.7401 7.98605 14.8508 8.24272 15.6255 8.75605C16.4001 9.26005 16.7875 10.0907 16.7875 11.248C16.7875 12.4147 16.3955 13.2594 15.6115 13.782C14.8275 14.2954 13.7075 14.552 12.2515 14.552H11.5655V17.8H9.38147V8.23805C9.85747 8.14472 10.3615 8.07938 10.8935 8.04205C11.4255 8.00472 11.8921 7.98605 12.2935 7.98605ZM12.4335 9.84805C12.2748 9.84805 12.1161 9.85272 11.9575 9.86205C11.8081 9.87138 11.6775 9.88072 11.5655 9.89005V12.69H12.2515C13.0075 12.69 13.5768 12.5874 13.9595 12.382C14.3421 12.1767 14.5335 11.794 14.5335 11.234C14.5335 10.9634 14.4821 10.7394 14.3795 10.562C14.2861 10.3847 14.1461 10.2447 13.9595 10.142C13.7821 10.03 13.5628 9.95538 13.3015 9.91805C13.0401 9.87138 12.7508 9.84805 12.4335 9.84805Z" fill="white"/>
<defs>
<linearGradient id="paint0_linear" x1="12" y1="36" x2="12" y2="12.2034" gradientUnits="userSpaceOnUse">
<stop stop-color="#49B9E4"/>
<stop offset="1" stop-color="#4587E1"/>
</linearGradient>
</defs>
</svg>
