<svg width="20" height="20" viewBox="0 0 20 20" fill="none" xmlns="http://www.w3.org/2000/svg">
<path d="M16.3953 6.80198C16.3194 6.52025 16.171 6.26332 15.9649 6.05676C15.7588 5.85021 15.5022 5.70122 15.2206 5.62465C14.1766 5.33798 9.99998 5.33332 9.99998 5.33332C9.99998 5.33332 5.82398 5.32865 4.77931 5.60265C4.49793 5.68275 4.24186 5.83384 4.03569 6.04141C3.82952 6.24898 3.68017 6.50607 3.60198 6.78798C3.32664 7.83198 3.32398 9.99732 3.32398 9.99732C3.32398 9.99732 3.32131 12.1733 3.59464 13.2067C3.74798 13.778 4.19798 14.2293 4.76998 14.3833C5.82464 14.67 9.98998 14.6747 9.98998 14.6747C9.98998 14.6747 14.1666 14.6793 15.2106 14.406C15.4923 14.3295 15.7491 14.1809 15.9557 13.9748C16.1623 13.7686 16.3116 13.5121 16.3886 13.2307C16.6646 12.1873 16.6666 10.0227 16.6666 10.0227C16.6666 10.0227 16.68 7.84598 16.3953 6.80198ZM8.66398 12.0033L8.66731 8.00332L12.1386 10.0067L8.66398 12.0033Z" fill="#4587E1"/>
</svg>
