<svg width="196" height="40" viewBox="0 0 196 40" fill="none" xmlns="http://www.w3.org/2000/svg">
<rect width="196" height="40" rx="10" fill="url(#paint0_linear)"/>
<path d="M71.9278 25.8396C71.8104 25.4556 71.6771 25.0609 71.5278 24.6556C71.3891 24.2503 71.2504 23.8449 71.1118 23.4396L66.7918 23.4396C66.6531 23.8449 66.5091 24.2503 66.3598 24.6556C66.2211 25.0609 66.0931 25.4556 65.9758 25.8396L63.3838 25.8396C63.7998 24.6449 64.1944 23.5409 64.5678 22.5276C64.9411 21.5143 65.3038 20.5596 65.6558 19.6636C66.0184 18.7676 66.3704 17.9196 66.7118 17.1196C67.0638 16.3089 67.4264 15.5196 67.7998 14.7516L70.1838 14.7516C70.5464 15.5196 70.9038 16.3089 71.2558 17.1196C71.6078 17.9196 71.9598 18.7676 72.3118 19.6636C72.6744 20.5596 73.0424 21.5143 73.4158 22.5276C73.7891 23.5409 74.1838 24.6449 74.5998 25.8396L71.9278 25.8396ZM68.9358 17.2636C68.8824 17.4236 68.8024 17.6423 68.6958 17.9196C68.5891 18.1969 68.4664 18.5169 68.3278 18.8796C68.1891 19.2423 68.0344 19.6423 67.8638 20.0796C67.7038 20.5169 67.5384 20.9756 67.3678 21.4556L70.5198 21.4556C70.3491 20.9756 70.1838 20.5169 70.0238 20.0796C69.8638 19.6423 69.7091 19.2423 69.5598 18.8796C69.4211 18.5169 69.2984 18.1969 69.1918 17.9196C69.0851 17.6423 68.9998 17.4236 68.9358 17.2636ZM78.0551 21.5676C78.0551 22.3036 78.2205 22.8956 78.5511 23.3436C78.8818 23.7916 79.3725 24.0156 80.0231 24.0156C80.2365 24.0156 80.4338 24.0103 80.6151 23.9996C80.7965 23.9783 80.9458 23.9569 81.0631 23.9356L81.0631 19.5996C80.9138 19.5036 80.7165 19.4236 80.4711 19.3596C80.2365 19.2956 79.9965 19.2636 79.7511 19.2636C78.6205 19.2636 78.0551 20.0316 78.0551 21.5676ZM83.4471 25.5676C83.2338 25.6316 82.9885 25.6956 82.7111 25.7596C82.4338 25.8129 82.1405 25.8609 81.8311 25.9036C81.5325 25.9463 81.2231 25.9783 80.9031 25.9996C80.5938 26.0316 80.2951 26.0476 80.0071 26.0476C79.3138 26.0476 78.6951 25.9463 78.1511 25.7436C77.6071 25.5409 77.1485 25.2529 76.7751 24.8796C76.4018 24.4956 76.1138 24.0369 75.9111 23.5036C75.7191 22.9596 75.6231 22.3516 75.6231 21.6796C75.6231 20.9969 75.7085 20.3836 75.8791 19.8396C76.0498 19.2849 76.2951 18.8156 76.6151 18.4316C76.9351 18.0476 77.3245 17.7543 77.7831 17.5516C78.2525 17.3489 78.7858 17.2476 79.3831 17.2476C79.7138 17.2476 80.0071 17.2796 80.2631 17.3436C80.5298 17.4076 80.7965 17.4983 81.0631 17.6156L81.0631 13.8076L83.4471 13.4236L83.4471 25.5676ZM88.0314 21.5676C88.0314 22.3036 88.1967 22.8956 88.5274 23.3436C88.858 23.7916 89.3487 24.0156 89.9994 24.0156C90.2127 24.0156 90.41 24.0103 90.5914 23.9996C90.7727 23.9783 90.922 23.9569 91.0394 23.9356L91.0394 19.5996C90.89 19.5036 90.6927 19.4236 90.4474 19.3596C90.2127 19.2956 89.9727 19.2636 89.7274 19.2636C88.5967 19.2636 88.0314 20.0316 88.0314 21.5676ZM93.4234 25.5676C93.21 25.6316 92.9647 25.6956 92.6874 25.7596C92.41 25.8129 92.1167 25.8609 91.8074 25.9036C91.5087 25.9463 91.1994 25.9783 90.8794 25.9996C90.57 26.0316 90.2714 26.0476 89.9834 26.0476C89.29 26.0476 88.6714 25.9463 88.1274 25.7436C87.5834 25.5409 87.1247 25.2529 86.7514 24.8796C86.378 24.4956 86.09 24.0369 85.8874 23.5036C85.6954 22.9596 85.5994 22.3516 85.5994 21.6796C85.5994 20.9969 85.6847 20.3836 85.8554 19.8396C86.026 19.2849 86.2714 18.8156 86.5914 18.4316C86.9114 18.0476 87.3007 17.7543 87.7594 17.5516C88.2287 17.3489 88.762 17.2476 89.3594 17.2476C89.69 17.2476 89.9834 17.2796 90.2394 17.3436C90.506 17.4076 90.7727 17.4983 91.0394 17.6156L91.0394 13.8076L93.4234 13.4236L93.4234 25.5676ZM103.323 23.9356C103.675 23.9356 103.963 23.9089 104.187 23.8556C104.422 23.7916 104.609 23.7116 104.747 23.6156C104.886 23.5089 104.982 23.3863 105.035 23.2476C105.089 23.1089 105.115 22.9543 105.115 22.7836C105.115 22.4209 104.945 22.1223 104.603 21.8876C104.262 21.6423 103.675 21.3809 102.843 21.1036C102.481 20.9756 102.118 20.8316 101.755 20.6716C101.393 20.5009 101.067 20.2929 100.779 20.0476C100.491 19.7916 100.257 19.4876 100.075 19.1356C99.894 18.7729 99.8034 18.3356 99.8034 17.8236C99.8034 17.3116 99.8994 16.8529 100.091 16.4476C100.283 16.0316 100.555 15.6796 100.907 15.3916C101.259 15.1036 101.686 14.8849 102.187 14.7356C102.689 14.5756 103.254 14.4956 103.883 14.4956C104.63 14.4956 105.275 14.5756 105.819 14.7356C106.363 14.8956 106.811 15.0716 107.163 15.2636L106.443 17.2316C106.134 17.0716 105.787 16.9329 105.403 16.8156C105.03 16.6876 104.577 16.6236 104.043 16.6236C103.446 16.6236 103.014 16.7089 102.747 16.8796C102.491 17.0396 102.363 17.2903 102.363 17.6316C102.363 17.8343 102.411 18.0049 102.507 18.1436C102.603 18.2823 102.737 18.4103 102.907 18.5276C103.089 18.6343 103.291 18.7356 103.515 18.8316C103.75 18.9169 104.006 19.0076 104.283 19.1036C104.859 19.3169 105.361 19.5303 105.787 19.7436C106.214 19.9463 106.566 20.1863 106.843 20.4636C107.131 20.7409 107.345 21.0663 107.483 21.4396C107.622 21.8129 107.691 22.2663 107.691 22.7996C107.691 23.8343 107.329 24.6396 106.603 25.2156C105.878 25.7809 104.785 26.0636 103.323 26.0636C102.833 26.0636 102.39 26.0316 101.995 25.9676C101.601 25.9143 101.249 25.8449 100.939 25.7596C100.641 25.6743 100.379 25.5836 100.155 25.4876C99.942 25.3916 99.7607 25.3009 99.6114 25.2156L100.315 23.2316C100.646 23.4129 101.051 23.5783 101.531 23.7276C102.022 23.8663 102.619 23.9356 103.323 23.9356ZM115.164 21.6956C115.164 20.9596 114.999 20.3729 114.668 19.9356C114.337 19.4876 113.847 19.2636 113.196 19.2636C112.983 19.2636 112.785 19.2743 112.604 19.2956C112.423 19.3063 112.273 19.3223 112.156 19.3436L112.156 23.6476C112.305 23.7436 112.497 23.8236 112.732 23.8876C112.977 23.9516 113.223 23.9836 113.468 23.9836C114.599 23.9836 115.164 23.2209 115.164 21.6956ZM117.596 21.6316C117.596 22.2823 117.516 22.8743 117.356 23.4076C117.196 23.9409 116.961 24.3996 116.652 24.7836C116.343 25.1676 115.959 25.4663 115.5 25.6796C115.041 25.8929 114.513 25.9996 113.916 25.9996C113.585 25.9996 113.276 25.9676 112.988 25.9036C112.7 25.8396 112.423 25.7489 112.156 25.6316L112.156 28.7996L109.772 28.7996L109.772 17.7116C109.985 17.6476 110.231 17.5889 110.508 17.5356C110.785 17.4716 111.073 17.4183 111.372 17.3756C111.681 17.3329 111.991 17.3009 112.3 17.2796C112.62 17.2476 112.924 17.2316 113.212 17.2316C113.905 17.2316 114.524 17.3383 115.068 17.5516C115.612 17.7543 116.071 18.0476 116.444 18.4316C116.817 18.8049 117.1 19.2636 117.292 19.8076C117.495 20.3516 117.596 20.9596 117.596 21.6316ZM127.62 21.6156C127.62 22.2769 127.524 22.8849 127.332 23.4396C127.14 23.9836 126.863 24.4529 126.5 24.8476C126.137 25.2316 125.7 25.5303 125.188 25.7436C124.687 25.9569 124.121 26.0636 123.492 26.0636C122.873 26.0636 122.308 25.9569 121.796 25.7436C121.295 25.5303 120.863 25.2316 120.5 24.8476C120.137 24.4529 119.855 23.9836 119.652 23.4396C119.449 22.8849 119.348 22.2769 119.348 21.6156C119.348 20.9543 119.449 20.3516 119.652 19.8076C119.865 19.2636 120.153 18.7996 120.516 18.4156C120.889 18.0316 121.327 17.7329 121.828 17.5196C122.34 17.3063 122.895 17.1996 123.492 17.1996C124.1 17.1996 124.655 17.3063 125.156 17.5196C125.668 17.7329 126.105 18.0316 126.468 18.4156C126.831 18.7996 127.113 19.2636 127.316 19.8076C127.519 20.3516 127.62 20.9543 127.62 21.6156ZM125.188 21.6156C125.188 20.8796 125.039 20.3036 124.74 19.8876C124.452 19.4609 124.036 19.2476 123.492 19.2476C122.948 19.2476 122.527 19.4609 122.228 19.8876C121.929 20.3036 121.78 20.8796 121.78 21.6156C121.78 22.3516 121.929 22.9383 122.228 23.3756C122.527 23.8023 122.948 24.0156 123.492 24.0156C124.036 24.0156 124.452 23.8023 124.74 23.3756C125.039 22.9383 125.188 22.3516 125.188 21.6156ZM129.707 15.3276L132.091 14.9436L132.091 17.4236L134.955 17.4236L134.955 19.4076L132.091 19.4076L132.091 22.3676C132.091 22.8689 132.176 23.2689 132.347 23.5676C132.528 23.8663 132.886 24.0156 133.419 24.0156C133.675 24.0156 133.936 23.9943 134.203 23.9516C134.48 23.8983 134.731 23.8289 134.955 23.7436L135.291 25.5996C135.003 25.7169 134.683 25.8183 134.331 25.9036C133.979 25.9889 133.547 26.0316 133.035 26.0316C132.384 26.0316 131.846 25.9463 131.419 25.7756C130.992 25.5943 130.651 25.3489 130.395 25.0396C130.139 24.7196 129.958 24.3356 129.851 23.8876C129.755 23.4396 129.707 22.9436 129.707 22.3996L129.707 15.3276Z" fill="white"/>
<defs>
<linearGradient id="paint0_linear" x1="98" y1="0" x2="98" y2="40" gradientUnits="userSpaceOnUse">
<stop stop-color="#49BBE4"/>
<stop offset="1" stop-color="#4587E1"/>
</linearGradient>
</defs>
</svg>
