<svg width="40" height="40" viewBox="0 0 40 40" fill="none" xmlns="http://www.w3.org/2000/svg">
<circle cx="20" cy="20" r="19.5" fill="#EDF9FB" stroke="#F5F5F5"/>
<path d="M11.879 27H28.121C28.7959 27 29.2166 26.1701 28.8835 25.5002L20.7582 9.50219C20.6819 9.34964 20.5715 9.22284 20.4384 9.13465C20.3052 9.04645 20.154 9 20 9C19.846 9 19.6948 9.04645 19.5616 9.13465C19.4285 9.22284 19.3181 9.34964 19.2418 9.50219L11.1165 25.5002C10.7834 26.1701 11.2041 27 11.879 27ZM20.0044 21.0007C19.5223 21.0007 19.1279 20.5508 19.1279 20.0009V17.0012C19.1279 16.4513 19.5223 16.0014 20.0044 16.0014C20.4865 16.0014 20.8809 16.4513 20.8809 17.0012V20.0009C20.8809 20.5508 20.4865 21.0007 20.0044 21.0007ZM20.8809 23.0005C20.8809 23.5504 20.4865 24.0004 20.0044 24.0004C19.5223 24.0004 19.1279 23.5504 19.1279 23.0005C19.1279 22.4506 19.5223 22.0006 20.0044 22.0006C20.4865 22.0006 20.8809 22.4506 20.8809 23.0005Z" fill="url(#paint0_linear)"/>
<defs>
<linearGradient id="paint0_linear" x1="20" y1="9" x2="20" y2="27" gradientUnits="userSpaceOnUse">
<stop stop-color="#37D7F1"/>
<stop offset="0.979167" stop-color="#4587E1"/>
<stop offset="1" stop-opacity="0"/>
</linearGradient>
</defs>
</svg>
