<svg width="20" height="20" viewBox="0 0 20 20" fill="none" xmlns="http://www.w3.org/2000/svg">
<path d="M9.99325 3.33331C6.31459 3.33331 3.33325 6.31531 3.33325 9.99331C3.33325 12.8146 5.08859 15.2266 7.56659 16.1973C7.50792 15.6706 7.45592 14.86 7.58925 14.2853C7.71059 13.7653 8.37059 10.9746 8.37059 10.9746C8.37059 10.9746 8.17125 10.5753 8.17125 9.98531C8.17125 9.05998 8.70792 8.36865 9.37659 8.36865C9.94525 8.36865 10.2193 8.79531 10.2193 9.30665C10.2193 9.87865 9.85525 10.7326 9.66792 11.5246C9.51125 12.1873 10.0006 12.728 10.6539 12.728C11.8373 12.728 12.7479 11.48 12.7479 9.67798C12.7479 8.08331 11.6019 6.96865 9.96592 6.96865C8.07059 6.96865 6.95792 8.38998 6.95792 9.85865C6.95792 10.4306 7.17859 11.0446 7.45392 11.3786C7.47732 11.4038 7.49384 11.4346 7.5019 11.468C7.50995 11.5013 7.50927 11.5363 7.49992 11.5693C7.44925 11.7793 7.33659 12.232 7.31525 12.3246C7.28592 12.4466 7.21859 12.4726 7.09192 12.414C6.26059 12.0266 5.74059 10.8106 5.74059 9.83331C5.74059 7.73265 7.26659 5.80331 10.1413 5.80331C12.4519 5.80331 14.2473 7.44931 14.2473 9.64998C14.2473 11.946 12.7999 13.792 10.7913 13.792C10.1159 13.792 9.48192 13.442 9.26459 13.028L8.84925 14.6106C8.69925 15.1893 8.29325 15.9146 8.02192 16.3573C8.66066 16.5545 9.32543 16.6545 9.99392 16.654C13.6719 16.654 16.6539 13.672 16.6539 9.99398C16.6539 6.31598 13.6713 3.33331 9.99325 3.33331Z" fill="#4587E1"/>
</svg>
