<svg width="36" height="36" viewBox="0 0 36 36" fill="none" xmlns="http://www.w3.org/2000/svg">
<path fill-rule="evenodd" clip-rule="evenodd" d="M24.3705 13.25C24.3705 14.9297 23.7037 16.5406 22.5168 17.7284C21.3299 18.9161 19.7201 19.5834 18.0416 19.5834C16.363 19.5834 14.7533 18.9161 13.5663 17.7284C12.3794 16.5406 11.7126 14.9297 11.7126 13.25C11.7126 11.5703 12.3794 9.95941 13.5663 8.77168C14.7533 7.58395 16.363 6.91669 18.0416 6.91669C19.7201 6.91669 21.3299 7.58395 22.5168 8.77168C23.7037 9.95941 24.3705 11.5703 24.3705 13.25ZM21.2061 13.25C21.2061 14.0899 20.8727 14.8953 20.2792 15.4892C19.6857 16.0831 18.8809 16.4167 18.0416 16.4167C17.2023 16.4167 16.3974 16.0831 15.804 15.4892C15.2105 14.8953 14.8771 14.0899 14.8771 13.25C14.8771 12.4102 15.2105 11.6047 15.804 11.0108C16.3974 10.417 17.2023 10.0834 18.0416 10.0834C18.8809 10.0834 19.6857 10.417 20.2792 11.0108C20.8727 11.6047 21.2061 12.4102 21.2061 13.25Z" fill="url(#paint0_linear)"/>
<path fill-rule="evenodd" clip-rule="evenodd" d="M18.0415 0.583344C8.42947 0.583344 0.636963 8.38126 0.636963 18C0.636963 27.6188 8.42947 35.4167 18.0415 35.4167C27.6536 35.4167 35.4461 27.6188 35.4461 18C35.4461 8.38126 27.6536 0.583344 18.0415 0.583344ZM3.80143 18C3.80143 21.3092 4.92956 24.3555 6.82034 26.7748C8.1482 25.0299 9.86123 23.6157 11.8256 22.6428C13.79 21.67 15.9526 21.1648 18.1444 21.1667C20.3078 21.1646 22.4432 21.6568 24.3878 22.6056C26.3324 23.5544 28.0349 24.9349 29.3656 26.6418C30.7365 24.8425 31.6596 22.7424 32.0584 20.5153C32.4572 18.2881 32.3203 15.9979 31.659 13.8342C30.9978 11.6705 29.8311 9.6955 28.2556 8.07257C26.6802 6.44964 24.7411 5.22545 22.599 4.50132C20.4568 3.77718 18.1732 3.5739 15.9369 3.9083C13.7007 4.2427 11.5762 5.10517 9.73919 6.42434C7.90218 7.74352 6.40549 9.48147 5.37295 11.4944C4.34042 13.5073 3.80172 15.7374 3.80143 18ZM18.0415 32.25C14.7726 32.2549 11.6023 31.1296 9.06711 29.0643C10.0875 27.6025 11.4457 26.409 13.0262 25.5853C14.6066 24.7616 16.3625 24.3321 18.1444 24.3333C19.9041 24.3319 21.6387 24.7507 23.2043 25.5548C24.7698 26.3589 26.121 27.5251 27.1457 28.9567C24.5909 31.089 21.3683 32.2547 18.0415 32.25Z" fill="url(#paint1_linear)"/>
<defs>
<linearGradient id="paint0_linear" x1="18.0416" y1="6.91669" x2="18.0416" y2="19.5834" gradientUnits="userSpaceOnUse">
<stop stop-color="#49B9E4"/>
<stop offset="1" stop-color="#4587E1"/>
</linearGradient>
<linearGradient id="paint1_linear" x1="18.0415" y1="0.583344" x2="18.0415" y2="35.4167" gradientUnits="userSpaceOnUse">
<stop stop-color="#49B9E4"/>
<stop offset="1" stop-color="#4587E1"/>
</linearGradient>
</defs>
</svg>
