<svg width="196" height="40" viewBox="0 0 196 40" fill="none" xmlns="http://www.w3.org/2000/svg">
<rect x="1.5" y="1.5" width="193" height="37" rx="8.5" fill="white" stroke="#4587E1" stroke-width="3"/>
<path d="M78.6376 26.2238C76.8349 26.2238 75.4589 25.7224 74.5096 24.7198C73.5709 23.7171 73.1016 22.2931 73.1016 20.4478C73.1016 19.5304 73.2456 18.7144 73.5336 17.9998C73.8216 17.2744 74.2162 16.6664 74.7176 16.1758C75.2189 15.6744 75.8162 15.2958 76.5096 15.0398C77.2029 14.7838 77.9549 14.6558 78.7656 14.6558C79.2349 14.6558 79.6616 14.6931 80.0456 14.7678C80.4296 14.8318 80.7656 14.9118 81.0536 15.0078C81.3416 15.0931 81.5816 15.1838 81.7736 15.2798C81.9656 15.3758 82.1042 15.4504 82.1896 15.5038L81.4696 17.5198C81.1282 17.3384 80.7282 17.1838 80.2696 17.0558C79.8216 16.9278 79.3096 16.8638 78.7336 16.8638C78.3496 16.8638 77.9709 16.9278 77.5976 17.0558C77.2349 17.1838 76.9096 17.3918 76.6216 17.6798C76.3442 17.9571 76.1202 18.3198 75.9496 18.7678C75.7789 19.2158 75.6936 19.7598 75.6936 20.3998C75.6936 20.9118 75.7469 21.3918 75.8536 21.8398C75.9709 22.2771 76.1522 22.6558 76.3976 22.9758C76.6536 23.2958 76.9842 23.5518 77.3896 23.7438C77.7949 23.9251 78.2856 24.0158 78.8616 24.0158C79.2242 24.0158 79.5496 23.9944 79.8376 23.9518C80.1256 23.9091 80.3816 23.8611 80.6056 23.8078C80.8296 23.7438 81.0269 23.6744 81.1976 23.5998C81.3682 23.5251 81.5229 23.4558 81.6616 23.3918L82.3496 25.3918C81.9976 25.6051 81.5016 25.7971 80.8616 25.9678C80.2216 26.1384 79.4802 26.2238 78.6376 26.2238ZM87.4888 24.3358C87.7235 24.3358 87.9475 24.3304 88.1608 24.3198C88.3741 24.3091 88.5448 24.2931 88.6728 24.2718L88.6728 22.4638C88.5768 22.4424 88.4328 22.4211 88.2408 22.3998C88.0488 22.3784 87.8728 22.3678 87.7128 22.3678C87.4888 22.3678 87.2755 22.3838 87.0728 22.4158C86.8808 22.4371 86.7101 22.4851 86.5608 22.5598C86.4115 22.6344 86.2941 22.7358 86.2088 22.8638C86.1235 22.9918 86.0808 23.1518 86.0808 23.3438C86.0808 23.7171 86.2035 23.9784 86.4488 24.1278C86.7048 24.2664 87.0515 24.3358 87.4888 24.3358ZM87.2968 17.3598C88.0008 17.3598 88.5875 17.4398 89.0568 17.5998C89.5261 17.7598 89.8995 17.9891 90.1768 18.2878C90.4648 18.5864 90.6675 18.9491 90.7848 19.3758C90.9021 19.8024 90.9608 20.2771 90.9608 20.7998L90.9608 25.7598C90.6195 25.8344 90.1448 25.9198 89.5368 26.0158C88.9288 26.1224 88.1928 26.1758 87.3288 26.1758C86.7848 26.1758 86.2888 26.1278 85.8408 26.0318C85.4035 25.9358 85.0248 25.7811 84.7048 25.5678C84.3848 25.3438 84.1395 25.0558 83.9688 24.7038C83.7981 24.3518 83.7128 23.9198 83.7128 23.4078C83.7128 22.9171 83.8088 22.5011 84.0008 22.1598C84.2035 21.8184 84.4701 21.5464 84.8008 21.3438C85.1315 21.1411 85.5101 20.9971 85.9368 20.9118C86.3635 20.8158 86.8061 20.7678 87.2648 20.7678C87.5741 20.7678 87.8461 20.7838 88.0808 20.8158C88.3261 20.8371 88.5235 20.8691 88.6728 20.9118L88.6728 20.6878C88.6728 20.2824 88.5501 19.9571 88.3048 19.7118C88.0595 19.4664 87.6328 19.3438 87.0248 19.3438C86.6195 19.3438 86.2195 19.3758 85.8248 19.4398C85.4301 19.4931 85.0888 19.5731 84.8008 19.6798L84.4968 17.7598C84.6355 17.7171 84.8061 17.6744 85.0088 17.6318C85.2221 17.5784 85.4515 17.5358 85.6968 17.5038C85.9421 17.4611 86.1981 17.4291 86.4648 17.4078C86.7421 17.3758 87.0195 17.3598 87.2968 17.3598ZM93.4366 17.8718C93.8419 17.7544 94.3646 17.6478 95.0046 17.5518C95.6446 17.4451 96.3166 17.3918 97.0206 17.3918C97.7352 17.3918 98.3272 17.4878 98.7966 17.6798C99.2766 17.8611 99.6552 18.1224 99.9326 18.4638C100.21 18.8051 100.407 19.2104 100.525 19.6798C100.642 20.1491 100.701 20.6718 100.701 21.2478L100.701 25.9998L98.3166 25.9998L98.3166 21.5358C98.3166 20.7678 98.2152 20.2238 98.0126 19.9038C97.8099 19.5838 97.4312 19.4238 96.8766 19.4238C96.7059 19.4238 96.5246 19.4344 96.3326 19.4558C96.1406 19.4664 95.9699 19.4824 95.8206 19.5038L95.8206 25.9998L93.4366 25.9998L93.4366 17.8718ZM102.778 21.7918C102.778 21.1838 102.874 20.6131 103.066 20.0798C103.269 19.5358 103.557 19.0664 103.93 18.6717C104.304 18.2664 104.757 17.9464 105.29 17.7117C105.824 17.4771 106.432 17.3597 107.114 17.3597C107.562 17.3597 107.973 17.4024 108.346 17.4877C108.72 17.5624 109.082 17.6744 109.434 17.8237L108.938 19.7277C108.714 19.6424 108.469 19.5677 108.202 19.5037C107.936 19.4397 107.637 19.4077 107.306 19.4077C106.602 19.4077 106.074 19.6264 105.722 20.0637C105.381 20.5011 105.21 21.0771 105.21 21.7917C105.21 22.5491 105.37 23.1357 105.69 23.5517C106.021 23.9677 106.592 24.1757 107.402 24.1757C107.69 24.1757 108 24.1491 108.33 24.0957C108.661 24.0424 108.965 23.9571 109.242 23.8397L109.578 25.7917C109.301 25.9091 108.954 26.0104 108.538 26.0957C108.122 26.1811 107.664 26.2237 107.162 26.2237C106.394 26.2237 105.733 26.1117 105.178 25.8878C104.624 25.6531 104.165 25.3384 103.802 24.9438C103.45 24.5491 103.189 24.0851 103.018 23.5518C102.858 23.0078 102.778 22.4211 102.778 21.7918ZM110.692 21.8557C110.692 21.1091 110.804 20.4584 111.028 19.9037C111.263 19.3384 111.567 18.8691 111.94 18.4957C112.314 18.1224 112.74 17.8397 113.22 17.6477C113.711 17.4557 114.212 17.3597 114.724 17.3597C115.919 17.3597 116.863 17.7277 117.556 18.4637C118.25 19.1891 118.596 20.2611 118.596 21.6797C118.596 21.8184 118.591 21.9731 118.58 22.1437C118.57 22.3037 118.559 22.4477 118.548 22.5757L113.14 22.5757C113.194 23.0664 113.423 23.4557 113.828 23.7437C114.234 24.0317 114.778 24.1757 115.46 24.1757C115.898 24.1757 116.324 24.1384 116.74 24.0637C117.167 23.9784 117.514 23.8771 117.78 23.7597L118.1 25.6957C117.972 25.7597 117.802 25.8237 117.588 25.8877C117.375 25.9517 117.135 26.0051 116.868 26.0477C116.612 26.1011 116.335 26.1437 116.036 26.1757C115.738 26.2077 115.439 26.2237 115.14 26.2237C114.383 26.2237 113.722 26.1117 113.156 25.8877C112.602 25.6637 112.138 25.3597 111.764 24.9757C111.402 24.5811 111.13 24.1171 110.948 23.5837C110.778 23.0504 110.692 22.4744 110.692 21.8557ZM116.292 20.9437C116.282 20.7411 116.244 20.5437 116.18 20.3517C116.127 20.1597 116.036 19.9891 115.908 19.8397C115.791 19.6904 115.636 19.5677 115.444 19.4717C115.263 19.3757 115.034 19.3277 114.756 19.3277C114.49 19.3277 114.26 19.3757 114.068 19.4717C113.876 19.5571 113.716 19.6744 113.588 19.8237C113.46 19.9731 113.359 20.1491 113.284 20.3517C113.22 20.5437 113.172 20.7411 113.14 20.9437L116.292 20.9437ZM124.116 26.1597C123.423 26.1491 122.857 26.0744 122.42 25.9357C121.993 25.7971 121.652 25.6051 121.396 25.3597C121.151 25.1037 120.98 24.7997 120.884 24.4477C120.799 24.0851 120.756 23.6797 120.756 23.2317L120.756 13.9677L123.14 13.5837L123.14 22.7517C123.14 22.9651 123.156 23.1571 123.188 23.3277C123.22 23.4984 123.279 23.6424 123.364 23.7597C123.46 23.8771 123.593 23.9731 123.764 24.0477C123.935 24.1224 124.164 24.1704 124.452 24.1917L124.116 26.1597Z" fill="#4587E1"/>
</svg>
