<svg width="40" height="40" viewBox="0 0 40 40" fill="none" xmlns="http://www.w3.org/2000/svg">
<circle cx="20" cy="20" r="19.5" fill="#EDF9FB" stroke="#F5F5F5"/>
<mask id="path-2-inside-1" fill="white">
<path d="M19.7209 7.01746H21.1744V22.2791H19.7209V7.01746Z"/>
</mask>
<path d="M19.7209 7.01746H21.1744V22.2791H19.7209V7.01746Z" fill="white"/>
<path d="M19.7209 7.01746V-7.98254H4.72095V7.01746H19.7209ZM21.1744 7.01746H36.1744V-7.98254H21.1744V7.01746ZM21.1744 22.2791V37.2791H36.1744V22.2791H21.1744ZM19.7209 22.2791H4.72095V37.2791H19.7209V22.2791ZM19.7209 22.0175H21.1744V-7.98254H19.7209V22.0175ZM6.17444 7.01746V22.2791H36.1744V7.01746H6.17444ZM21.1744 7.27911H19.7209V37.2791H21.1744V7.27911ZM34.7209 22.2791V7.01746H4.72095V22.2791H34.7209Z" fill="url(#paint0_linear)" mask="url(#path-2-inside-1)"/>
<mask id="path-4-inside-2" fill="white">
<path d="M24.2995 11.8866L20.4478 8.03487L16.5961 11.8866L15.5786 10.8692L20.4478 6L25.317 10.8692L24.2995 11.8866Z"/>
</mask>
<path d="M24.2995 11.8866L20.4478 8.03487L16.5961 11.8866L15.5786 10.8692L20.4478 6L25.317 10.8692L24.2995 11.8866Z" fill="white"/>
<path d="M24.2995 11.8866L13.6929 22.4932L24.2995 33.0998L34.9061 22.4932L24.2995 11.8866ZM20.4478 8.03487L31.0544 -2.57174L20.4478 -13.1783L9.84119 -2.57174L20.4478 8.03487ZM16.5961 11.8866L5.98947 22.4932L16.5961 33.0998L27.2026 22.4932L16.5961 11.8866ZM15.5786 10.8692L4.97202 0.262547L-5.63462 10.8692L4.97203 21.4758L15.5786 10.8692ZM20.4478 6L31.0544 -4.60661L20.4478 -15.2132L9.84119 -4.60661L20.4478 6ZM25.317 10.8692L35.9235 21.4758L46.5302 10.8692L35.9235 0.262547L25.317 10.8692ZM34.9061 1.27999L31.0544 -2.57174L9.84119 18.6415L13.6929 22.4932L34.9061 1.27999ZM9.84119 -2.57174L5.98946 1.27999L27.2026 22.4932L31.0544 18.6415L9.84119 -2.57174ZM27.2026 1.27998L26.1852 0.262542L4.97203 21.4758L5.98947 22.4932L27.2026 1.27998ZM26.1852 21.4758L31.0544 16.6066L9.84119 -4.60661L4.97202 0.262547L26.1852 21.4758ZM9.84119 16.6066L14.7104 21.4758L35.9235 0.262547L31.0544 -4.60661L9.84119 16.6066ZM14.7104 0.262542L13.6929 1.27998L34.9061 22.4932L35.9235 21.4758L14.7104 0.262542Z" fill="url(#paint1_linear)" mask="url(#path-4-inside-2)"/>
<mask id="path-6-inside-3" fill="white">
<path d="M27.7151 31.0001H13.1802C11.9448 31.0001 11 30.0553 11 28.8198V15.7384C11 14.5029 11.9448 13.5582 13.1802 13.5582H18.2674V15.0117H13.1802C12.7442 15.0117 12.4535 15.3024 12.4535 15.7384V28.8198C12.4535 29.2559 12.7442 29.5466 13.1802 29.5466H27.7151C28.1511 29.5466 28.4418 29.2559 28.4418 28.8198V15.7384C28.4418 15.3024 28.1511 15.0117 27.7151 15.0117H22.6279V13.5582H27.7151C28.9506 13.5582 29.8953 14.5029 29.8953 15.7384V28.8198C29.8953 30.0553 28.9506 31.0001 27.7151 31.0001Z"/>
</mask>
<path d="M27.7151 31.0001H13.1802C11.9448 31.0001 11 30.0553 11 28.8198V15.7384C11 14.5029 11.9448 13.5582 13.1802 13.5582H18.2674V15.0117H13.1802C12.7442 15.0117 12.4535 15.3024 12.4535 15.7384V28.8198C12.4535 29.2559 12.7442 29.5466 13.1802 29.5466H27.7151C28.1511 29.5466 28.4418 29.2559 28.4418 28.8198V15.7384C28.4418 15.3024 28.1511 15.0117 27.7151 15.0117H22.6279V13.5582H27.7151C28.9506 13.5582 29.8953 14.5029 29.8953 15.7384V28.8198C29.8953 30.0553 28.9506 31.0001 27.7151 31.0001Z" fill="white"/>
<path d="M18.2674 13.5582H33.2674V-1.44183H18.2674V13.5582ZM18.2674 15.0117V30.0117H33.2674V15.0117H18.2674ZM22.6279 15.0117H7.62789V30.0117H22.6279V15.0117ZM22.6279 13.5582V-1.44183H7.62789V13.5582H22.6279ZM27.7151 16.0001H13.1802V46.0001H27.7151V16.0001ZM13.1802 16.0001C20.2291 16.0001 26 21.7711 26 28.8198H-4C-4 38.3395 3.66045 46.0001 13.1802 46.0001V16.0001ZM26 28.8198V15.7384H-4V28.8198H26ZM26 15.7384C26 22.7872 20.2291 28.5582 13.1802 28.5582V-1.44183C3.66045 -1.44183 -4 6.21871 -4 15.7384H26ZM13.1802 28.5582H18.2674V-1.44183H13.1802V28.5582ZM3.26743 13.5582V15.0117H33.2674V13.5582H3.26743ZM18.2674 0.0116577H13.1802V30.0117H18.2674V0.0116577ZM13.1802 0.0116577C9.55348 0.0116577 5.36559 1.28605 2.04672 4.60493C-1.27214 7.9238 -2.54651 12.1117 -2.54651 15.7384H27.4535C27.4535 18.9291 26.3245 22.7536 23.26 25.8181C20.1955 28.8826 16.3709 30.0117 13.1802 30.0117V0.0116577ZM-2.54651 15.7384V28.8198H27.4535V15.7384H-2.54651ZM-2.54651 28.8198C-2.54651 32.4465 -1.27214 36.6344 2.04672 39.9533C5.36559 43.2722 9.55348 44.5466 13.1802 44.5466V14.5466C16.3709 14.5466 20.1955 15.6756 23.26 18.7401C26.3245 21.8046 27.4535 25.6291 27.4535 28.8198H-2.54651ZM13.1802 44.5466H27.7151V14.5466H13.1802V44.5466ZM27.7151 44.5466C31.3418 44.5466 35.5297 43.2722 38.8486 39.9533C42.1675 36.6344 43.4418 32.4465 43.4418 28.8198H13.4418C13.4418 25.6291 14.5709 21.8046 17.6354 18.7401C20.6999 15.6756 24.5244 14.5466 27.7151 14.5466V44.5466ZM43.4418 28.8198V15.7384H13.4418V28.8198H43.4418ZM43.4418 15.7384C43.4418 12.1117 42.1675 7.9238 38.8486 4.60493C35.5297 1.28605 31.3418 0.0116577 27.7151 0.0116577V30.0117C24.5244 30.0117 20.6999 28.8826 17.6354 25.8181C14.5709 22.7536 13.4418 18.9291 13.4418 15.7384H43.4418ZM27.7151 0.0116577H22.6279V30.0117H27.7151V0.0116577ZM37.6279 15.0117V13.5582H7.62789V15.0117H37.6279ZM22.6279 28.5582H27.7151V-1.44183H22.6279V28.5582ZM27.7151 28.5582C20.6662 28.5582 14.8953 22.7872 14.8953 15.7384H44.8953C44.8953 6.21871 37.2349 -1.44183 27.7151 -1.44183V28.5582ZM14.8953 15.7384V28.8198H44.8953V15.7384H14.8953ZM14.8953 28.8198C14.8953 21.7711 20.6662 16.0001 27.7151 16.0001V46.0001C37.2349 46.0001 44.8953 38.3395 44.8953 28.8198H14.8953Z" fill="url(#paint2_linear)" mask="url(#path-6-inside-3)"/>
<defs>
<linearGradient id="paint0_linear" x1="20.4477" y1="7.01746" x2="20.4477" y2="22.2791" gradientUnits="userSpaceOnUse">
<stop stop-color="#49BBE4"/>
<stop offset="1" stop-color="#4587E1"/>
</linearGradient>
<linearGradient id="paint1_linear" x1="20.4478" y1="6" x2="20.4478" y2="11.8866" gradientUnits="userSpaceOnUse">
<stop stop-color="#49BBE4"/>
<stop offset="1" stop-color="#4587E1"/>
</linearGradient>
<linearGradient id="paint2_linear" x1="20.4477" y1="13.5582" x2="20.4477" y2="31.0001" gradientUnits="userSpaceOnUse">
<stop stop-color="#49BBE4"/>
<stop offset="1" stop-color="#4587E1"/>
</linearGradient>
</defs>
</svg>
