<svg width="20" height="20" viewBox="0 0 20 20" fill="none" xmlns="http://www.w3.org/2000/svg">
<path d="M10.0463 6.7953C8.26467 6.7953 6.82679 8.22655 6.82679 9.99999C6.82679 11.7734 8.26467 13.2047 10.0463 13.2047C11.828 13.2047 13.2658 11.7734 13.2658 9.99999C13.2658 8.22655 11.828 6.7953 10.0463 6.7953ZM10.0463 12.0828C8.89413 12.0828 7.95386 11.1469 7.95386 9.99999C7.95386 8.85311 8.89413 7.91718 10.0463 7.91718C11.1985 7.91718 12.1388 8.85311 12.1388 9.99999C12.1388 11.1469 11.1985 12.0828 10.0463 12.0828ZM13.3977 5.91718C12.9817 5.91718 12.6458 6.25155 12.6458 6.66561C12.6458 7.07968 12.9817 7.41405 13.3977 7.41405C13.8137 7.41405 14.1496 7.08124 14.1496 6.66561C14.1497 6.56729 14.1304 6.46991 14.0926 6.37905C14.0549 6.28819 13.9995 6.20564 13.9296 6.13611C13.8598 6.06659 13.7769 6.01147 13.6856 5.9739C13.5943 5.93633 13.4965 5.91705 13.3977 5.91718ZM16.3221 9.99999C16.3221 9.13749 16.33 8.2828 16.2813 7.42186C16.2326 6.42186 16.0035 5.53436 15.2688 4.80311C14.5326 4.0703 13.6426 3.84374 12.6379 3.7953C11.7715 3.74686 10.9128 3.75468 10.0479 3.75468C9.18139 3.75468 8.32275 3.74686 7.45783 3.7953C6.4532 3.84374 5.56159 4.07186 4.82695 4.80311C4.09075 5.53593 3.86314 6.42186 3.81447 7.42186C3.76581 8.28436 3.77366 9.13905 3.77366 9.99999C3.77366 10.8609 3.76581 11.7172 3.81447 12.5781C3.86314 13.5781 4.09232 14.4656 4.82695 15.1969C5.56316 15.9297 6.4532 16.1562 7.45783 16.2047C8.32432 16.2531 9.18296 16.2453 10.0479 16.2453C10.9144 16.2453 11.773 16.2531 12.6379 16.2047C13.6426 16.1562 14.5342 15.9281 15.2688 15.1969C16.005 14.4641 16.2326 13.5781 16.2813 12.5781C16.3315 11.7172 16.3221 10.8625 16.3221 9.99999ZM14.9407 13.6844C14.8262 13.9687 14.688 14.1812 14.4667 14.4C14.2454 14.6203 14.0334 14.7578 13.7477 14.8719C12.9221 15.1984 10.9615 15.125 10.0463 15.125C9.13116 15.125 7.16899 15.1984 6.34331 14.8734C6.05762 14.7594 5.84414 14.6219 5.62438 14.4016C5.40304 14.1812 5.26491 13.9703 5.15032 13.6859C4.82381 12.8625 4.89759 10.9109 4.89759 9.99999C4.89759 9.08905 4.82381 7.13593 5.15032 6.31405C5.26491 6.02968 5.40304 5.81718 5.62438 5.59843C5.84571 5.37968 6.05762 5.24061 6.34331 5.12655C7.16899 4.80155 9.13116 4.87499 10.0463 4.87499C10.9615 4.87499 12.9236 4.80155 13.7493 5.12655C14.035 5.24061 14.2485 5.37811 14.4683 5.59843C14.6896 5.81874 14.8277 6.02968 14.9423 6.31405C15.2688 7.13593 15.195 9.08905 15.195 9.99999C15.195 10.9109 15.2688 12.8625 14.9407 13.6844Z" fill="#4587E1"/>
</svg>
