<svg width="223" height="96" viewBox="0 0 223 96" fill="none" xmlns="http://www.w3.org/2000/svg">
<rect x="0.5" y="0.5" width="222" height="95" rx="9.5" fill="white" stroke="#C4C4C4"/>
<path d="M42.6713 23.298V25.16H39.7453V33H37.5613V25.16H34.6353V23.298H42.6713ZM44.2149 33V22.472L46.3009 22.136V25.664C46.4409 25.6173 46.6182 25.5753 46.8329 25.538C47.0569 25.4913 47.2715 25.468 47.4769 25.468C48.0742 25.468 48.5689 25.552 48.9609 25.72C49.3622 25.8787 49.6795 26.1073 49.9129 26.406C50.1555 26.7047 50.3235 27.0593 50.4169 27.47C50.5195 27.8807 50.5709 28.338 50.5709 28.842V33H48.4849V29.094C48.4849 28.422 48.3962 27.946 48.2189 27.666C48.0509 27.386 47.7335 27.246 47.2669 27.246C47.0802 27.246 46.9029 27.2647 46.7349 27.302C46.5762 27.33 46.4315 27.3627 46.3009 27.4V33H44.2149ZM55.553 31.544C55.7584 31.544 55.9544 31.5393 56.141 31.53C56.3277 31.5207 56.477 31.5067 56.589 31.488V29.906C56.505 29.8873 56.379 29.8687 56.211 29.85C56.043 29.8313 55.889 29.822 55.749 29.822C55.553 29.822 55.3664 29.836 55.189 29.864C55.021 29.8827 54.8717 29.9247 54.741 29.99C54.6104 30.0553 54.5077 30.144 54.433 30.256C54.3584 30.368 54.321 30.508 54.321 30.676C54.321 31.0027 54.4284 31.2313 54.643 31.362C54.867 31.4833 55.1704 31.544 55.553 31.544ZM55.385 25.44C56.001 25.44 56.5144 25.51 56.925 25.65C57.3357 25.79 57.6624 25.9907 57.905 26.252C58.157 26.5133 58.3344 26.8307 58.437 27.204C58.5397 27.5773 58.591 27.9927 58.591 28.45V32.79C58.2924 32.8553 57.877 32.93 57.345 33.014C56.813 33.1073 56.169 33.154 55.413 33.154C54.937 33.154 54.503 33.112 54.111 33.028C53.7284 32.944 53.397 32.8087 53.117 32.622C52.837 32.426 52.6224 32.174 52.473 31.866C52.3237 31.558 52.249 31.18 52.249 30.732C52.249 30.3027 52.333 29.9387 52.501 29.64C52.6784 29.3413 52.9117 29.1033 53.201 28.926C53.4904 28.7487 53.8217 28.6227 54.195 28.548C54.5684 28.464 54.9557 28.422 55.357 28.422C55.6277 28.422 55.8657 28.436 56.071 28.464C56.2857 28.4827 56.4584 28.5107 56.589 28.548V28.352C56.589 27.9973 56.4817 27.7127 56.267 27.498C56.0524 27.2833 55.679 27.176 55.147 27.176C54.7924 27.176 54.4424 27.204 54.097 27.26C53.7517 27.3067 53.453 27.3767 53.201 27.47L52.935 25.79C53.0564 25.7527 53.2057 25.7153 53.383 25.678C53.5697 25.6313 53.7704 25.594 53.985 25.566C54.1997 25.5287 54.4237 25.5007 54.657 25.482C54.8997 25.454 55.1424 25.44 55.385 25.44ZM60.7573 25.888C61.112 25.7853 61.5693 25.692 62.1293 25.608C62.6893 25.5147 63.2773 25.468 63.8933 25.468C64.5186 25.468 65.0366 25.552 65.4473 25.72C65.8673 25.8787 66.1986 26.1073 66.4413 26.406C66.684 26.7047 66.8566 27.0593 66.9593 27.47C67.062 27.8807 67.1133 28.338 67.1133 28.842V33H65.0273V29.094C65.0273 28.422 64.9386 27.946 64.7613 27.666C64.584 27.386 64.2526 27.246 63.7673 27.246C63.618 27.246 63.4593 27.2553 63.2913 27.274C63.1233 27.2833 62.974 27.2973 62.8433 27.316V33H60.7573V25.888ZM71.3674 28.296C71.5728 28.072 71.7828 27.8387 71.9974 27.596C72.2214 27.3533 72.4361 27.1153 72.6414 26.882C72.8468 26.6393 73.0381 26.4107 73.2154 26.196C73.4021 25.9813 73.5608 25.7947 73.6914 25.636H76.1694C75.6748 26.2053 75.1894 26.7513 74.7134 27.274C74.2468 27.7873 73.7334 28.3193 73.1734 28.87C73.4534 29.122 73.7428 29.4253 74.0414 29.78C74.3401 30.1253 74.6294 30.4847 74.9094 30.858C75.1894 31.2313 75.4461 31.6047 75.6794 31.978C75.9128 32.3513 76.1088 32.692 76.2674 33H73.8734C73.7241 32.7573 73.5514 32.4913 73.3554 32.202C73.1688 31.9033 72.9681 31.6093 72.7534 31.32C72.5388 31.0213 72.3101 30.7367 72.0674 30.466C71.8341 30.1953 71.6008 29.9667 71.3674 29.78V33H69.2814V22.472L71.3674 22.136V28.296ZM87.8501 25.636C87.4301 27.0547 86.9915 28.3847 86.5341 29.626C86.0768 30.8673 85.5775 32.0713 85.0361 33.238C84.8401 33.658 84.6441 34.0127 84.4481 34.302C84.2521 34.6007 84.0375 34.8433 83.8041 35.03C83.5708 35.226 83.3048 35.366 83.0061 35.45C82.7168 35.5433 82.3761 35.59 81.9841 35.59C81.6575 35.59 81.3541 35.5573 81.0741 35.492C80.8035 35.436 80.5795 35.3707 80.4021 35.296L80.7661 33.63C80.9808 33.7047 81.1721 33.756 81.3401 33.784C81.5081 33.812 81.6855 33.826 81.8721 33.826C82.2455 33.826 82.5301 33.7233 82.7261 33.518C82.9315 33.322 83.1041 33.0467 83.2441 32.692C82.7681 31.7587 82.2921 30.7133 81.8161 29.556C81.3401 28.3893 80.8921 27.0827 80.4721 25.636H82.6841C82.7775 26 82.8848 26.3967 83.0061 26.826C83.1368 27.246 83.2721 27.6753 83.4121 28.114C83.5521 28.5433 83.6921 28.9633 83.8321 29.374C83.9815 29.7847 84.1215 30.158 84.2521 30.494C84.3735 30.158 84.4995 29.7847 84.6301 29.374C84.7608 28.9633 84.8868 28.5433 85.0081 28.114C85.1388 27.6753 85.2601 27.246 85.3721 26.826C85.4935 26.3967 85.6008 26 85.6941 25.636H87.8501ZM95.945 29.304C95.945 29.8827 95.861 30.4147 95.693 30.9C95.525 31.376 95.2823 31.7867 94.965 32.132C94.6477 32.468 94.265 32.7293 93.817 32.916C93.3783 33.1027 92.8837 33.196 92.333 33.196C91.7917 33.196 91.297 33.1027 90.849 32.916C90.4103 32.7293 90.0323 32.468 89.715 32.132C89.3977 31.7867 89.1503 31.376 88.973 30.9C88.7957 30.4147 88.707 29.8827 88.707 29.304C88.707 28.7253 88.7957 28.198 88.973 27.722C89.1597 27.246 89.4117 26.84 89.729 26.504C90.0557 26.168 90.4383 25.9067 90.877 25.72C91.325 25.5333 91.8103 25.44 92.333 25.44C92.865 25.44 93.3503 25.5333 93.789 25.72C94.237 25.9067 94.6197 26.168 94.937 26.504C95.2543 26.84 95.5017 27.246 95.679 27.722C95.8563 28.198 95.945 28.7253 95.945 29.304ZM93.817 29.304C93.817 28.66 93.6863 28.156 93.425 27.792C93.173 27.4187 92.809 27.232 92.333 27.232C91.857 27.232 91.4883 27.4187 91.227 27.792C90.9657 28.156 90.835 28.66 90.835 29.304C90.835 29.948 90.9657 30.4613 91.227 30.844C91.4883 31.2173 91.857 31.404 92.333 31.404C92.809 31.404 93.173 31.2173 93.425 30.844C93.6863 30.4613 93.817 29.948 93.817 29.304ZM104.127 32.748C103.772 32.8507 103.315 32.944 102.755 33.028C102.195 33.1213 101.607 33.168 100.991 33.168C100.366 33.168 99.8429 33.084 99.4229 32.916C99.0122 32.748 98.6856 32.5147 98.4429 32.216C98.2002 31.908 98.0276 31.544 97.9249 31.124C97.8222 30.704 97.7709 30.242 97.7709 29.738V25.636H99.8569V29.486C99.8569 30.158 99.9456 30.6433 100.123 30.942C100.3 31.2407 100.632 31.39 101.117 31.39C101.266 31.39 101.425 31.3853 101.593 31.376C101.761 31.3573 101.91 31.3387 102.041 31.32V25.636H104.127V32.748ZM113.2 22.136C113.592 22.136 113.952 22.178 114.278 22.262C114.605 22.3367 114.857 22.4113 115.034 22.486L114.628 24.152C114.442 24.068 114.236 24.0073 114.012 23.97C113.798 23.9233 113.597 23.9 113.41 23.9C113.158 23.9 112.944 23.9373 112.766 24.012C112.598 24.0773 112.463 24.1707 112.36 24.292C112.267 24.4133 112.197 24.558 112.15 24.726C112.113 24.894 112.094 25.076 112.094 25.272V25.636H114.67V27.372H112.094V33H110.008V25.244C110.008 24.292 110.274 23.536 110.806 22.976C111.348 22.416 112.146 22.136 113.2 22.136ZM122.973 29.304C122.973 29.8827 122.889 30.4147 122.721 30.9C122.553 31.376 122.311 31.7867 121.993 32.132C121.676 32.468 121.293 32.7293 120.845 32.916C120.407 33.1027 119.912 33.196 119.361 33.196C118.82 33.196 118.325 33.1027 117.877 32.916C117.439 32.7293 117.061 32.468 116.743 32.132C116.426 31.7867 116.179 31.376 116.001 30.9C115.824 30.4147 115.735 29.8827 115.735 29.304C115.735 28.7253 115.824 28.198 116.001 27.722C116.188 27.246 116.44 26.84 116.757 26.504C117.084 26.168 117.467 25.9067 117.905 25.72C118.353 25.5333 118.839 25.44 119.361 25.44C119.893 25.44 120.379 25.5333 120.817 25.72C121.265 25.9067 121.648 26.168 121.965 26.504C122.283 26.84 122.53 27.246 122.707 27.722C122.885 28.198 122.973 28.7253 122.973 29.304ZM120.845 29.304C120.845 28.66 120.715 28.156 120.453 27.792C120.201 27.4187 119.837 27.232 119.361 27.232C118.885 27.232 118.517 27.4187 118.255 27.792C117.994 28.156 117.863 28.66 117.863 29.304C117.863 29.948 117.994 30.4613 118.255 30.844C118.517 31.2173 118.885 31.404 119.361 31.404C119.837 31.404 120.201 31.2173 120.453 30.844C120.715 30.4613 120.845 29.948 120.845 29.304ZM129.307 27.484C129.12 27.4373 128.901 27.3907 128.649 27.344C128.397 27.288 128.126 27.26 127.837 27.26C127.706 27.26 127.548 27.274 127.361 27.302C127.184 27.3207 127.048 27.344 126.955 27.372V33H124.869V26.028C125.242 25.8973 125.681 25.776 126.185 25.664C126.698 25.5427 127.268 25.482 127.893 25.482C128.005 25.482 128.14 25.4913 128.299 25.51C128.458 25.5193 128.616 25.538 128.775 25.566C128.934 25.5847 129.092 25.6127 129.251 25.65C129.41 25.678 129.545 25.7153 129.657 25.762L129.307 27.484ZM137.513 31.544C137.718 31.544 137.914 31.5393 138.101 31.53C138.287 31.5207 138.437 31.5067 138.549 31.488V29.906C138.465 29.8873 138.339 29.8687 138.171 29.85C138.003 29.8313 137.849 29.822 137.709 29.822C137.513 29.822 137.326 29.836 137.149 29.864C136.981 29.8827 136.831 29.9247 136.701 29.99C136.57 30.0553 136.467 30.144 136.393 30.256C136.318 30.368 136.281 30.508 136.281 30.676C136.281 31.0027 136.388 31.2313 136.603 31.362C136.827 31.4833 137.13 31.544 137.513 31.544ZM137.345 25.44C137.961 25.44 138.474 25.51 138.885 25.65C139.295 25.79 139.622 25.9907 139.865 26.252C140.117 26.5133 140.294 26.8307 140.397 27.204C140.499 27.5773 140.551 27.9927 140.551 28.45V32.79C140.252 32.8553 139.837 32.93 139.305 33.014C138.773 33.1073 138.129 33.154 137.373 33.154C136.897 33.154 136.463 33.112 136.071 33.028C135.688 32.944 135.357 32.8087 135.077 32.622C134.797 32.426 134.582 32.174 134.433 31.866C134.283 31.558 134.209 31.18 134.209 30.732C134.209 30.3027 134.293 29.9387 134.461 29.64C134.638 29.3413 134.871 29.1033 135.161 28.926C135.45 28.7487 135.781 28.6227 136.155 28.548C136.528 28.464 136.915 28.422 137.317 28.422C137.587 28.422 137.825 28.436 138.031 28.464C138.245 28.4827 138.418 28.5107 138.549 28.548V28.352C138.549 27.9973 138.441 27.7127 138.227 27.498C138.012 27.2833 137.639 27.176 137.107 27.176C136.752 27.176 136.402 27.204 136.057 27.26C135.711 27.3067 135.413 27.3767 135.161 27.47L134.895 25.79C135.016 25.7527 135.165 25.7153 135.343 25.678C135.529 25.6313 135.73 25.594 135.945 25.566C136.159 25.5287 136.383 25.5007 136.617 25.482C136.859 25.454 137.102 25.44 137.345 25.44ZM144.495 29.262C144.495 29.906 144.64 30.424 144.929 30.816C145.218 31.208 145.648 31.404 146.217 31.404C146.404 31.404 146.576 31.3993 146.735 31.39C146.894 31.3713 147.024 31.3527 147.127 31.334V27.54C146.996 27.456 146.824 27.386 146.609 27.33C146.404 27.274 146.194 27.246 145.979 27.246C144.99 27.246 144.495 27.918 144.495 29.262ZM149.213 32.762C149.026 32.818 148.812 32.874 148.569 32.93C148.326 32.9767 148.07 33.0187 147.799 33.056C147.538 33.0933 147.267 33.1213 146.987 33.14C146.716 33.168 146.455 33.182 146.203 33.182C145.596 33.182 145.055 33.0933 144.579 32.916C144.103 32.7387 143.702 32.4867 143.375 32.16C143.048 31.824 142.796 31.4227 142.619 30.956C142.451 30.48 142.367 29.948 142.367 29.36C142.367 28.7627 142.442 28.226 142.591 27.75C142.74 27.2647 142.955 26.854 143.235 26.518C143.515 26.182 143.856 25.9253 144.257 25.748C144.668 25.5707 145.134 25.482 145.657 25.482C145.946 25.482 146.203 25.51 146.427 25.566C146.66 25.622 146.894 25.7013 147.127 25.804V22.472L149.213 22.136V32.762ZM153.224 29.262C153.224 29.906 153.369 30.424 153.658 30.816C153.947 31.208 154.377 31.404 154.946 31.404C155.133 31.404 155.305 31.3993 155.464 31.39C155.623 31.3713 155.753 31.3527 155.856 31.334V27.54C155.725 27.456 155.553 27.386 155.338 27.33C155.133 27.274 154.923 27.246 154.708 27.246C153.719 27.246 153.224 27.918 153.224 29.262ZM157.942 32.762C157.755 32.818 157.541 32.874 157.298 32.93C157.055 32.9767 156.799 33.0187 156.528 33.056C156.267 33.0933 155.996 33.1213 155.716 33.14C155.445 33.168 155.184 33.182 154.932 33.182C154.325 33.182 153.784 33.0933 153.308 32.916C152.832 32.7387 152.431 32.4867 152.104 32.16C151.777 31.824 151.525 31.4227 151.348 30.956C151.18 30.48 151.096 29.948 151.096 29.36C151.096 28.7627 151.171 28.226 151.32 27.75C151.469 27.2647 151.684 26.854 151.964 26.518C152.244 26.182 152.585 25.9253 152.986 25.748C153.397 25.5707 153.863 25.482 154.386 25.482C154.675 25.482 154.932 25.51 155.156 25.566C155.389 25.622 155.623 25.7013 155.856 25.804V22.472L157.942 22.136V32.762ZM162.261 33H160.175V25.636H162.261V33ZM162.457 23.508C162.457 23.8907 162.331 24.194 162.079 24.418C161.837 24.6327 161.547 24.74 161.211 24.74C160.875 24.74 160.581 24.6327 160.329 24.418C160.087 24.194 159.965 23.8907 159.965 23.508C159.965 23.1253 160.087 22.8267 160.329 22.612C160.581 22.388 160.875 22.276 161.211 22.276C161.547 22.276 161.837 22.388 162.079 22.612C162.331 22.8267 162.457 23.1253 162.457 23.508ZM164.502 25.888C164.857 25.7853 165.314 25.692 165.874 25.608C166.434 25.5147 167.022 25.468 167.638 25.468C168.264 25.468 168.782 25.552 169.192 25.72C169.612 25.8787 169.944 26.1073 170.186 26.406C170.429 26.7047 170.602 27.0593 170.704 27.47C170.807 27.8807 170.858 28.338 170.858 28.842V33H168.772V29.094C168.772 28.422 168.684 27.946 168.506 27.666C168.329 27.386 167.998 27.246 167.512 27.246C167.363 27.246 167.204 27.2553 167.036 27.274C166.868 27.2833 166.719 27.2973 166.588 27.316V33H164.502V25.888ZM174.804 29.08C174.804 30.2467 175.276 30.83 176.218 30.83C176.433 30.83 176.634 30.802 176.82 30.746C177.007 30.69 177.166 30.6247 177.296 30.55V27.218C177.194 27.1993 177.072 27.1853 176.932 27.176C176.792 27.1573 176.629 27.148 176.442 27.148C175.892 27.148 175.481 27.33 175.21 27.694C174.94 28.058 174.804 28.52 174.804 29.08ZM179.382 32.076C179.382 33.28 179.074 34.1713 178.458 34.75C177.852 35.338 176.909 35.632 175.63 35.632C175.182 35.632 174.734 35.59 174.286 35.506C173.838 35.4313 173.423 35.3287 173.04 35.198L173.404 33.448C173.731 33.5787 174.072 33.6813 174.426 33.756C174.79 33.8307 175.201 33.868 175.658 33.868C176.256 33.868 176.676 33.7373 176.918 33.476C177.17 33.2147 177.296 32.8787 177.296 32.468V32.202C177.072 32.3047 176.839 32.384 176.596 32.44C176.363 32.4867 176.106 32.51 175.826 32.51C174.809 32.51 174.03 32.2113 173.488 31.614C172.947 31.0073 172.676 30.1627 172.676 29.08C172.676 28.5387 172.76 28.0487 172.928 27.61C173.096 27.162 173.339 26.7793 173.656 26.462C173.983 26.1447 174.38 25.902 174.846 25.734C175.313 25.5567 175.84 25.468 176.428 25.468C176.68 25.468 176.937 25.482 177.198 25.51C177.469 25.5287 177.735 25.5567 177.996 25.594C178.258 25.6313 178.505 25.678 178.738 25.734C178.981 25.7807 179.196 25.832 179.382 25.888V32.076ZM183.761 25.804C183.761 26.56 183.733 27.2647 183.677 27.918C183.621 28.5713 183.546 29.234 183.453 29.906H181.857C181.764 29.234 181.684 28.5713 181.619 27.918C181.563 27.2647 181.535 26.56 181.535 25.804V23.298H183.761V25.804ZM183.943 31.894C183.943 32.3047 183.808 32.622 183.537 32.846C183.276 33.07 182.977 33.182 182.641 33.182C182.305 33.182 182.002 33.07 181.731 32.846C181.47 32.622 181.339 32.3047 181.339 31.894C181.339 31.4833 181.47 31.166 181.731 30.942C182.002 30.718 182.305 30.606 182.641 30.606C182.977 30.606 183.276 30.718 183.537 30.942C183.808 31.166 183.943 31.4833 183.943 31.894Z" fill="url(#paint0_linear)"/>
<rect x="63" y="48" width="95" height="30" rx="10" fill="url(#paint1_linear)"/>
<path d="M96.9521 63.489C96.9521 63.931 97.0041 64.3297 97.1081 64.685C97.2208 65.0403 97.3768 65.348 97.5761 65.608C97.7841 65.8593 98.0355 66.0543 98.3301 66.193C98.6248 66.3317 98.9628 66.401 99.3441 66.401C99.7168 66.401 100.05 66.3317 100.345 66.193C100.648 66.0543 100.9 65.8593 101.099 65.608C101.307 65.348 101.463 65.0403 101.567 64.685C101.68 64.3297 101.736 63.931 101.736 63.489C101.736 63.047 101.68 62.6483 101.567 62.293C101.463 61.929 101.307 61.6213 101.099 61.37C100.9 61.11 100.648 60.9107 100.345 60.772C100.05 60.6333 99.7168 60.564 99.3441 60.564C98.9628 60.564 98.6248 60.6377 98.3301 60.785C98.0355 60.9237 97.7841 61.123 97.5761 61.383C97.3768 61.6343 97.2208 61.942 97.1081 62.306C97.0041 62.6613 96.9521 63.0557 96.9521 63.489ZM103.829 63.489C103.829 64.2603 103.712 64.9407 103.478 65.53C103.253 66.1107 102.941 66.6003 102.542 66.999C102.143 67.389 101.667 67.6837 101.112 67.883C100.566 68.0823 99.9768 68.182 99.3441 68.182C98.7288 68.182 98.1481 68.0823 97.6021 67.883C97.0561 67.6837 96.5795 67.389 96.1721 66.999C95.7648 66.6003 95.4441 66.1107 95.2101 65.53C94.9761 64.9407 94.8591 64.2603 94.8591 63.489C94.8591 62.7177 94.9805 62.0417 95.2231 61.461C95.4658 60.8717 95.7908 60.3777 96.1981 59.979C96.6141 59.5803 97.0908 59.2813 97.6281 59.082C98.1741 58.8827 98.7461 58.783 99.3441 58.783C99.9595 58.783 100.54 58.8827 101.086 59.082C101.632 59.2813 102.109 59.5803 102.516 59.979C102.923 60.3777 103.244 60.8717 103.478 61.461C103.712 62.0417 103.829 62.7177 103.829 63.489ZM107.587 63.632C107.777 63.424 107.972 63.2073 108.172 62.982C108.38 62.7567 108.579 62.5357 108.77 62.319C108.96 62.0937 109.138 61.8813 109.303 61.682C109.476 61.4827 109.623 61.3093 109.745 61.162L112.046 61.162C111.586 61.6907 111.136 62.1977 110.694 62.683C110.26 63.1597 109.784 63.6537 109.264 64.165C109.524 64.399 109.792 64.6807 110.07 65.01C110.347 65.3307 110.616 65.6643 110.876 66.011C111.136 66.3577 111.374 66.7043 111.591 67.051C111.807 67.3977 111.989 67.714 112.137 68L109.914 68C109.775 67.7747 109.615 67.5277 109.433 67.259C109.259 66.9817 109.073 66.7087 108.874 66.44C108.674 66.1627 108.462 65.8983 108.237 65.647C108.02 65.3957 107.803 65.1833 107.587 65.01L107.587 68L105.65 68L105.65 58.224L107.587 57.912L107.587 63.632ZM115.924 66.648C116.115 66.648 116.297 66.6437 116.47 66.635C116.643 66.6263 116.782 66.6133 116.886 66.596L116.886 65.127C116.808 65.1097 116.691 65.0923 116.535 65.075C116.379 65.0577 116.236 65.049 116.106 65.049C115.924 65.049 115.751 65.062 115.586 65.088C115.43 65.1053 115.291 65.1443 115.17 65.205C115.049 65.2657 114.953 65.348 114.884 65.452C114.815 65.556 114.78 65.686 114.78 65.842C114.78 66.1453 114.88 66.3577 115.079 66.479C115.287 66.5917 115.569 66.648 115.924 66.648ZM115.768 60.98C116.34 60.98 116.817 61.045 117.198 61.175C117.579 61.305 117.883 61.4913 118.108 61.734C118.342 61.9767 118.507 62.2713 118.602 62.618C118.697 62.9647 118.745 63.3503 118.745 63.775L118.745 67.805C118.468 67.8657 118.082 67.935 117.588 68.013C117.094 68.0997 116.496 68.143 115.794 68.143C115.352 68.143 114.949 68.104 114.585 68.026C114.23 67.948 113.922 67.8223 113.662 67.649C113.402 67.467 113.203 67.233 113.064 66.947C112.925 66.661 112.856 66.31 112.856 65.894C112.856 65.4953 112.934 65.1573 113.09 64.88C113.255 64.6027 113.471 64.3817 113.74 64.217C114.009 64.0523 114.316 63.9353 114.663 63.866C115.01 63.788 115.369 63.749 115.742 63.749C115.993 63.749 116.214 63.762 116.405 63.788C116.604 63.8053 116.765 63.8313 116.886 63.866L116.886 63.684C116.886 63.3547 116.786 63.0903 116.587 62.891C116.388 62.6917 116.041 62.592 115.547 62.592C115.218 62.592 114.893 62.618 114.572 62.67C114.251 62.7133 113.974 62.7783 113.74 62.865L113.493 61.305C113.606 61.2703 113.744 61.2357 113.909 61.201C114.082 61.1577 114.269 61.123 114.468 61.097C114.667 61.0623 114.875 61.0363 115.092 61.019C115.317 60.993 115.543 60.98 115.768 60.98ZM126.663 61.162C126.273 62.4793 125.865 63.7143 125.441 64.867C125.016 66.0197 124.552 67.1377 124.05 68.221C123.868 68.611 123.686 68.9403 123.504 69.209C123.322 69.4863 123.122 69.7117 122.906 69.885C122.689 70.067 122.442 70.197 122.165 70.275C121.896 70.3617 121.58 70.405 121.216 70.405C120.912 70.405 120.631 70.3747 120.371 70.314C120.119 70.262 119.911 70.2013 119.747 70.132L120.085 68.585C120.284 68.6543 120.462 68.702 120.618 68.728C120.774 68.754 120.938 68.767 121.112 68.767C121.458 68.767 121.723 68.6717 121.905 68.481C122.095 68.299 122.256 68.0433 122.386 67.714C121.944 66.8473 121.502 65.8767 121.06 64.802C120.618 63.7187 120.202 62.5053 119.812 61.162L121.866 61.162C121.952 61.5 122.052 61.8683 122.165 62.267C122.286 62.657 122.412 63.0557 122.542 63.463C122.672 63.8617 122.802 64.2517 122.932 64.633C123.07 65.0143 123.2 65.361 123.322 65.673C123.434 65.361 123.551 65.0143 123.673 64.633C123.794 64.2517 123.911 63.8617 124.024 63.463C124.145 63.0557 124.258 62.657 124.362 62.267C124.474 61.8683 124.574 61.5 124.661 61.162L126.663 61.162Z" fill="white"/>
<defs>
<linearGradient id="paint0_linear" x1="109.5" y1="17" x2="109.5" y2="39" gradientUnits="userSpaceOnUse">
<stop stop-color="#49BBE4"/>
<stop offset="1" stop-color="#4587E1"/>
</linearGradient>
<linearGradient id="paint1_linear" x1="110.5" y1="48" x2="110.5" y2="78" gradientUnits="userSpaceOnUse">
<stop stop-color="#49BBE4"/>
<stop offset="1" stop-color="#4587E1"/>
</linearGradient>
</defs>
</svg>
