<svg width="223" height="96" viewBox="0 0 223 96" fill="none" xmlns="http://www.w3.org/2000/svg">
<rect x="0.5" y="0.5" width="222" height="95" rx="9.5" fill="white" stroke="#C4C4C4"/>
<path d="M30.5481 23.298V25.16H27.6221V33H25.4381V25.16H22.5121V23.298H30.5481ZM32.0918 33V22.472L34.1778 22.136V25.664C34.3178 25.6173 34.4951 25.5753 34.7098 25.538C34.9338 25.4913 35.1484 25.468 35.3538 25.468C35.9511 25.468 36.4458 25.552 36.8378 25.72C37.2391 25.8787 37.5564 26.1073 37.7898 26.406C38.0324 26.7047 38.2004 27.0593 38.2938 27.47C38.3964 27.8807 38.4478 28.338 38.4478 28.842V33H36.3618V29.094C36.3618 28.422 36.2731 27.946 36.0958 27.666C35.9278 27.386 35.6104 27.246 35.1438 27.246C34.9571 27.246 34.7798 27.2647 34.6118 27.302C34.4531 27.33 34.3084 27.3627 34.1778 27.4V33H32.0918ZM43.4299 31.544C43.6352 31.544 43.8312 31.5393 44.0179 31.53C44.2046 31.5207 44.3539 31.5067 44.4659 31.488V29.906C44.3819 29.8873 44.2559 29.8687 44.0879 29.85C43.9199 29.8313 43.7659 29.822 43.6259 29.822C43.4299 29.822 43.2432 29.836 43.0659 29.864C42.8979 29.8827 42.7486 29.9247 42.6179 29.99C42.4872 30.0553 42.3846 30.144 42.3099 30.256C42.2352 30.368 42.1979 30.508 42.1979 30.676C42.1979 31.0027 42.3052 31.2313 42.5199 31.362C42.7439 31.4833 43.0472 31.544 43.4299 31.544ZM43.2619 25.44C43.8779 25.44 44.3912 25.51 44.8019 25.65C45.2126 25.79 45.5392 25.9907 45.7819 26.252C46.0339 26.5133 46.2112 26.8307 46.3139 27.204C46.4166 27.5773 46.4679 27.9927 46.4679 28.45V32.79C46.1692 32.8553 45.7539 32.93 45.2219 33.014C44.6899 33.1073 44.0459 33.154 43.2899 33.154C42.8139 33.154 42.3799 33.112 41.9879 33.028C41.6052 32.944 41.2739 32.8087 40.9939 32.622C40.7139 32.426 40.4992 32.174 40.3499 31.866C40.2006 31.558 40.1259 31.18 40.1259 30.732C40.1259 30.3027 40.2099 29.9387 40.3779 29.64C40.5552 29.3413 40.7886 29.1033 41.0779 28.926C41.3672 28.7487 41.6986 28.6227 42.0719 28.548C42.4452 28.464 42.8326 28.422 43.2339 28.422C43.5046 28.422 43.7426 28.436 43.9479 28.464C44.1626 28.4827 44.3352 28.5107 44.4659 28.548V28.352C44.4659 27.9973 44.3586 27.7127 44.1439 27.498C43.9292 27.2833 43.5559 27.176 43.0239 27.176C42.6692 27.176 42.3192 27.204 41.9739 27.26C41.6286 27.3067 41.3299 27.3767 41.0779 27.47L40.8119 25.79C40.9332 25.7527 41.0826 25.7153 41.2599 25.678C41.4466 25.6313 41.6472 25.594 41.8619 25.566C42.0766 25.5287 42.3006 25.5007 42.5339 25.482C42.7766 25.454 43.0192 25.44 43.2619 25.44ZM48.6342 25.888C48.9888 25.7853 49.4462 25.692 50.0062 25.608C50.5662 25.5147 51.1542 25.468 51.7702 25.468C52.3955 25.468 52.9135 25.552 53.3242 25.72C53.7442 25.8787 54.0755 26.1073 54.3182 26.406C54.5608 26.7047 54.7335 27.0593 54.8362 27.47C54.9388 27.8807 54.9902 28.338 54.9902 28.842V33H52.9042V29.094C52.9042 28.422 52.8155 27.946 52.6382 27.666C52.4608 27.386 52.1295 27.246 51.6442 27.246C51.4948 27.246 51.3362 27.2553 51.1682 27.274C51.0002 27.2833 50.8508 27.2973 50.7202 27.316V33H48.6342V25.888ZM59.2443 28.296C59.4497 28.072 59.6597 27.8387 59.8743 27.596C60.0983 27.3533 60.313 27.1153 60.5183 26.882C60.7237 26.6393 60.915 26.4107 61.0923 26.196C61.279 25.9813 61.4377 25.7947 61.5683 25.636H64.0463C63.5517 26.2053 63.0663 26.7513 62.5903 27.274C62.1237 27.7873 61.6103 28.3193 61.0503 28.87C61.3303 29.122 61.6197 29.4253 61.9183 29.78C62.217 30.1253 62.5063 30.4847 62.7863 30.858C63.0663 31.2313 63.323 31.6047 63.5563 31.978C63.7897 32.3513 63.9857 32.692 64.1443 33H61.7503C61.601 32.7573 61.4283 32.4913 61.2323 32.202C61.0457 31.9033 60.845 31.6093 60.6303 31.32C60.4157 31.0213 60.187 30.7367 59.9443 30.466C59.711 30.1953 59.4777 29.9667 59.2443 29.78V33H57.1583V22.472L59.2443 22.136V28.296ZM75.727 25.636C75.307 27.0547 74.8684 28.3847 74.411 29.626C73.9537 30.8673 73.4544 32.0713 72.913 33.238C72.717 33.658 72.521 34.0127 72.325 34.302C72.129 34.6007 71.9144 34.8433 71.681 35.03C71.4477 35.226 71.1817 35.366 70.883 35.45C70.5937 35.5433 70.253 35.59 69.861 35.59C69.5344 35.59 69.231 35.5573 68.951 35.492C68.6804 35.436 68.4564 35.3707 68.279 35.296L68.643 33.63C68.8577 33.7047 69.049 33.756 69.217 33.784C69.385 33.812 69.5624 33.826 69.749 33.826C70.1224 33.826 70.407 33.7233 70.603 33.518C70.8084 33.322 70.981 33.0467 71.121 32.692C70.645 31.7587 70.169 30.7133 69.693 29.556C69.217 28.3893 68.769 27.0827 68.349 25.636H70.561C70.6544 26 70.7617 26.3967 70.883 26.826C71.0137 27.246 71.149 27.6753 71.289 28.114C71.429 28.5433 71.569 28.9633 71.709 29.374C71.8584 29.7847 71.9984 30.158 72.129 30.494C72.2504 30.158 72.3764 29.7847 72.507 29.374C72.6377 28.9633 72.7637 28.5433 72.885 28.114C73.0157 27.6753 73.137 27.246 73.249 26.826C73.3704 26.3967 73.4777 26 73.571 25.636H75.727ZM83.8219 29.304C83.8219 29.8827 83.7379 30.4147 83.5699 30.9C83.4019 31.376 83.1592 31.7867 82.8419 32.132C82.5245 32.468 82.1419 32.7293 81.6939 32.916C81.2552 33.1027 80.7605 33.196 80.2099 33.196C79.6685 33.196 79.1739 33.1027 78.7259 32.916C78.2872 32.7293 77.9092 32.468 77.5919 32.132C77.2745 31.7867 77.0272 31.376 76.8499 30.9C76.6725 30.4147 76.5839 29.8827 76.5839 29.304C76.5839 28.7253 76.6725 28.198 76.8499 27.722C77.0365 27.246 77.2885 26.84 77.6059 26.504C77.9325 26.168 78.3152 25.9067 78.7539 25.72C79.2019 25.5333 79.6872 25.44 80.2099 25.44C80.7419 25.44 81.2272 25.5333 81.6659 25.72C82.1139 25.9067 82.4965 26.168 82.8139 26.504C83.1312 26.84 83.3785 27.246 83.5559 27.722C83.7332 28.198 83.8219 28.7253 83.8219 29.304ZM81.6939 29.304C81.6939 28.66 81.5632 28.156 81.3019 27.792C81.0499 27.4187 80.6859 27.232 80.2099 27.232C79.7339 27.232 79.3652 27.4187 79.1039 27.792C78.8425 28.156 78.7119 28.66 78.7119 29.304C78.7119 29.948 78.8425 30.4613 79.1039 30.844C79.3652 31.2173 79.7339 31.404 80.2099 31.404C80.6859 31.404 81.0499 31.2173 81.3019 30.844C81.5632 30.4613 81.6939 29.948 81.6939 29.304ZM92.0038 32.748C91.6491 32.8507 91.1918 32.944 90.6318 33.028C90.0718 33.1213 89.4838 33.168 88.8678 33.168C88.2424 33.168 87.7198 33.084 87.2998 32.916C86.8891 32.748 86.5624 32.5147 86.3198 32.216C86.0771 31.908 85.9044 31.544 85.8018 31.124C85.6991 30.704 85.6478 30.242 85.6478 29.738V25.636H87.7338V29.486C87.7338 30.158 87.8224 30.6433 87.9998 30.942C88.1771 31.2407 88.5084 31.39 88.9938 31.39C89.1431 31.39 89.3018 31.3853 89.4698 31.376C89.6378 31.3573 89.7871 31.3387 89.9178 31.32V25.636H92.0038V32.748ZM101.077 22.136C101.469 22.136 101.829 22.178 102.155 22.262C102.482 22.3367 102.734 22.4113 102.911 22.486L102.505 24.152C102.319 24.068 102.113 24.0073 101.889 23.97C101.675 23.9233 101.474 23.9 101.287 23.9C101.035 23.9 100.821 23.9373 100.643 24.012C100.475 24.0773 100.34 24.1707 100.237 24.292C100.144 24.4133 100.074 24.558 100.027 24.726C99.9899 24.894 99.9712 25.076 99.9712 25.272V25.636H102.547V27.372H99.9712V33H97.8852V25.244C97.8852 24.292 98.1512 23.536 98.6832 22.976C99.2245 22.416 100.023 22.136 101.077 22.136ZM110.85 29.304C110.85 29.8827 110.766 30.4147 110.598 30.9C110.43 31.376 110.187 31.7867 109.87 32.132C109.553 32.468 109.17 32.7293 108.722 32.916C108.283 33.1027 107.789 33.196 107.238 33.196C106.697 33.196 106.202 33.1027 105.754 32.916C105.315 32.7293 104.937 32.468 104.62 32.132C104.303 31.7867 104.055 31.376 103.878 30.9C103.701 30.4147 103.612 29.8827 103.612 29.304C103.612 28.7253 103.701 28.198 103.878 27.722C104.065 27.246 104.317 26.84 104.634 26.504C104.961 26.168 105.343 25.9067 105.782 25.72C106.23 25.5333 106.715 25.44 107.238 25.44C107.77 25.44 108.255 25.5333 108.694 25.72C109.142 25.9067 109.525 26.168 109.842 26.504C110.159 26.84 110.407 27.246 110.584 27.722C110.761 28.198 110.85 28.7253 110.85 29.304ZM108.722 29.304C108.722 28.66 108.591 28.156 108.33 27.792C108.078 27.4187 107.714 27.232 107.238 27.232C106.762 27.232 106.393 27.4187 106.132 27.792C105.871 28.156 105.74 28.66 105.74 29.304C105.74 29.948 105.871 30.4613 106.132 30.844C106.393 31.2173 106.762 31.404 107.238 31.404C107.714 31.404 108.078 31.2173 108.33 30.844C108.591 30.4613 108.722 29.948 108.722 29.304ZM117.184 27.484C116.997 27.4373 116.778 27.3907 116.526 27.344C116.274 27.288 116.003 27.26 115.714 27.26C115.583 27.26 115.425 27.274 115.238 27.302C115.061 27.3207 114.925 27.344 114.832 27.372V33H112.746V26.028C113.119 25.8973 113.558 25.776 114.062 25.664C114.575 25.5427 115.145 25.482 115.77 25.482C115.882 25.482 116.017 25.4913 116.176 25.51C116.335 25.5193 116.493 25.538 116.652 25.566C116.811 25.5847 116.969 25.6127 117.128 25.65C117.287 25.678 117.422 25.7153 117.534 25.762L117.184 27.484ZM124.69 31.502C125.072 31.502 125.343 31.4647 125.502 31.39C125.66 31.3153 125.74 31.1707 125.74 30.956C125.74 30.788 125.637 30.6433 125.432 30.522C125.226 30.3913 124.914 30.2467 124.494 30.088C124.167 29.9667 123.868 29.8407 123.598 29.71C123.336 29.5793 123.112 29.4253 122.926 29.248C122.739 29.0613 122.594 28.842 122.492 28.59C122.389 28.338 122.338 28.0347 122.338 27.68C122.338 26.9893 122.594 26.4433 123.108 26.042C123.621 25.6407 124.326 25.44 125.222 25.44C125.67 25.44 126.099 25.482 126.51 25.566C126.92 25.6407 127.247 25.7247 127.49 25.818L127.126 27.442C126.883 27.358 126.617 27.2833 126.328 27.218C126.048 27.1527 125.73 27.12 125.376 27.12C124.722 27.12 124.396 27.302 124.396 27.666C124.396 27.75 124.41 27.8247 124.438 27.89C124.466 27.9553 124.522 28.0207 124.606 28.086C124.69 28.142 124.802 28.2073 124.942 28.282C125.091 28.3473 125.278 28.422 125.502 28.506C125.959 28.674 126.337 28.842 126.636 29.01C126.934 29.1687 127.168 29.346 127.336 29.542C127.513 29.7287 127.634 29.9387 127.7 30.172C127.774 30.4053 127.812 30.676 127.812 30.984C127.812 31.712 127.536 32.2627 126.986 32.636C126.444 33.0093 125.674 33.196 124.676 33.196C124.022 33.196 123.476 33.14 123.038 33.028C122.608 32.916 122.31 32.8227 122.142 32.748L122.492 31.054C122.846 31.194 123.21 31.306 123.584 31.39C123.957 31.4647 124.326 31.502 124.69 31.502ZM135.936 32.748C135.582 32.8507 135.124 32.944 134.564 33.028C134.004 33.1213 133.416 33.168 132.8 33.168C132.175 33.168 131.652 33.084 131.232 32.916C130.822 32.748 130.495 32.5147 130.252 32.216C130.01 31.908 129.837 31.544 129.734 31.124C129.632 30.704 129.58 30.242 129.58 29.738V25.636H131.666V29.486C131.666 30.158 131.755 30.6433 131.932 30.942C132.11 31.2407 132.441 31.39 132.926 31.39C133.076 31.39 133.234 31.3853 133.402 31.376C133.57 31.3573 133.72 31.3387 133.85 31.32V25.636H135.936V32.748ZM142.893 29.262C142.893 27.918 142.398 27.246 141.409 27.246C141.194 27.246 140.979 27.274 140.765 27.33C140.559 27.386 140.391 27.456 140.261 27.54V31.334C140.363 31.3527 140.494 31.3713 140.653 31.39C140.811 31.3993 140.984 31.404 141.171 31.404C141.74 31.404 142.169 31.208 142.459 30.816C142.748 30.424 142.893 29.906 142.893 29.262ZM145.021 29.318C145.021 29.906 144.932 30.438 144.755 30.914C144.587 31.39 144.339 31.796 144.013 32.132C143.686 32.468 143.285 32.7293 142.809 32.916C142.333 33.0933 141.791 33.182 141.185 33.182C140.933 33.182 140.667 33.168 140.387 33.14C140.116 33.1213 139.845 33.0933 139.575 33.056C139.313 33.0187 139.061 32.9767 138.819 32.93C138.576 32.874 138.361 32.818 138.175 32.762V22.472L140.261 22.136V25.804C140.494 25.7013 140.737 25.622 140.989 25.566C141.241 25.51 141.511 25.482 141.801 25.482C142.323 25.482 142.785 25.5753 143.187 25.762C143.588 25.9393 143.924 26.196 144.195 26.532C144.465 26.868 144.671 27.274 144.811 27.75C144.951 28.2167 145.021 28.7393 145.021 29.318ZM150.95 29.094C150.95 28.422 150.861 27.946 150.684 27.666C150.516 27.386 150.222 27.246 149.802 27.246C149.671 27.246 149.536 27.2553 149.396 27.274C149.256 27.2833 149.12 27.2973 148.99 27.316V33H146.904V25.888C147.081 25.8413 147.286 25.7947 147.52 25.748C147.762 25.692 148.014 25.6453 148.276 25.608C148.546 25.5613 148.822 25.5287 149.102 25.51C149.382 25.482 149.657 25.468 149.928 25.468C150.46 25.468 150.889 25.538 151.216 25.678C151.552 25.8087 151.827 25.9673 152.042 26.154C152.34 25.9393 152.681 25.7713 153.064 25.65C153.456 25.5287 153.815 25.468 154.142 25.468C154.73 25.468 155.21 25.552 155.584 25.72C155.966 25.8787 156.27 26.1073 156.494 26.406C156.718 26.7047 156.872 27.0593 156.956 27.47C157.04 27.8807 157.082 28.338 157.082 28.842V33H154.996V29.094C154.996 28.422 154.907 27.946 154.73 27.666C154.562 27.386 154.268 27.246 153.848 27.246C153.736 27.246 153.577 27.274 153.372 27.33C153.176 27.386 153.012 27.456 152.882 27.54C152.947 27.7547 152.989 27.9833 153.008 28.226C153.026 28.4593 153.036 28.7113 153.036 28.982V33H150.95V29.094ZM161.342 33H159.256V25.636H161.342V33ZM161.538 23.508C161.538 23.8907 161.412 24.194 161.16 24.418C160.917 24.6327 160.628 24.74 160.292 24.74C159.956 24.74 159.662 24.6327 159.41 24.418C159.167 24.194 159.046 23.8907 159.046 23.508C159.046 23.1253 159.167 22.8267 159.41 22.612C159.662 22.388 159.956 22.276 160.292 22.276C160.628 22.276 160.917 22.388 161.16 22.612C161.412 22.8267 161.538 23.1253 161.538 23.508ZM163.513 23.802L165.599 23.466V25.636H168.105V27.372H165.599V29.962C165.599 30.4007 165.674 30.7507 165.823 31.012C165.982 31.2733 166.294 31.404 166.761 31.404C166.985 31.404 167.214 31.3853 167.447 31.348C167.69 31.3013 167.909 31.2407 168.105 31.166L168.399 32.79C168.147 32.8927 167.867 32.9813 167.559 33.056C167.251 33.1307 166.873 33.168 166.425 33.168C165.856 33.168 165.384 33.0933 165.011 32.944C164.638 32.7853 164.339 32.5707 164.115 32.3C163.891 32.02 163.732 31.684 163.639 31.292C163.555 30.9 163.513 30.466 163.513 29.99V23.802ZM170.014 23.802L172.1 23.466V25.636H174.606V27.372H172.1V29.962C172.1 30.4007 172.174 30.7507 172.324 31.012C172.482 31.2733 172.795 31.404 173.262 31.404C173.486 31.404 173.714 31.3853 173.948 31.348C174.19 31.3013 174.41 31.2407 174.606 31.166L174.9 32.79C174.648 32.8927 174.368 32.9813 174.06 33.056C173.752 33.1307 173.374 33.168 172.926 33.168C172.356 33.168 171.885 33.0933 171.512 32.944C171.138 32.7853 170.84 32.5707 170.616 32.3C170.392 32.02 170.233 31.684 170.14 31.292C170.056 30.9 170.014 30.466 170.014 29.99V23.802ZM178.67 33H176.584V25.636H178.67V33ZM178.866 23.508C178.866 23.8907 178.74 24.194 178.488 24.418C178.246 24.6327 177.956 24.74 177.62 24.74C177.284 24.74 176.99 24.6327 176.738 24.418C176.496 24.194 176.374 23.8907 176.374 23.508C176.374 23.1253 176.496 22.8267 176.738 22.612C176.99 22.388 177.284 22.276 177.62 22.276C177.956 22.276 178.246 22.388 178.488 22.612C178.74 22.8267 178.866 23.1253 178.866 23.508ZM180.911 25.888C181.266 25.7853 181.723 25.692 182.283 25.608C182.843 25.5147 183.431 25.468 184.047 25.468C184.673 25.468 185.191 25.552 185.601 25.72C186.021 25.8787 186.353 26.1073 186.595 26.406C186.838 26.7047 187.011 27.0593 187.113 27.47C187.216 27.8807 187.267 28.338 187.267 28.842V33H185.181V29.094C185.181 28.422 185.093 27.946 184.915 27.666C184.738 27.386 184.407 27.246 183.921 27.246C183.772 27.246 183.613 27.2553 183.445 27.274C183.277 27.2833 183.128 27.2973 182.997 27.316V33H180.911V25.888ZM191.213 29.08C191.213 30.2467 191.685 30.83 192.627 30.83C192.842 30.83 193.043 30.802 193.229 30.746C193.416 30.69 193.575 30.6247 193.705 30.55V27.218C193.603 27.1993 193.481 27.1853 193.341 27.176C193.201 27.1573 193.038 27.148 192.851 27.148C192.301 27.148 191.89 27.33 191.619 27.694C191.349 28.058 191.213 28.52 191.213 29.08ZM195.791 32.076C195.791 33.28 195.483 34.1713 194.867 34.75C194.261 35.338 193.318 35.632 192.039 35.632C191.591 35.632 191.143 35.59 190.695 35.506C190.247 35.4313 189.832 35.3287 189.449 35.198L189.813 33.448C190.14 33.5787 190.481 33.6813 190.835 33.756C191.199 33.8307 191.61 33.868 192.067 33.868C192.665 33.868 193.085 33.7373 193.327 33.476C193.579 33.2147 193.705 32.8787 193.705 32.468V32.202C193.481 32.3047 193.248 32.384 193.005 32.44C192.772 32.4867 192.515 32.51 192.235 32.51C191.218 32.51 190.439 32.2113 189.897 31.614C189.356 31.0073 189.085 30.1627 189.085 29.08C189.085 28.5387 189.169 28.0487 189.337 27.61C189.505 27.162 189.748 26.7793 190.065 26.462C190.392 26.1447 190.789 25.902 191.255 25.734C191.722 25.5567 192.249 25.468 192.837 25.468C193.089 25.468 193.346 25.482 193.607 25.51C193.878 25.5287 194.144 25.5567 194.405 25.594C194.667 25.6313 194.914 25.678 195.147 25.734C195.39 25.7807 195.605 25.832 195.791 25.888V32.076Z" fill="url(#paint0_linear)"/>
<rect x="63" y="48" width="95" height="30" rx="10" fill="url(#paint1_linear)"/>
<path d="M96.9521 63.489C96.9521 63.931 97.0041 64.3297 97.1081 64.685C97.2208 65.0403 97.3768 65.348 97.5761 65.608C97.7841 65.8593 98.0355 66.0543 98.3301 66.193C98.6248 66.3317 98.9628 66.401 99.3441 66.401C99.7168 66.401 100.05 66.3317 100.345 66.193C100.648 66.0543 100.9 65.8593 101.099 65.608C101.307 65.348 101.463 65.0403 101.567 64.685C101.68 64.3297 101.736 63.931 101.736 63.489C101.736 63.047 101.68 62.6483 101.567 62.293C101.463 61.929 101.307 61.6213 101.099 61.37C100.9 61.11 100.648 60.9107 100.345 60.772C100.05 60.6333 99.7168 60.564 99.3441 60.564C98.9628 60.564 98.6248 60.6377 98.3301 60.785C98.0355 60.9237 97.7841 61.123 97.5761 61.383C97.3768 61.6343 97.2208 61.942 97.1081 62.306C97.0041 62.6613 96.9521 63.0557 96.9521 63.489ZM103.829 63.489C103.829 64.2603 103.712 64.9407 103.478 65.53C103.253 66.1107 102.941 66.6003 102.542 66.999C102.143 67.389 101.667 67.6837 101.112 67.883C100.566 68.0823 99.9768 68.182 99.3441 68.182C98.7288 68.182 98.1481 68.0823 97.6021 67.883C97.0561 67.6837 96.5795 67.389 96.1721 66.999C95.7648 66.6003 95.4441 66.1107 95.2101 65.53C94.9761 64.9407 94.8591 64.2603 94.8591 63.489C94.8591 62.7177 94.9805 62.0417 95.2231 61.461C95.4658 60.8717 95.7908 60.3777 96.1981 59.979C96.6141 59.5803 97.0908 59.2813 97.6281 59.082C98.1741 58.8827 98.7461 58.783 99.3441 58.783C99.9595 58.783 100.54 58.8827 101.086 59.082C101.632 59.2813 102.109 59.5803 102.516 59.979C102.923 60.3777 103.244 60.8717 103.478 61.461C103.712 62.0417 103.829 62.7177 103.829 63.489ZM107.587 63.632C107.777 63.424 107.972 63.2073 108.172 62.982C108.38 62.7567 108.579 62.5357 108.77 62.319C108.96 62.0937 109.138 61.8813 109.303 61.682C109.476 61.4827 109.623 61.3093 109.745 61.162L112.046 61.162C111.586 61.6907 111.136 62.1977 110.694 62.683C110.26 63.1597 109.784 63.6537 109.264 64.165C109.524 64.399 109.792 64.6807 110.07 65.01C110.347 65.3307 110.616 65.6643 110.876 66.011C111.136 66.3577 111.374 66.7043 111.591 67.051C111.807 67.3977 111.989 67.714 112.137 68L109.914 68C109.775 67.7747 109.615 67.5277 109.433 67.259C109.259 66.9817 109.073 66.7087 108.874 66.44C108.674 66.1627 108.462 65.8983 108.237 65.647C108.02 65.3957 107.803 65.1833 107.587 65.01L107.587 68L105.65 68L105.65 58.224L107.587 57.912L107.587 63.632ZM115.924 66.648C116.115 66.648 116.297 66.6437 116.47 66.635C116.643 66.6263 116.782 66.6133 116.886 66.596L116.886 65.127C116.808 65.1097 116.691 65.0923 116.535 65.075C116.379 65.0577 116.236 65.049 116.106 65.049C115.924 65.049 115.751 65.062 115.586 65.088C115.43 65.1053 115.291 65.1443 115.17 65.205C115.049 65.2657 114.953 65.348 114.884 65.452C114.815 65.556 114.78 65.686 114.78 65.842C114.78 66.1453 114.88 66.3577 115.079 66.479C115.287 66.5917 115.569 66.648 115.924 66.648ZM115.768 60.98C116.34 60.98 116.817 61.045 117.198 61.175C117.579 61.305 117.883 61.4913 118.108 61.734C118.342 61.9767 118.507 62.2713 118.602 62.618C118.697 62.9647 118.745 63.3503 118.745 63.775L118.745 67.805C118.468 67.8657 118.082 67.935 117.588 68.013C117.094 68.0997 116.496 68.143 115.794 68.143C115.352 68.143 114.949 68.104 114.585 68.026C114.23 67.948 113.922 67.8223 113.662 67.649C113.402 67.467 113.203 67.233 113.064 66.947C112.925 66.661 112.856 66.31 112.856 65.894C112.856 65.4953 112.934 65.1573 113.09 64.88C113.255 64.6027 113.471 64.3817 113.74 64.217C114.009 64.0523 114.316 63.9353 114.663 63.866C115.01 63.788 115.369 63.749 115.742 63.749C115.993 63.749 116.214 63.762 116.405 63.788C116.604 63.8053 116.765 63.8313 116.886 63.866L116.886 63.684C116.886 63.3547 116.786 63.0903 116.587 62.891C116.388 62.6917 116.041 62.592 115.547 62.592C115.218 62.592 114.893 62.618 114.572 62.67C114.251 62.7133 113.974 62.7783 113.74 62.865L113.493 61.305C113.606 61.2703 113.744 61.2357 113.909 61.201C114.082 61.1577 114.269 61.123 114.468 61.097C114.667 61.0623 114.875 61.0363 115.092 61.019C115.317 60.993 115.543 60.98 115.768 60.98ZM126.663 61.162C126.273 62.4793 125.865 63.7143 125.441 64.867C125.016 66.0197 124.552 67.1377 124.05 68.221C123.868 68.611 123.686 68.9403 123.504 69.209C123.322 69.4863 123.122 69.7117 122.906 69.885C122.689 70.067 122.442 70.197 122.165 70.275C121.896 70.3617 121.58 70.405 121.216 70.405C120.912 70.405 120.631 70.3747 120.371 70.314C120.119 70.262 119.911 70.2013 119.747 70.132L120.085 68.585C120.284 68.6543 120.462 68.702 120.618 68.728C120.774 68.754 120.938 68.767 121.112 68.767C121.458 68.767 121.723 68.6717 121.905 68.481C122.095 68.299 122.256 68.0433 122.386 67.714C121.944 66.8473 121.502 65.8767 121.06 64.802C120.618 63.7187 120.202 62.5053 119.812 61.162L121.866 61.162C121.952 61.5 122.052 61.8683 122.165 62.267C122.286 62.657 122.412 63.0557 122.542 63.463C122.672 63.8617 122.802 64.2517 122.932 64.633C123.07 65.0143 123.2 65.361 123.322 65.673C123.434 65.361 123.551 65.0143 123.673 64.633C123.794 64.2517 123.911 63.8617 124.024 63.463C124.145 63.0557 124.258 62.657 124.362 62.267C124.474 61.8683 124.574 61.5 124.661 61.162L126.663 61.162Z" fill="white"/>
<defs>
<linearGradient id="paint0_linear" x1="109.5" y1="17" x2="109.5" y2="39" gradientUnits="userSpaceOnUse">
<stop stop-color="#49BBE4"/>
<stop offset="1" stop-color="#4587E1"/>
</linearGradient>
<linearGradient id="paint1_linear" x1="110.5" y1="48" x2="110.5" y2="78" gradientUnits="userSpaceOnUse">
<stop stop-color="#49BBE4"/>
<stop offset="1" stop-color="#4587E1"/>
</linearGradient>
</defs>
</svg>
