<svg width="325" height="50" viewBox="0 0 325 50" fill="none" xmlns="http://www.w3.org/2000/svg">
<rect width="325" height="50" rx="10" fill="url(#paint0_linear)"/>
<path d="M141.236 29.588V32H132.902V19.526H135.71V29.588H141.236ZM145.411 25.754C145.411 26.366 145.483 26.918 145.627 27.41C145.783 27.902 145.999 28.328 146.275 28.688C146.563 29.036 146.911 29.306 147.319 29.498C147.727 29.69 148.195 29.786 148.723 29.786C149.239 29.786 149.701 29.69 150.109 29.498C150.529 29.306 150.877 29.036 151.153 28.688C151.441 28.328 151.657 27.902 151.801 27.41C151.957 26.918 152.035 26.366 152.035 25.754C152.035 25.142 151.957 24.59 151.801 24.098C151.657 23.594 151.441 23.168 151.153 22.82C150.877 22.46 150.529 22.184 150.109 21.992C149.701 21.8 149.239 21.704 148.723 21.704C148.195 21.704 147.727 21.806 147.319 22.01C146.911 22.202 146.563 22.478 146.275 22.838C145.999 23.186 145.783 23.612 145.627 24.116C145.483 24.608 145.411 25.154 145.411 25.754ZM154.933 25.754C154.933 26.822 154.771 27.764 154.447 28.58C154.135 29.384 153.703 30.062 153.151 30.614C152.599 31.154 151.939 31.562 151.171 31.838C150.415 32.114 149.599 32.252 148.723 32.252C147.871 32.252 147.067 32.114 146.311 31.838C145.555 31.562 144.895 31.154 144.331 30.614C143.767 30.062 143.323 29.384 142.999 28.58C142.675 27.764 142.513 26.822 142.513 25.754C142.513 24.686 142.681 23.75 143.017 22.946C143.353 22.13 143.803 21.446 144.367 20.894C144.943 20.342 145.603 19.928 146.347 19.652C147.103 19.376 147.895 19.238 148.723 19.238C149.575 19.238 150.379 19.376 151.135 19.652C151.891 19.928 152.551 20.342 153.115 20.894C153.679 21.446 154.123 22.13 154.447 22.946C154.771 23.75 154.933 24.686 154.933 25.754ZM163.718 21.686C162.41 21.686 161.462 22.052 160.874 22.784C160.298 23.504 160.01 24.494 160.01 25.754C160.01 26.366 160.082 26.924 160.226 27.428C160.37 27.92 160.586 28.346 160.874 28.706C161.162 29.066 161.522 29.348 161.954 29.552C162.386 29.744 162.89 29.84 163.466 29.84C163.778 29.84 164.042 29.834 164.258 29.822C164.486 29.81 164.684 29.786 164.852 29.75V25.412H167.66V31.586C167.324 31.718 166.784 31.856 166.04 32C165.296 32.156 164.378 32.234 163.286 32.234C162.35 32.234 161.498 32.09 160.73 31.802C159.974 31.514 159.326 31.094 158.786 30.542C158.246 29.99 157.826 29.312 157.526 28.508C157.238 27.704 157.094 26.786 157.094 25.754C157.094 24.71 157.256 23.786 157.58 22.982C157.904 22.178 158.348 21.5 158.912 20.948C159.476 20.384 160.136 19.958 160.892 19.67C161.66 19.382 162.476 19.238 163.34 19.238C163.928 19.238 164.456 19.28 164.924 19.364C165.404 19.436 165.812 19.526 166.148 19.634C166.496 19.73 166.778 19.832 166.994 19.94C167.222 20.048 167.384 20.132 167.48 20.192L166.67 22.442C166.286 22.238 165.842 22.064 165.338 21.92C164.846 21.764 164.306 21.686 163.718 21.686ZM175.317 19.526H178.125V32H175.317V19.526ZM189.742 32C188.938 30.572 188.068 29.162 187.132 27.77C186.196 26.378 185.2 25.064 184.144 23.828V32H181.372V19.526H183.658C184.054 19.922 184.492 20.408 184.972 20.984C185.452 21.56 185.938 22.178 186.43 22.838C186.934 23.486 187.432 24.164 187.924 24.872C188.416 25.568 188.878 26.24 189.31 26.888V19.526H192.1V32H189.742Z" fill="white"/>
<defs>
<linearGradient id="paint0_linear" x1="162.5" y1="0" x2="162.5" y2="50" gradientUnits="userSpaceOnUse">
<stop stop-color="#49BBE4"/>
<stop offset="1" stop-color="#4587E1"/>
</linearGradient>
</defs>
</svg>
